<mxfile host="app.diagrams.net" modified="2022-03-02T11:49:16.805Z" agent="5.0 (Windows NT 10.0; Win64; x64) AppleWebKit/537.36 (KHTML, like Gecko) Chrome/97.0.4692.71 Safari/537.36" etag="7ysBgi5F4NkWFG-K7IQm" version="16.6.4" type="github" pages="8">
  <diagram id="i4b2GIvNFPZ8uAqkHKhB" name="Day_1">
    <mxGraphModel dx="1360" dy="834" grid="1" gridSize="10" guides="1" tooltips="1" connect="1" arrows="1" fold="1" page="1" pageScale="1" pageWidth="827" pageHeight="1169" math="0" shadow="0">
      <root>
        <mxCell id="0" />
        <mxCell id="1" parent="0" />
        <mxCell id="8uf51YdMV8shFqCPs5ik-41" value="&lt;div style=&quot;font-size: 24px&quot; align=&quot;right&quot;&gt;&lt;font style=&quot;font-size: 24px&quot; color=&quot;#FFFFFF&quot;&gt;Framework&amp;nbsp; &lt;br&gt;&lt;/font&gt;&lt;/div&gt;" style="rounded=1;whiteSpace=wrap;html=1;fillColor=#DBBEBB;strokeColor=none;arcSize=0;align=right;" parent="1" vertex="1">
          <mxGeometry x="20" y="200" width="780" height="110" as="geometry" />
        </mxCell>
        <mxCell id="jeZHhzfTOr5woBPDqDls-1" value="LINUX&amp;nbsp;&amp;nbsp;" style="rounded=1;whiteSpace=wrap;html=1;align=right;" vertex="1" parent="1">
          <mxGeometry x="30" y="230" width="580" height="60" as="geometry" />
        </mxCell>
        <mxCell id="8uf51YdMV8shFqCPs5ik-42" value="&lt;div style=&quot;font-size: 24px&quot; align=&quot;right&quot;&gt;&lt;font style=&quot;font-size: 24px&quot; color=&quot;#FFFFFF&quot;&gt;Process&amp;nbsp; &lt;br&gt;&lt;/font&gt;&lt;/div&gt;" style="rounded=1;whiteSpace=wrap;html=1;fillColor=#FF99CC;strokeColor=none;arcSize=0;align=right;gradientColor=none;" parent="1" vertex="1">
          <mxGeometry x="20" y="310" width="780" height="230" as="geometry" />
        </mxCell>
        <mxCell id="8uf51YdMV8shFqCPs5ik-40" value="&lt;div style=&quot;font-size: 24px&quot; align=&quot;right&quot;&gt;&lt;font style=&quot;font-size: 24px&quot;&gt;Visualise&amp;nbsp; &lt;br&gt;&lt;/font&gt;&lt;/div&gt;" style="rounded=1;whiteSpace=wrap;html=1;fillColor=#CC99FF;strokeColor=none;arcSize=0;align=right;fontColor=#ffffff;" parent="1" vertex="1">
          <mxGeometry x="20" y="540" width="780" height="80" as="geometry" />
        </mxCell>
        <mxCell id="8uf51YdMV8shFqCPs5ik-39" value="&lt;div style=&quot;font-size: 24px&quot; align=&quot;right&quot;&gt;&lt;font style=&quot;font-size: 24px&quot; color=&quot;#FFFFFF&quot;&gt;Input PointCloud Data&amp;nbsp; &lt;br&gt;&lt;/font&gt;&lt;/div&gt;" style="rounded=1;whiteSpace=wrap;html=1;fillColor=#FFCC99;strokeColor=none;arcSize=0;align=right;" parent="1" vertex="1">
          <mxGeometry x="20" y="20" width="780" height="180" as="geometry" />
        </mxCell>
        <mxCell id="8uf51YdMV8shFqCPs5ik-1" value="Gazebo" style="rounded=1;whiteSpace=wrap;html=1;" parent="1" vertex="1">
          <mxGeometry x="180" y="120" width="120" height="60" as="geometry" />
        </mxCell>
        <mxCell id="8uf51YdMV8shFqCPs5ik-2" value="LiDAR_Sensor" style="rounded=1;whiteSpace=wrap;html=1;fillColor=#f5f5f5;fontColor=#333333;strokeColor=#666666;" parent="1" vertex="1">
          <mxGeometry x="320" y="120" width="120" height="60" as="geometry" />
        </mxCell>
        <mxCell id="8uf51YdMV8shFqCPs5ik-3" value="ROS" style="rounded=1;whiteSpace=wrap;html=1;" parent="1" vertex="1">
          <mxGeometry x="40" y="240" width="400" height="40" as="geometry" />
        </mxCell>
        <mxCell id="8uf51YdMV8shFqCPs5ik-4" value="RVIZ" style="rounded=1;whiteSpace=wrap;html=1;" parent="1" vertex="1">
          <mxGeometry x="40" y="560" width="400" height="40" as="geometry" />
        </mxCell>
        <mxCell id="8uf51YdMV8shFqCPs5ik-5" value="ROS_BAG" style="rounded=1;whiteSpace=wrap;html=1;" parent="1" vertex="1">
          <mxGeometry x="40" y="120" width="120" height="60" as="geometry" />
        </mxCell>
        <mxCell id="8uf51YdMV8shFqCPs5ik-8" value="" style="edgeStyle=segmentEdgeStyle;endArrow=classic;html=1;rounded=0;exitX=0.5;exitY=1;exitDx=0;exitDy=0;entryX=0.151;entryY=0.015;entryDx=0;entryDy=0;startArrow=classic;startFill=1;entryPerimeter=0;" parent="1" source="8uf51YdMV8shFqCPs5ik-5" target="8uf51YdMV8shFqCPs5ik-3" edge="1">
          <mxGeometry width="50" height="50" relative="1" as="geometry">
            <mxPoint x="410" y="260" as="sourcePoint" />
            <mxPoint x="460" y="210" as="targetPoint" />
            <Array as="points">
              <mxPoint x="100" y="241" />
            </Array>
          </mxGeometry>
        </mxCell>
        <mxCell id="8uf51YdMV8shFqCPs5ik-9" value="" style="edgeStyle=segmentEdgeStyle;endArrow=classic;html=1;rounded=0;exitX=0.5;exitY=1;exitDx=0;exitDy=0;entryX=0.85;entryY=0.014;entryDx=0;entryDy=0;entryPerimeter=0;" parent="1" source="8uf51YdMV8shFqCPs5ik-2" target="8uf51YdMV8shFqCPs5ik-3" edge="1">
          <mxGeometry width="50" height="50" relative="1" as="geometry">
            <mxPoint x="310" y="160" as="sourcePoint" />
            <mxPoint x="330" y="250" as="targetPoint" />
            <Array as="points">
              <mxPoint x="380" y="200" />
              <mxPoint x="380" y="200" />
            </Array>
          </mxGeometry>
        </mxCell>
        <mxCell id="8uf51YdMV8shFqCPs5ik-11" value="Real_World" style="rounded=1;whiteSpace=wrap;html=1;fillColor=#f5f5f5;fontColor=#333333;strokeColor=#666666;" parent="1" vertex="1">
          <mxGeometry x="320" y="40" width="120" height="60" as="geometry" />
        </mxCell>
        <mxCell id="8uf51YdMV8shFqCPs5ik-12" value="" style="endArrow=classic;html=1;rounded=0;exitX=0.5;exitY=1;exitDx=0;exitDy=0;entryX=0.5;entryY=0;entryDx=0;entryDy=0;" parent="1" source="8uf51YdMV8shFqCPs5ik-11" target="8uf51YdMV8shFqCPs5ik-2" edge="1">
          <mxGeometry width="50" height="50" relative="1" as="geometry">
            <mxPoint x="390" y="260" as="sourcePoint" />
            <mxPoint x="440" y="210" as="targetPoint" />
          </mxGeometry>
        </mxCell>
        <mxCell id="8uf51YdMV8shFqCPs5ik-13" value="Simulated_World" style="rounded=1;whiteSpace=wrap;html=1;" parent="1" vertex="1">
          <mxGeometry x="180" y="40" width="120" height="60" as="geometry" />
        </mxCell>
        <mxCell id="8uf51YdMV8shFqCPs5ik-14" value="" style="endArrow=classic;html=1;rounded=0;exitX=0.5;exitY=1;exitDx=0;exitDy=0;entryX=0.5;entryY=0;entryDx=0;entryDy=0;" parent="1" source="8uf51YdMV8shFqCPs5ik-13" target="8uf51YdMV8shFqCPs5ik-1" edge="1">
          <mxGeometry width="50" height="50" relative="1" as="geometry">
            <mxPoint x="410" y="110" as="sourcePoint" />
            <mxPoint x="410" y="130" as="targetPoint" />
          </mxGeometry>
        </mxCell>
        <mxCell id="8uf51YdMV8shFqCPs5ik-16" value="Pointcloud_Files" style="rounded=1;whiteSpace=wrap;html=1;" parent="1" vertex="1">
          <mxGeometry x="40" y="40" width="120" height="60" as="geometry" />
        </mxCell>
        <mxCell id="8uf51YdMV8shFqCPs5ik-17" value="" style="endArrow=classic;html=1;rounded=0;startArrow=classic;startFill=1;entryX=0.5;entryY=1;entryDx=0;entryDy=0;" parent="1" target="8uf51YdMV8shFqCPs5ik-16" edge="1">
          <mxGeometry width="50" height="50" relative="1" as="geometry">
            <mxPoint x="100" y="120" as="sourcePoint" />
            <mxPoint x="40" y="260" as="targetPoint" />
          </mxGeometry>
        </mxCell>
        <mxCell id="8uf51YdMV8shFqCPs5ik-18" value="" style="edgeStyle=segmentEdgeStyle;endArrow=classic;html=1;rounded=0;entryX=0.1;entryY=0;entryDx=0;entryDy=0;entryPerimeter=0;exitX=0.099;exitY=0.989;exitDx=0;exitDy=0;exitPerimeter=0;" parent="1" source="8uf51YdMV8shFqCPs5ik-3" target="8uf51YdMV8shFqCPs5ik-4" edge="1">
          <mxGeometry width="50" height="50" relative="1" as="geometry">
            <mxPoint x="90" y="281" as="sourcePoint" />
            <mxPoint x="330" y="250" as="targetPoint" />
            <Array as="points" />
          </mxGeometry>
        </mxCell>
        <mxCell id="8uf51YdMV8shFqCPs5ik-19" value="Open3D" style="rounded=1;whiteSpace=wrap;html=1;fillColor=#f5f5f5;fontColor=#333333;strokeColor=#666666;" parent="1" vertex="1">
          <mxGeometry x="120" y="320" width="80" height="60" as="geometry" />
        </mxCell>
        <mxCell id="8uf51YdMV8shFqCPs5ik-30" value="" style="edgeStyle=orthogonalEdgeStyle;rounded=0;orthogonalLoop=1;jettySize=auto;html=1;startArrow=classic;startFill=1;entryX=0.5;entryY=1;entryDx=0;entryDy=0;" parent="1" source="8uf51YdMV8shFqCPs5ik-20" target="8uf51YdMV8shFqCPs5ik-3" edge="1">
          <mxGeometry relative="1" as="geometry">
            <mxPoint x="240" y="300" as="targetPoint" />
          </mxGeometry>
        </mxCell>
        <mxCell id="8uf51YdMV8shFqCPs5ik-32" style="edgeStyle=orthogonalEdgeStyle;rounded=0;orthogonalLoop=1;jettySize=auto;html=1;entryX=0.5;entryY=0;entryDx=0;entryDy=0;startArrow=classic;startFill=1;" parent="1" source="8uf51YdMV8shFqCPs5ik-20" target="8uf51YdMV8shFqCPs5ik-4" edge="1">
          <mxGeometry relative="1" as="geometry" />
        </mxCell>
        <mxCell id="8uf51YdMV8shFqCPs5ik-20" value="PointNet" style="rounded=1;whiteSpace=wrap;html=1;fillColor=#f5f5f5;fontColor=#333333;strokeColor=#666666;" parent="1" vertex="1">
          <mxGeometry x="200" y="390" width="80" height="60" as="geometry" />
        </mxCell>
        <mxCell id="8uf51YdMV8shFqCPs5ik-31" style="edgeStyle=orthogonalEdgeStyle;rounded=0;orthogonalLoop=1;jettySize=auto;html=1;entryX=0.7;entryY=1.086;entryDx=0;entryDy=0;entryPerimeter=0;startArrow=classic;startFill=1;" parent="1" source="8uf51YdMV8shFqCPs5ik-21" target="8uf51YdMV8shFqCPs5ik-3" edge="1">
          <mxGeometry relative="1" as="geometry" />
        </mxCell>
        <mxCell id="8uf51YdMV8shFqCPs5ik-34" style="edgeStyle=orthogonalEdgeStyle;rounded=0;orthogonalLoop=1;jettySize=auto;html=1;entryX=0.7;entryY=0.029;entryDx=0;entryDy=0;entryPerimeter=0;startArrow=classic;startFill=1;" parent="1" source="8uf51YdMV8shFqCPs5ik-21" target="8uf51YdMV8shFqCPs5ik-4" edge="1">
          <mxGeometry relative="1" as="geometry" />
        </mxCell>
        <mxCell id="8uf51YdMV8shFqCPs5ik-21" value="Filtering" style="rounded=1;whiteSpace=wrap;html=1;fillColor=#f5f5f5;fontColor=#333333;strokeColor=#666666;" parent="1" vertex="1">
          <mxGeometry x="280" y="460" width="80" height="60" as="geometry" />
        </mxCell>
        <mxCell id="8uf51YdMV8shFqCPs5ik-22" value="" style="endArrow=classic;html=1;rounded=0;entryX=0.5;entryY=0;entryDx=0;entryDy=0;" parent="1" source="8uf51YdMV8shFqCPs5ik-1" target="8uf51YdMV8shFqCPs5ik-3" edge="1">
          <mxGeometry width="50" height="50" relative="1" as="geometry">
            <mxPoint x="239.76" y="180" as="sourcePoint" />
            <mxPoint x="239.76" y="200" as="targetPoint" />
          </mxGeometry>
        </mxCell>
        <mxCell id="8uf51YdMV8shFqCPs5ik-43" style="edgeStyle=orthogonalEdgeStyle;rounded=0;orthogonalLoop=1;jettySize=auto;html=1;entryX=1;entryY=0.5;entryDx=0;entryDy=0;fontSize=24;fontColor=#FFFFFF;startArrow=classic;startFill=1;" parent="1" source="8uf51YdMV8shFqCPs5ik-23" target="8uf51YdMV8shFqCPs5ik-3" edge="1">
          <mxGeometry relative="1" as="geometry" />
        </mxCell>
        <mxCell id="8uf51YdMV8shFqCPs5ik-23" value="Actions" style="rounded=1;whiteSpace=wrap;html=1;" parent="1" vertex="1">
          <mxGeometry x="480" y="320" width="80" height="60" as="geometry" />
        </mxCell>
        <mxCell id="8uf51YdMV8shFqCPs5ik-25" value="" style="endArrow=classic;startArrow=classic;html=1;rounded=0;exitX=0.5;exitY=0;exitDx=0;exitDy=0;entryX=0.3;entryY=1.029;entryDx=0;entryDy=0;entryPerimeter=0;" parent="1" source="8uf51YdMV8shFqCPs5ik-19" target="8uf51YdMV8shFqCPs5ik-3" edge="1">
          <mxGeometry width="50" height="50" relative="1" as="geometry">
            <mxPoint x="310" y="420" as="sourcePoint" />
            <mxPoint x="360" y="370" as="targetPoint" />
          </mxGeometry>
        </mxCell>
        <mxCell id="8uf51YdMV8shFqCPs5ik-26" value="" style="endArrow=classic;html=1;rounded=0;exitX=0.5;exitY=1;exitDx=0;exitDy=0;entryX=0.3;entryY=0;entryDx=0;entryDy=0;entryPerimeter=0;" parent="1" source="8uf51YdMV8shFqCPs5ik-19" target="8uf51YdMV8shFqCPs5ik-4" edge="1">
          <mxGeometry width="50" height="50" relative="1" as="geometry">
            <mxPoint x="310" y="420" as="sourcePoint" />
            <mxPoint x="360" y="370" as="targetPoint" />
          </mxGeometry>
        </mxCell>
        <mxCell id="8uf51YdMV8shFqCPs5ik-46" value="&lt;font style=&quot;font-size: 18px&quot;&gt;ROS&lt;/font&gt;" style="shape=process;whiteSpace=wrap;html=1;backgroundOutline=1;fontSize=24;fontColor=#FFFFFF;fillColor=#66B2FF;gradientColor=none;strokeColor=#FFFFFF;" parent="1" vertex="1">
          <mxGeometry x="20" y="760" width="120" height="60" as="geometry" />
        </mxCell>
        <mxCell id="8uf51YdMV8shFqCPs5ik-47" value="&lt;font style=&quot;font-size: 18px&quot;&gt;PointCloud Files&lt;/font&gt;" style="shape=process;whiteSpace=wrap;html=1;backgroundOutline=1;fontSize=24;fontColor=#FFFFFF;fillColor=#66B2FF;gradientColor=none;strokeColor=#FFFFFF;" parent="1" vertex="1">
          <mxGeometry x="20" y="820" width="120" height="60" as="geometry" />
        </mxCell>
        <mxCell id="8uf51YdMV8shFqCPs5ik-49" value="&lt;font style=&quot;font-size: 18px&quot;&gt;RVIZ + ROSBAG&lt;br&gt;&lt;/font&gt;" style="shape=process;whiteSpace=wrap;html=1;backgroundOutline=1;fontSize=24;fontColor=#FFFFFF;fillColor=#66B2FF;gradientColor=none;strokeColor=#FFFFFF;" parent="1" vertex="1">
          <mxGeometry x="20" y="880" width="120" height="60" as="geometry" />
        </mxCell>
        <mxCell id="8uf51YdMV8shFqCPs5ik-51" value="&lt;font style=&quot;font-size: 18px&quot;&gt;Gazebo&lt;/font&gt;" style="shape=process;whiteSpace=wrap;html=1;backgroundOutline=1;fontSize=24;fontColor=#FFFFFF;fillColor=#66B2FF;gradientColor=none;strokeColor=#FFFFFF;" parent="1" vertex="1">
          <mxGeometry x="20" y="980" width="120" height="60" as="geometry" />
        </mxCell>
        <mxCell id="8uf51YdMV8shFqCPs5ik-55" value="&lt;font style=&quot;font-size: 18px&quot;&gt;Linux + Python&lt;br&gt;&lt;/font&gt;" style="shape=process;whiteSpace=wrap;html=1;backgroundOutline=1;fontSize=24;fontColor=#FFFFFF;fillColor=#66B2FF;gradientColor=none;strokeColor=#FFFFFF;" parent="1" vertex="1">
          <mxGeometry x="20" y="700" width="120" height="60" as="geometry" />
        </mxCell>
        <mxCell id="8uf51YdMV8shFqCPs5ik-56" value="" style="rounded=0;whiteSpace=wrap;html=1;fontSize=18;fontColor=#FFFFFF;fillColor=#A1D6FF;gradientColor=none;strokeColor=#FFFFFF;" parent="1" vertex="1">
          <mxGeometry x="140" y="700" width="360" height="60" as="geometry" />
        </mxCell>
        <mxCell id="8uf51YdMV8shFqCPs5ik-57" value="Project" style="shape=process;whiteSpace=wrap;html=1;backgroundOutline=1;fontSize=24;fontColor=#FFFFFF;fillColor=#66B2FF;gradientColor=none;strokeColor=#FFFFFF;" parent="1" vertex="1">
          <mxGeometry x="20" y="1100" width="120" height="60" as="geometry" />
        </mxCell>
        <mxCell id="8uf51YdMV8shFqCPs5ik-58" value="Make Something (there will be examples, pre-trained model?)" style="rounded=0;whiteSpace=wrap;html=1;fontSize=18;fontColor=#FFFFFF;fillColor=#66B2FF;gradientColor=none;strokeColor=#FFFFFF;" parent="1" vertex="1">
          <mxGeometry x="140" y="1100" width="660" height="60" as="geometry" />
        </mxCell>
        <mxCell id="8uf51YdMV8shFqCPs5ik-61" value="&lt;div style=&quot;font-size: 12px&quot; align=&quot;left&quot;&gt;&lt;br&gt;&lt;ol&gt;&lt;li&gt;&lt;font style=&quot;font-size: 12px&quot;&gt;Work with VS code and Terminal&lt;br&gt;&lt;/font&gt;&lt;/li&gt;&lt;li&gt;&lt;div&gt;&lt;font style=&quot;font-size: 12px&quot;&gt;Run python scripts&lt;/font&gt;&lt;/div&gt;&lt;/li&gt;&lt;/ol&gt;&lt;/div&gt;" style="rounded=0;whiteSpace=wrap;html=1;fontSize=18;fontColor=#FFFFFF;fillColor=#A1D6FF;gradientColor=none;strokeColor=#FFFFFF;align=left;" parent="1" vertex="1">
          <mxGeometry x="500" y="700" width="300" height="60" as="geometry" />
        </mxCell>
        <mxCell id="8uf51YdMV8shFqCPs5ik-63" value="&lt;p style=&quot;line-height: 0.9&quot;&gt;&lt;font style=&quot;font-size: 12px&quot;&gt;Introduction to ROS. Demonstration of Concepts. Time to practice and familiarise yourself &lt;br&gt;&lt;/font&gt;&lt;/p&gt;" style="rounded=0;whiteSpace=wrap;html=1;fontSize=18;fontColor=#FFFFFF;fillColor=#A1D6FF;gradientColor=none;strokeColor=#FFFFFF;" parent="1" vertex="1">
          <mxGeometry x="140" y="760" width="360" height="60" as="geometry" />
        </mxCell>
        <mxCell id="8uf51YdMV8shFqCPs5ik-64" value="&lt;div style=&quot;font-size: 12px&quot; align=&quot;left&quot;&gt;&lt;ol&gt;&lt;li&gt;&lt;font style=&quot;font-size: 12px&quot;&gt;Run ROS Demo Nodes&lt;/font&gt;&lt;/li&gt;&lt;li&gt;&lt;font style=&quot;font-size: 12px&quot;&gt;Edit a ROS Node&lt;br&gt;&lt;/font&gt;&lt;/li&gt;&lt;/ol&gt;&lt;/div&gt;" style="rounded=0;whiteSpace=wrap;html=1;fontSize=18;fontColor=#FFFFFF;fillColor=#A1D6FF;gradientColor=none;strokeColor=#FFFFFF;align=left;" parent="1" vertex="1">
          <mxGeometry x="500" y="760" width="300" height="60" as="geometry" />
        </mxCell>
        <mxCell id="8uf51YdMV8shFqCPs5ik-66" value="&lt;div style=&quot;font-size: 36px&quot; align=&quot;left&quot;&gt;&lt;b&gt;&lt;font style=&quot;font-size: 36px&quot;&gt;Day 1&lt;br&gt;&lt;/font&gt;&lt;/b&gt;&lt;/div&gt;" style="rounded=1;whiteSpace=wrap;html=1;strokeColor=none;align=left;" parent="1" vertex="1">
          <mxGeometry x="20" y="640" width="780" height="50" as="geometry" />
        </mxCell>
        <mxCell id="8uf51YdMV8shFqCPs5ik-67" value="&lt;p style=&quot;line-height: 0.5&quot;&gt;&lt;font style=&quot;font-size: 12px&quot; color=&quot;#FFFFFF&quot;&gt;Introduction to our learning environment and run some python scripts&lt;/font&gt;&lt;/p&gt;" style="text;html=1;strokeColor=none;fillColor=none;align=center;verticalAlign=middle;whiteSpace=wrap;rounded=0;fontSize=36;fontColor=#000000;" parent="1" vertex="1">
          <mxGeometry x="140" y="700" width="360" height="60" as="geometry" />
        </mxCell>
        <mxCell id="8uf51YdMV8shFqCPs5ik-68" value="&lt;div align=&quot;center&quot;&gt;Description&lt;/div&gt;" style="rounded=1;whiteSpace=wrap;html=1;strokeColor=none;align=center;" parent="1" vertex="1">
          <mxGeometry x="140" y="680" width="360" height="20" as="geometry" />
        </mxCell>
        <mxCell id="8uf51YdMV8shFqCPs5ik-69" value="Tasks" style="rounded=1;whiteSpace=wrap;html=1;strokeColor=none;align=center;" parent="1" vertex="1">
          <mxGeometry x="500" y="680" width="300" height="20" as="geometry" />
        </mxCell>
        <mxCell id="8uf51YdMV8shFqCPs5ik-70" value="&lt;p style=&quot;line-height: 0.9&quot;&gt;&lt;font style=&quot;font-size: 12px&quot;&gt;Introduction to PointCloud Files. Open and view file. Convert between filetypes.&lt;br&gt;&lt;/font&gt;&lt;/p&gt;" style="rounded=0;whiteSpace=wrap;html=1;fontSize=18;fontColor=#FFFFFF;fillColor=#A1D6FF;gradientColor=none;strokeColor=#FFFFFF;" parent="1" vertex="1">
          <mxGeometry x="140" y="820" width="360" height="60" as="geometry" />
        </mxCell>
        <mxCell id="8uf51YdMV8shFqCPs5ik-71" value="&lt;ol style=&quot;font-size: 12px&quot;&gt;&lt;li&gt;Quiz on Pointcloud Files&lt;font style=&quot;font-size: 12px&quot;&gt;&lt;br&gt;&lt;/font&gt;&lt;/li&gt;&lt;li&gt;&lt;font style=&quot;font-size: 12px&quot;&gt;Visualise files and scenes&lt;/font&gt;&lt;/li&gt;&lt;li&gt;Convert between filestypes&lt;/li&gt;&lt;/ol&gt;" style="rounded=0;whiteSpace=wrap;html=1;fontSize=18;fontColor=#FFFFFF;fillColor=#A1D6FF;gradientColor=none;strokeColor=#FFFFFF;align=left;" parent="1" vertex="1">
          <mxGeometry x="500" y="820" width="300" height="60" as="geometry" />
        </mxCell>
        <mxCell id="8uf51YdMV8shFqCPs5ik-72" value="&lt;font style=&quot;font-size: 12px&quot;&gt;Understand how to use ROS Bags to both record and replay data. Visualise this data in RVIZ&lt;br&gt;&lt;/font&gt;" style="rounded=0;whiteSpace=wrap;html=1;fontSize=18;fontColor=#FFFFFF;fillColor=#A1D6FF;gradientColor=none;strokeColor=#FFFFFF;" parent="1" vertex="1">
          <mxGeometry x="140" y="880" width="360" height="60" as="geometry" />
        </mxCell>
        <mxCell id="8uf51YdMV8shFqCPs5ik-73" value="&lt;div style=&quot;font-size: 12px&quot; align=&quot;left&quot;&gt;&lt;ol&gt;&lt;li&gt;&lt;font style=&quot;font-size: 12px&quot;&gt;Run ROS Demo Nodes&lt;/font&gt;&lt;/li&gt;&lt;li&gt;&lt;font style=&quot;font-size: 12px&quot;&gt;Edit a Ros Node&lt;br&gt;&lt;/font&gt;&lt;/li&gt;&lt;/ol&gt;&lt;/div&gt;" style="rounded=0;whiteSpace=wrap;html=1;fontSize=18;fontColor=#FFFFFF;fillColor=#A1D6FF;gradientColor=none;strokeColor=#FFFFFF;align=left;" parent="1" vertex="1">
          <mxGeometry x="500" y="880" width="300" height="60" as="geometry" />
        </mxCell>
        <mxCell id="8uf51YdMV8shFqCPs5ik-74" value="&lt;font style=&quot;font-size: 12px&quot;&gt;Understand what Gazebo is and how we can use it. How to interface ROS with Gazebo. How we model a LiDAR in Gazebo.&lt;/font&gt;" style="rounded=0;whiteSpace=wrap;html=1;fontSize=18;fontColor=#FFFFFF;fillColor=#A1D6FF;gradientColor=none;strokeColor=#FFFFFF;" parent="1" vertex="1">
          <mxGeometry x="140" y="980" width="360" height="60" as="geometry" />
        </mxCell>
        <mxCell id="8uf51YdMV8shFqCPs5ik-75" value="&lt;div style=&quot;font-size: 12px&quot; align=&quot;left&quot;&gt;&lt;ol&gt;&lt;li&gt;&lt;font style=&quot;font-size: 12px&quot;&gt;Run and edit Gazebo World&lt;br&gt;&lt;/font&gt;&lt;/li&gt;&lt;li&gt;&lt;font style=&quot;font-size: 12px&quot;&gt;Add and modify LiDAR in Gazebo World&lt;/font&gt;&lt;/li&gt;&lt;li&gt;&lt;font style=&quot;font-size: 12px&quot;&gt;Interact with LiDAR from ROS&lt;br&gt;&lt;/font&gt;&lt;/li&gt;&lt;/ol&gt;&lt;/div&gt;" style="rounded=0;whiteSpace=wrap;html=1;fontSize=18;fontColor=#FFFFFF;fillColor=#A1D6FF;gradientColor=none;strokeColor=#FFFFFF;align=left;" parent="1" vertex="1">
          <mxGeometry x="500" y="980" width="300" height="60" as="geometry" />
        </mxCell>
        <mxCell id="8uf51YdMV8shFqCPs5ik-76" value="&lt;font style=&quot;font-size: 16px&quot;&gt;PointCloud Manipulation&lt;br&gt;&lt;/font&gt;" style="shape=process;whiteSpace=wrap;html=1;backgroundOutline=1;fontSize=24;fontColor=#FFFFFF;fillColor=#66B2FF;gradientColor=none;strokeColor=#FFFFFF;" parent="1" vertex="1">
          <mxGeometry x="20" y="1040" width="120" height="60" as="geometry" />
        </mxCell>
        <mxCell id="8uf51YdMV8shFqCPs5ik-77" value="&lt;font style=&quot;font-size: 12px&quot;&gt;Interacting with other things in ROS. Databases, robots, GUI, Etc&lt;/font&gt;" style="rounded=0;whiteSpace=wrap;html=1;fontSize=18;fontColor=#FFFFFF;fillColor=#A1D6FF;gradientColor=none;strokeColor=#FFFFFF;" parent="1" vertex="1">
          <mxGeometry x="140" y="1040" width="360" height="60" as="geometry" />
        </mxCell>
        <mxCell id="8uf51YdMV8shFqCPs5ik-78" value="&lt;div style=&quot;font-size: 12px&quot; align=&quot;left&quot;&gt;&lt;ol&gt;&lt;li&gt;&lt;font style=&quot;font-size: 12px&quot;&gt;Run ROS Demo Nodes&lt;/font&gt;&lt;/li&gt;&lt;li&gt;&lt;font style=&quot;font-size: 12px&quot;&gt;Edit a Ros Node&lt;br&gt;&lt;/font&gt;&lt;/li&gt;&lt;/ol&gt;&lt;/div&gt;" style="rounded=0;whiteSpace=wrap;html=1;fontSize=18;fontColor=#FFFFFF;fillColor=#A1D6FF;gradientColor=none;strokeColor=#FFFFFF;align=left;" parent="1" vertex="1">
          <mxGeometry x="500" y="1040" width="300" height="60" as="geometry" />
        </mxCell>
        <mxCell id="8uf51YdMV8shFqCPs5ik-80" value="&amp;nbsp;&amp;nbsp; LUNCH" style="rounded=0;whiteSpace=wrap;html=1;fontSize=18;fontColor=#FFFFFF;fillColor=#66B2FF;gradientColor=none;strokeColor=#FFFFFF;align=left;" parent="1" vertex="1">
          <mxGeometry x="20" y="940" width="780" height="40" as="geometry" />
        </mxCell>
        <mxCell id="HBmHtBkL_J9Jyxp98ZF8-1" value="LiDAR_Sensor" style="rounded=1;whiteSpace=wrap;html=1;fillColor=#999999;strokeColor=#314354;fontColor=#CCCCCC;" vertex="1" parent="1">
          <mxGeometry x="320" y="120" width="120" height="60" as="geometry" />
        </mxCell>
        <mxCell id="HBmHtBkL_J9Jyxp98ZF8-2" value="Real_World" style="rounded=1;whiteSpace=wrap;html=1;fillColor=#999999;strokeColor=#314354;fontColor=#CCCCCC;" vertex="1" parent="1">
          <mxGeometry x="320" y="40" width="120" height="60" as="geometry" />
        </mxCell>
        <mxCell id="HBmHtBkL_J9Jyxp98ZF8-3" value="Open3D" style="rounded=1;whiteSpace=wrap;html=1;fillColor=#999999;strokeColor=#314354;fontColor=#CCCCCC;" vertex="1" parent="1">
          <mxGeometry x="120" y="320" width="80" height="60" as="geometry" />
        </mxCell>
        <mxCell id="HBmHtBkL_J9Jyxp98ZF8-4" value="PointNet" style="rounded=1;whiteSpace=wrap;html=1;fillColor=#999999;strokeColor=#314354;fontColor=#CCCCCC;" vertex="1" parent="1">
          <mxGeometry x="200" y="390" width="80" height="60" as="geometry" />
        </mxCell>
        <mxCell id="HBmHtBkL_J9Jyxp98ZF8-5" value="Filtering" style="rounded=1;whiteSpace=wrap;html=1;" vertex="1" parent="1">
          <mxGeometry x="280" y="460" width="80" height="60" as="geometry" />
        </mxCell>
      </root>
    </mxGraphModel>
  </diagram>
  <diagram id="ZahPZL3ch7Fa3S_3fA_Q" name="Day_2">
    <mxGraphModel dx="1360" dy="834" grid="1" gridSize="10" guides="1" tooltips="1" connect="1" arrows="1" fold="1" page="1" pageScale="1" pageWidth="827" pageHeight="1169" math="0" shadow="0">
      <root>
        <mxCell id="noMDyQk_eTensu_5yYvp-0" />
        <mxCell id="noMDyQk_eTensu_5yYvp-1" parent="noMDyQk_eTensu_5yYvp-0" />
        <mxCell id="liaxdnHP4bsJDzJQAd7m-1" value="&lt;div style=&quot;font-size: 24px&quot; align=&quot;right&quot;&gt;&lt;font style=&quot;font-size: 24px&quot; color=&quot;#FFFFFF&quot;&gt;Framework&amp;nbsp; &lt;br&gt;&lt;/font&gt;&lt;/div&gt;" style="rounded=1;whiteSpace=wrap;html=1;fillColor=#DBBEBB;strokeColor=none;arcSize=0;align=right;" parent="noMDyQk_eTensu_5yYvp-1" vertex="1">
          <mxGeometry x="20" y="200" width="780" height="110" as="geometry" />
        </mxCell>
        <mxCell id="e1idq5NepFMMjDnsuPwV-0" value="LINUX&amp;nbsp;&amp;nbsp;" style="rounded=1;whiteSpace=wrap;html=1;align=right;" vertex="1" parent="noMDyQk_eTensu_5yYvp-1">
          <mxGeometry x="30" y="230" width="580" height="60" as="geometry" />
        </mxCell>
        <mxCell id="liaxdnHP4bsJDzJQAd7m-0" value="&lt;div style=&quot;font-size: 24px&quot; align=&quot;right&quot;&gt;&lt;font style=&quot;font-size: 24px&quot; color=&quot;#FFFFFF&quot;&gt;Process&amp;nbsp; &lt;br&gt;&lt;/font&gt;&lt;/div&gt;" style="rounded=1;whiteSpace=wrap;html=1;fillColor=#FF99CC;strokeColor=none;arcSize=0;align=right;gradientColor=none;" parent="noMDyQk_eTensu_5yYvp-1" vertex="1">
          <mxGeometry x="20" y="310" width="780" height="230" as="geometry" />
        </mxCell>
        <mxCell id="liaxdnHP4bsJDzJQAd7m-2" value="&lt;div style=&quot;font-size: 24px&quot; align=&quot;right&quot;&gt;&lt;font style=&quot;font-size: 24px&quot;&gt;Visualise&amp;nbsp; &lt;br&gt;&lt;/font&gt;&lt;/div&gt;" style="rounded=1;whiteSpace=wrap;html=1;fillColor=#CC99FF;strokeColor=none;arcSize=0;align=right;fontColor=#ffffff;" parent="noMDyQk_eTensu_5yYvp-1" vertex="1">
          <mxGeometry x="20" y="540" width="780" height="80" as="geometry" />
        </mxCell>
        <mxCell id="liaxdnHP4bsJDzJQAd7m-3" value="&lt;div style=&quot;font-size: 24px&quot; align=&quot;right&quot;&gt;&lt;font style=&quot;font-size: 24px&quot; color=&quot;#FFFFFF&quot;&gt;Input PointCloud Data&amp;nbsp; &lt;br&gt;&lt;/font&gt;&lt;/div&gt;" style="rounded=1;whiteSpace=wrap;html=1;fillColor=#FFCC99;strokeColor=none;arcSize=0;align=right;" parent="noMDyQk_eTensu_5yYvp-1" vertex="1">
          <mxGeometry x="20" y="20" width="780" height="180" as="geometry" />
        </mxCell>
        <mxCell id="liaxdnHP4bsJDzJQAd7m-4" value="Gazebo" style="rounded=1;whiteSpace=wrap;html=1;" parent="noMDyQk_eTensu_5yYvp-1" vertex="1">
          <mxGeometry x="180" y="120" width="120" height="60" as="geometry" />
        </mxCell>
        <mxCell id="liaxdnHP4bsJDzJQAd7m-5" value="LiDAR_Sensor" style="rounded=1;whiteSpace=wrap;html=1;" parent="noMDyQk_eTensu_5yYvp-1" vertex="1">
          <mxGeometry x="320" y="120" width="120" height="60" as="geometry" />
        </mxCell>
        <mxCell id="liaxdnHP4bsJDzJQAd7m-6" value="ROS" style="rounded=1;whiteSpace=wrap;html=1;" parent="noMDyQk_eTensu_5yYvp-1" vertex="1">
          <mxGeometry x="40" y="240" width="400" height="40" as="geometry" />
        </mxCell>
        <mxCell id="liaxdnHP4bsJDzJQAd7m-7" value="RVIZ" style="rounded=1;whiteSpace=wrap;html=1;" parent="noMDyQk_eTensu_5yYvp-1" vertex="1">
          <mxGeometry x="40" y="560" width="400" height="40" as="geometry" />
        </mxCell>
        <mxCell id="liaxdnHP4bsJDzJQAd7m-8" value="ROS_BAG" style="rounded=1;whiteSpace=wrap;html=1;" parent="noMDyQk_eTensu_5yYvp-1" vertex="1">
          <mxGeometry x="40" y="120" width="120" height="60" as="geometry" />
        </mxCell>
        <mxCell id="liaxdnHP4bsJDzJQAd7m-9" value="" style="edgeStyle=segmentEdgeStyle;endArrow=classic;html=1;rounded=0;exitX=0.5;exitY=1;exitDx=0;exitDy=0;entryX=0.151;entryY=0.015;entryDx=0;entryDy=0;startArrow=classic;startFill=1;entryPerimeter=0;" parent="noMDyQk_eTensu_5yYvp-1" source="liaxdnHP4bsJDzJQAd7m-8" target="liaxdnHP4bsJDzJQAd7m-6" edge="1">
          <mxGeometry width="50" height="50" relative="1" as="geometry">
            <mxPoint x="410" y="260" as="sourcePoint" />
            <mxPoint x="460" y="210" as="targetPoint" />
            <Array as="points">
              <mxPoint x="100" y="241" />
            </Array>
          </mxGeometry>
        </mxCell>
        <mxCell id="liaxdnHP4bsJDzJQAd7m-10" value="" style="edgeStyle=segmentEdgeStyle;endArrow=classic;html=1;rounded=0;exitX=0.5;exitY=1;exitDx=0;exitDy=0;entryX=0.85;entryY=0.014;entryDx=0;entryDy=0;entryPerimeter=0;" parent="noMDyQk_eTensu_5yYvp-1" source="liaxdnHP4bsJDzJQAd7m-5" target="liaxdnHP4bsJDzJQAd7m-6" edge="1">
          <mxGeometry width="50" height="50" relative="1" as="geometry">
            <mxPoint x="310" y="160" as="sourcePoint" />
            <mxPoint x="330" y="250" as="targetPoint" />
            <Array as="points">
              <mxPoint x="380" y="200" />
              <mxPoint x="380" y="200" />
            </Array>
          </mxGeometry>
        </mxCell>
        <mxCell id="liaxdnHP4bsJDzJQAd7m-11" value="Real_World" style="rounded=1;whiteSpace=wrap;html=1;" parent="noMDyQk_eTensu_5yYvp-1" vertex="1">
          <mxGeometry x="320" y="40" width="120" height="60" as="geometry" />
        </mxCell>
        <mxCell id="liaxdnHP4bsJDzJQAd7m-12" value="" style="endArrow=classic;html=1;rounded=0;exitX=0.5;exitY=1;exitDx=0;exitDy=0;entryX=0.5;entryY=0;entryDx=0;entryDy=0;" parent="noMDyQk_eTensu_5yYvp-1" source="liaxdnHP4bsJDzJQAd7m-11" target="liaxdnHP4bsJDzJQAd7m-5" edge="1">
          <mxGeometry width="50" height="50" relative="1" as="geometry">
            <mxPoint x="390" y="260" as="sourcePoint" />
            <mxPoint x="440" y="210" as="targetPoint" />
          </mxGeometry>
        </mxCell>
        <mxCell id="liaxdnHP4bsJDzJQAd7m-13" value="Simulated_World" style="rounded=1;whiteSpace=wrap;html=1;" parent="noMDyQk_eTensu_5yYvp-1" vertex="1">
          <mxGeometry x="180" y="40" width="120" height="60" as="geometry" />
        </mxCell>
        <mxCell id="liaxdnHP4bsJDzJQAd7m-14" value="" style="endArrow=classic;html=1;rounded=0;exitX=0.5;exitY=1;exitDx=0;exitDy=0;entryX=0.5;entryY=0;entryDx=0;entryDy=0;" parent="noMDyQk_eTensu_5yYvp-1" source="liaxdnHP4bsJDzJQAd7m-13" target="liaxdnHP4bsJDzJQAd7m-4" edge="1">
          <mxGeometry width="50" height="50" relative="1" as="geometry">
            <mxPoint x="410" y="110" as="sourcePoint" />
            <mxPoint x="410" y="130" as="targetPoint" />
          </mxGeometry>
        </mxCell>
        <mxCell id="liaxdnHP4bsJDzJQAd7m-15" value="Pointcloud_Files" style="rounded=1;whiteSpace=wrap;html=1;" parent="noMDyQk_eTensu_5yYvp-1" vertex="1">
          <mxGeometry x="40" y="40" width="120" height="60" as="geometry" />
        </mxCell>
        <mxCell id="liaxdnHP4bsJDzJQAd7m-16" value="" style="endArrow=classic;html=1;rounded=0;startArrow=classic;startFill=1;entryX=0.5;entryY=1;entryDx=0;entryDy=0;" parent="noMDyQk_eTensu_5yYvp-1" target="liaxdnHP4bsJDzJQAd7m-15" edge="1">
          <mxGeometry width="50" height="50" relative="1" as="geometry">
            <mxPoint x="100" y="120" as="sourcePoint" />
            <mxPoint x="40" y="260" as="targetPoint" />
          </mxGeometry>
        </mxCell>
        <mxCell id="liaxdnHP4bsJDzJQAd7m-17" value="" style="edgeStyle=segmentEdgeStyle;endArrow=classic;html=1;rounded=0;entryX=0.1;entryY=0;entryDx=0;entryDy=0;entryPerimeter=0;exitX=0.099;exitY=0.989;exitDx=0;exitDy=0;exitPerimeter=0;" parent="noMDyQk_eTensu_5yYvp-1" source="liaxdnHP4bsJDzJQAd7m-6" target="liaxdnHP4bsJDzJQAd7m-7" edge="1">
          <mxGeometry width="50" height="50" relative="1" as="geometry">
            <mxPoint x="90" y="281" as="sourcePoint" />
            <mxPoint x="330" y="250" as="targetPoint" />
            <Array as="points" />
          </mxGeometry>
        </mxCell>
        <mxCell id="liaxdnHP4bsJDzJQAd7m-18" value="Open3D" style="rounded=1;whiteSpace=wrap;html=1;" parent="noMDyQk_eTensu_5yYvp-1" vertex="1">
          <mxGeometry x="120" y="320" width="80" height="60" as="geometry" />
        </mxCell>
        <mxCell id="liaxdnHP4bsJDzJQAd7m-19" value="" style="edgeStyle=orthogonalEdgeStyle;rounded=0;orthogonalLoop=1;jettySize=auto;html=1;startArrow=classic;startFill=1;entryX=0.5;entryY=1;entryDx=0;entryDy=0;" parent="noMDyQk_eTensu_5yYvp-1" source="liaxdnHP4bsJDzJQAd7m-21" target="liaxdnHP4bsJDzJQAd7m-6" edge="1">
          <mxGeometry relative="1" as="geometry">
            <mxPoint x="240" y="300" as="targetPoint" />
          </mxGeometry>
        </mxCell>
        <mxCell id="liaxdnHP4bsJDzJQAd7m-20" style="edgeStyle=orthogonalEdgeStyle;rounded=0;orthogonalLoop=1;jettySize=auto;html=1;entryX=0.5;entryY=0;entryDx=0;entryDy=0;startArrow=none;startFill=0;" parent="noMDyQk_eTensu_5yYvp-1" source="liaxdnHP4bsJDzJQAd7m-21" target="liaxdnHP4bsJDzJQAd7m-7" edge="1">
          <mxGeometry relative="1" as="geometry" />
        </mxCell>
        <mxCell id="liaxdnHP4bsJDzJQAd7m-21" value="PointNet" style="rounded=1;whiteSpace=wrap;html=1;" parent="noMDyQk_eTensu_5yYvp-1" vertex="1">
          <mxGeometry x="200" y="390" width="80" height="60" as="geometry" />
        </mxCell>
        <mxCell id="liaxdnHP4bsJDzJQAd7m-22" style="edgeStyle=orthogonalEdgeStyle;rounded=0;orthogonalLoop=1;jettySize=auto;html=1;entryX=0.7;entryY=1.086;entryDx=0;entryDy=0;entryPerimeter=0;startArrow=classic;startFill=1;" parent="noMDyQk_eTensu_5yYvp-1" source="liaxdnHP4bsJDzJQAd7m-24" target="liaxdnHP4bsJDzJQAd7m-6" edge="1">
          <mxGeometry relative="1" as="geometry" />
        </mxCell>
        <mxCell id="liaxdnHP4bsJDzJQAd7m-23" style="edgeStyle=orthogonalEdgeStyle;rounded=0;orthogonalLoop=1;jettySize=auto;html=1;entryX=0.7;entryY=0.029;entryDx=0;entryDy=0;entryPerimeter=0;startArrow=none;startFill=0;" parent="noMDyQk_eTensu_5yYvp-1" source="liaxdnHP4bsJDzJQAd7m-24" target="liaxdnHP4bsJDzJQAd7m-7" edge="1">
          <mxGeometry relative="1" as="geometry" />
        </mxCell>
        <mxCell id="liaxdnHP4bsJDzJQAd7m-24" value="Filtering" style="rounded=1;whiteSpace=wrap;html=1;" parent="noMDyQk_eTensu_5yYvp-1" vertex="1">
          <mxGeometry x="280" y="460" width="80" height="60" as="geometry" />
        </mxCell>
        <mxCell id="liaxdnHP4bsJDzJQAd7m-25" value="" style="endArrow=classic;html=1;rounded=0;entryX=0.5;entryY=0;entryDx=0;entryDy=0;" parent="noMDyQk_eTensu_5yYvp-1" source="liaxdnHP4bsJDzJQAd7m-4" target="liaxdnHP4bsJDzJQAd7m-6" edge="1">
          <mxGeometry width="50" height="50" relative="1" as="geometry">
            <mxPoint x="239.76" y="180" as="sourcePoint" />
            <mxPoint x="239.76" y="200" as="targetPoint" />
          </mxGeometry>
        </mxCell>
        <mxCell id="liaxdnHP4bsJDzJQAd7m-26" style="edgeStyle=orthogonalEdgeStyle;rounded=0;orthogonalLoop=1;jettySize=auto;html=1;entryX=1;entryY=0.5;entryDx=0;entryDy=0;fontSize=24;fontColor=#FFFFFF;startArrow=classic;startFill=1;" parent="noMDyQk_eTensu_5yYvp-1" source="liaxdnHP4bsJDzJQAd7m-27" target="liaxdnHP4bsJDzJQAd7m-6" edge="1">
          <mxGeometry relative="1" as="geometry" />
        </mxCell>
        <mxCell id="liaxdnHP4bsJDzJQAd7m-27" value="Actions" style="rounded=1;whiteSpace=wrap;html=1;" parent="noMDyQk_eTensu_5yYvp-1" vertex="1">
          <mxGeometry x="480" y="320" width="80" height="60" as="geometry" />
        </mxCell>
        <mxCell id="liaxdnHP4bsJDzJQAd7m-28" value="" style="endArrow=classic;startArrow=classic;html=1;rounded=0;exitX=0.5;exitY=0;exitDx=0;exitDy=0;entryX=0.3;entryY=1.029;entryDx=0;entryDy=0;entryPerimeter=0;" parent="noMDyQk_eTensu_5yYvp-1" source="liaxdnHP4bsJDzJQAd7m-18" target="liaxdnHP4bsJDzJQAd7m-6" edge="1">
          <mxGeometry width="50" height="50" relative="1" as="geometry">
            <mxPoint x="310" y="420" as="sourcePoint" />
            <mxPoint x="360" y="370" as="targetPoint" />
          </mxGeometry>
        </mxCell>
        <mxCell id="liaxdnHP4bsJDzJQAd7m-29" value="" style="endArrow=classic;html=1;rounded=0;exitX=0.5;exitY=1;exitDx=0;exitDy=0;entryX=0.3;entryY=0;entryDx=0;entryDy=0;entryPerimeter=0;" parent="noMDyQk_eTensu_5yYvp-1" source="liaxdnHP4bsJDzJQAd7m-18" target="liaxdnHP4bsJDzJQAd7m-7" edge="1">
          <mxGeometry width="50" height="50" relative="1" as="geometry">
            <mxPoint x="310" y="420" as="sourcePoint" />
            <mxPoint x="360" y="370" as="targetPoint" />
          </mxGeometry>
        </mxCell>
        <mxCell id="liaxdnHP4bsJDzJQAd7m-30" value="&lt;font style=&quot;font-size: 18px&quot;&gt;Filtering&lt;/font&gt;" style="shape=process;whiteSpace=wrap;html=1;backgroundOutline=1;fontSize=24;fontColor=#FFFFFF;fillColor=#66B2FF;gradientColor=none;strokeColor=#FFFFFF;" parent="noMDyQk_eTensu_5yYvp-1" vertex="1">
          <mxGeometry x="20" y="760" width="120" height="60" as="geometry" />
        </mxCell>
        <mxCell id="liaxdnHP4bsJDzJQAd7m-31" value="&lt;font style=&quot;font-size: 18px&quot;&gt;Segment-ation&lt;/font&gt;" style="shape=process;whiteSpace=wrap;html=1;backgroundOutline=1;fontSize=24;fontColor=#FFFFFF;fillColor=#66B2FF;gradientColor=none;strokeColor=#FFFFFF;" parent="noMDyQk_eTensu_5yYvp-1" vertex="1">
          <mxGeometry x="20" y="820" width="120" height="60" as="geometry" />
        </mxCell>
        <mxCell id="liaxdnHP4bsJDzJQAd7m-32" value="&lt;font style=&quot;font-size: 16px&quot;&gt;Object Recognition&lt;font style=&quot;font-size: 16px&quot;&gt;&lt;br&gt;&lt;/font&gt;&lt;/font&gt;" style="shape=process;whiteSpace=wrap;html=1;backgroundOutline=1;fontSize=24;fontColor=#FFFFFF;fillColor=#66B2FF;gradientColor=none;strokeColor=#FFFFFF;" parent="noMDyQk_eTensu_5yYvp-1" vertex="1">
          <mxGeometry x="20" y="880" width="120" height="60" as="geometry" />
        </mxCell>
        <mxCell id="liaxdnHP4bsJDzJQAd7m-34" value="&lt;font style=&quot;font-size: 18px&quot;&gt;Open3d&lt;/font&gt;" style="shape=process;whiteSpace=wrap;html=1;backgroundOutline=1;fontSize=24;fontColor=#FFFFFF;fillColor=#66B2FF;gradientColor=none;strokeColor=#FFFFFF;" parent="noMDyQk_eTensu_5yYvp-1" vertex="1">
          <mxGeometry x="20" y="700" width="120" height="60" as="geometry" />
        </mxCell>
        <mxCell id="liaxdnHP4bsJDzJQAd7m-35" value="" style="rounded=0;whiteSpace=wrap;html=1;fontSize=18;fontColor=#FFFFFF;fillColor=#A1D6FF;gradientColor=none;strokeColor=#FFFFFF;" parent="noMDyQk_eTensu_5yYvp-1" vertex="1">
          <mxGeometry x="140" y="700" width="360" height="60" as="geometry" />
        </mxCell>
        <mxCell id="liaxdnHP4bsJDzJQAd7m-36" value="Project" style="shape=process;whiteSpace=wrap;html=1;backgroundOutline=1;fontSize=24;fontColor=#FFFFFF;fillColor=#66B2FF;gradientColor=none;strokeColor=#FFFFFF;" parent="noMDyQk_eTensu_5yYvp-1" vertex="1">
          <mxGeometry x="20" y="980" width="120" height="60" as="geometry" />
        </mxCell>
        <mxCell id="liaxdnHP4bsJDzJQAd7m-37" value="Make Something (Smart City) " style="rounded=0;whiteSpace=wrap;html=1;fontSize=18;fontColor=#FFFFFF;fillColor=#A1D6FF;gradientColor=none;strokeColor=#FFFFFF;" parent="noMDyQk_eTensu_5yYvp-1" vertex="1">
          <mxGeometry x="140" y="980" width="660" height="60" as="geometry" />
        </mxCell>
        <mxCell id="liaxdnHP4bsJDzJQAd7m-38" value="&lt;div style=&quot;font-size: 12px&quot; align=&quot;left&quot;&gt;&lt;br&gt;&lt;ol&gt;&lt;li&gt;&lt;font style=&quot;font-size: 12px&quot;&gt;Work with VS code and Terminal&lt;br&gt;&lt;/font&gt;&lt;/li&gt;&lt;li&gt;&lt;div&gt;&lt;font style=&quot;font-size: 12px&quot;&gt;Run python scripts&lt;/font&gt;&lt;/div&gt;&lt;/li&gt;&lt;/ol&gt;&lt;/div&gt;" style="rounded=0;whiteSpace=wrap;html=1;fontSize=18;fontColor=#FFFFFF;fillColor=#A1D6FF;gradientColor=none;strokeColor=#FFFFFF;align=left;" parent="noMDyQk_eTensu_5yYvp-1" vertex="1">
          <mxGeometry x="500" y="700" width="300" height="60" as="geometry" />
        </mxCell>
        <mxCell id="liaxdnHP4bsJDzJQAd7m-39" value="&lt;p style=&quot;line-height: 0.9&quot;&gt;&lt;font style=&quot;font-size: 12px&quot;&gt;Introduction to ROS. Demonstration of Concepts. Time to practice and familiarise yourself &lt;br&gt;&lt;/font&gt;&lt;/p&gt;" style="rounded=0;whiteSpace=wrap;html=1;fontSize=18;fontColor=#FFFFFF;fillColor=#A1D6FF;gradientColor=none;strokeColor=#FFFFFF;" parent="noMDyQk_eTensu_5yYvp-1" vertex="1">
          <mxGeometry x="140" y="760" width="360" height="60" as="geometry" />
        </mxCell>
        <mxCell id="liaxdnHP4bsJDzJQAd7m-40" value="&lt;div style=&quot;font-size: 12px&quot; align=&quot;left&quot;&gt;&lt;ol&gt;&lt;li&gt;&lt;font style=&quot;font-size: 12px&quot;&gt;Run ROS Demo Nodes&lt;/font&gt;&lt;/li&gt;&lt;li&gt;&lt;font style=&quot;font-size: 12px&quot;&gt;Edit a ROS Node&lt;br&gt;&lt;/font&gt;&lt;/li&gt;&lt;/ol&gt;&lt;/div&gt;" style="rounded=0;whiteSpace=wrap;html=1;fontSize=18;fontColor=#FFFFFF;fillColor=#A1D6FF;gradientColor=none;strokeColor=#FFFFFF;align=left;" parent="noMDyQk_eTensu_5yYvp-1" vertex="1">
          <mxGeometry x="500" y="760" width="300" height="60" as="geometry" />
        </mxCell>
        <mxCell id="liaxdnHP4bsJDzJQAd7m-41" value="&lt;div style=&quot;font-size: 36px&quot; align=&quot;left&quot;&gt;&lt;b&gt;&lt;font style=&quot;font-size: 36px&quot;&gt;Day 2&lt;/font&gt;&lt;/b&gt;&lt;/div&gt;" style="rounded=1;whiteSpace=wrap;html=1;strokeColor=none;align=left;" parent="noMDyQk_eTensu_5yYvp-1" vertex="1">
          <mxGeometry x="20" y="640" width="780" height="50" as="geometry" />
        </mxCell>
        <mxCell id="liaxdnHP4bsJDzJQAd7m-42" value="&lt;p style=&quot;line-height: 0.5&quot;&gt;&lt;font style=&quot;font-size: 12px&quot; color=&quot;#FFFFFF&quot;&gt;Introduction to our learning environment and run some python scripts&lt;/font&gt;&lt;/p&gt;" style="text;html=1;strokeColor=none;fillColor=none;align=center;verticalAlign=middle;whiteSpace=wrap;rounded=0;fontSize=36;fontColor=#000000;" parent="noMDyQk_eTensu_5yYvp-1" vertex="1">
          <mxGeometry x="140" y="700" width="360" height="60" as="geometry" />
        </mxCell>
        <mxCell id="liaxdnHP4bsJDzJQAd7m-43" value="&lt;div align=&quot;center&quot;&gt;Description&lt;/div&gt;" style="rounded=1;whiteSpace=wrap;html=1;strokeColor=none;align=center;" parent="noMDyQk_eTensu_5yYvp-1" vertex="1">
          <mxGeometry x="140" y="680" width="360" height="20" as="geometry" />
        </mxCell>
        <mxCell id="liaxdnHP4bsJDzJQAd7m-44" value="Tasks" style="rounded=1;whiteSpace=wrap;html=1;strokeColor=none;align=center;" parent="noMDyQk_eTensu_5yYvp-1" vertex="1">
          <mxGeometry x="500" y="680" width="300" height="20" as="geometry" />
        </mxCell>
        <mxCell id="liaxdnHP4bsJDzJQAd7m-45" value="&lt;p style=&quot;line-height: 0.9&quot;&gt;&lt;font style=&quot;font-size: 12px&quot;&gt;Introduction to PointCloud Files. Open and view file. Convert between filetypes.&lt;br&gt;&lt;/font&gt;&lt;/p&gt;" style="rounded=0;whiteSpace=wrap;html=1;fontSize=18;fontColor=#FFFFFF;fillColor=#A1D6FF;gradientColor=none;strokeColor=#FFFFFF;" parent="noMDyQk_eTensu_5yYvp-1" vertex="1">
          <mxGeometry x="140" y="820" width="360" height="60" as="geometry" />
        </mxCell>
        <mxCell id="liaxdnHP4bsJDzJQAd7m-46" value="&lt;ol style=&quot;font-size: 12px&quot;&gt;&lt;li&gt;Quiz on Pointcloud Files&lt;font style=&quot;font-size: 12px&quot;&gt;&lt;br&gt;&lt;/font&gt;&lt;/li&gt;&lt;li&gt;&lt;font style=&quot;font-size: 12px&quot;&gt;Visualise files and scenes&lt;/font&gt;&lt;/li&gt;&lt;li&gt;Convert between filestypes&lt;/li&gt;&lt;/ol&gt;" style="rounded=0;whiteSpace=wrap;html=1;fontSize=18;fontColor=#FFFFFF;fillColor=#A1D6FF;gradientColor=none;strokeColor=#FFFFFF;align=left;" parent="noMDyQk_eTensu_5yYvp-1" vertex="1">
          <mxGeometry x="500" y="820" width="300" height="60" as="geometry" />
        </mxCell>
        <mxCell id="liaxdnHP4bsJDzJQAd7m-47" value="&lt;font style=&quot;font-size: 12px&quot;&gt;Understand how to use ROS Bags to both record and replay data. Visualise this data in RVIZ&lt;br&gt;&lt;/font&gt;" style="rounded=0;whiteSpace=wrap;html=1;fontSize=18;fontColor=#FFFFFF;fillColor=#A1D6FF;gradientColor=none;strokeColor=#FFFFFF;" parent="noMDyQk_eTensu_5yYvp-1" vertex="1">
          <mxGeometry x="140" y="880" width="360" height="60" as="geometry" />
        </mxCell>
        <mxCell id="liaxdnHP4bsJDzJQAd7m-48" value="&lt;div style=&quot;font-size: 12px&quot; align=&quot;left&quot;&gt;&lt;ol&gt;&lt;li&gt;&lt;font style=&quot;font-size: 12px&quot;&gt;Run ROS Demo Nodes&lt;/font&gt;&lt;/li&gt;&lt;li&gt;&lt;font style=&quot;font-size: 12px&quot;&gt;Edit a Ros Node&lt;br&gt;&lt;/font&gt;&lt;/li&gt;&lt;/ol&gt;&lt;/div&gt;" style="rounded=0;whiteSpace=wrap;html=1;fontSize=18;fontColor=#FFFFFF;fillColor=#A1D6FF;gradientColor=none;strokeColor=#FFFFFF;align=left;" parent="noMDyQk_eTensu_5yYvp-1" vertex="1">
          <mxGeometry x="500" y="880" width="300" height="60" as="geometry" />
        </mxCell>
        <mxCell id="liaxdnHP4bsJDzJQAd7m-54" value="&amp;nbsp; LUNCH" style="rounded=0;whiteSpace=wrap;html=1;fontSize=18;fontColor=#FFFFFF;fillColor=#66B2FF;gradientColor=none;strokeColor=#FFFFFF;align=left;" parent="noMDyQk_eTensu_5yYvp-1" vertex="1">
          <mxGeometry x="20" y="940" width="780" height="40" as="geometry" />
        </mxCell>
        <mxCell id="liaxdnHP4bsJDzJQAd7m-55" value="&lt;font style=&quot;font-size: 16px&quot;&gt;Presentation&lt;/font&gt;" style="shape=process;whiteSpace=wrap;html=1;backgroundOutline=1;fontSize=24;fontColor=#FFFFFF;fillColor=#66B2FF;gradientColor=none;strokeColor=#FFFFFF;" parent="noMDyQk_eTensu_5yYvp-1" vertex="1">
          <mxGeometry x="20" y="1040" width="120" height="60" as="geometry" />
        </mxCell>
        <mxCell id="liaxdnHP4bsJDzJQAd7m-56" value="Show us what you made" style="rounded=0;whiteSpace=wrap;html=1;fontSize=18;fontColor=#FFFFFF;fillColor=#A1D6FF;gradientColor=none;strokeColor=#FFFFFF;" parent="noMDyQk_eTensu_5yYvp-1" vertex="1">
          <mxGeometry x="140" y="1040" width="660" height="60" as="geometry" />
        </mxCell>
      </root>
    </mxGraphModel>
  </diagram>
  <diagram id="7iKuwGhI_XB_ejaw6C9u" name="1.1_Linux_Python">
    <mxGraphModel dx="1360" dy="834" grid="1" gridSize="10" guides="1" tooltips="1" connect="1" arrows="1" fold="1" page="1" pageScale="1" pageWidth="827" pageHeight="1169" math="0" shadow="0">
      <root>
        <mxCell id="7kSWusJikNgaYiSeJsim-0" />
        <mxCell id="7kSWusJikNgaYiSeJsim-1" parent="7kSWusJikNgaYiSeJsim-0" />
        <mxCell id="UeSPv5KlDwazfsDjhE0S-1" value="&lt;div style=&quot;font-size: 24px&quot; align=&quot;right&quot;&gt;&lt;font style=&quot;font-size: 24px&quot; color=&quot;#FFFFFF&quot;&gt;Framework&amp;nbsp; &lt;br&gt;&lt;/font&gt;&lt;/div&gt;" style="rounded=1;whiteSpace=wrap;html=1;fillColor=#DBBEBB;strokeColor=none;arcSize=0;align=right;" parent="7kSWusJikNgaYiSeJsim-1" vertex="1">
          <mxGeometry x="20" y="200" width="780" height="110" as="geometry" />
        </mxCell>
        <mxCell id="FfSrSPqguQU5fDHG0_-i-0" value="LINUX&amp;nbsp;&amp;nbsp;" style="rounded=1;whiteSpace=wrap;html=1;align=right;" vertex="1" parent="7kSWusJikNgaYiSeJsim-1">
          <mxGeometry x="30" y="230" width="580" height="60" as="geometry" />
        </mxCell>
        <mxCell id="UeSPv5KlDwazfsDjhE0S-0" value="&lt;div style=&quot;font-size: 24px&quot; align=&quot;right&quot;&gt;&lt;font style=&quot;font-size: 24px&quot; color=&quot;#FFFFFF&quot;&gt;Process&amp;nbsp; &lt;br&gt;&lt;/font&gt;&lt;/div&gt;" style="rounded=1;whiteSpace=wrap;html=1;fillColor=#FF99CC;strokeColor=none;arcSize=0;align=right;gradientColor=none;" parent="7kSWusJikNgaYiSeJsim-1" vertex="1">
          <mxGeometry x="20" y="310" width="780" height="230" as="geometry" />
        </mxCell>
        <mxCell id="UeSPv5KlDwazfsDjhE0S-2" value="&lt;div style=&quot;font-size: 24px&quot; align=&quot;right&quot;&gt;&lt;font style=&quot;font-size: 24px&quot;&gt;Visualise&amp;nbsp; &lt;br&gt;&lt;/font&gt;&lt;/div&gt;" style="rounded=1;whiteSpace=wrap;html=1;fillColor=#CC99FF;strokeColor=none;arcSize=0;align=right;fontColor=#ffffff;" parent="7kSWusJikNgaYiSeJsim-1" vertex="1">
          <mxGeometry x="20" y="540" width="780" height="80" as="geometry" />
        </mxCell>
        <mxCell id="UeSPv5KlDwazfsDjhE0S-3" value="&lt;div style=&quot;font-size: 24px&quot; align=&quot;right&quot;&gt;&lt;font style=&quot;font-size: 24px&quot; color=&quot;#FFFFFF&quot;&gt;Input PointCloud Data&amp;nbsp; &lt;br&gt;&lt;/font&gt;&lt;/div&gt;" style="rounded=1;whiteSpace=wrap;html=1;fillColor=#FFCC99;strokeColor=none;arcSize=0;align=right;" parent="7kSWusJikNgaYiSeJsim-1" vertex="1">
          <mxGeometry x="20" y="20" width="780" height="180" as="geometry" />
        </mxCell>
        <mxCell id="UeSPv5KlDwazfsDjhE0S-4" value="Gazebo" style="rounded=1;whiteSpace=wrap;html=1;fillColor=#999999;strokeColor=#314354;fontColor=#CCCCCC;" parent="7kSWusJikNgaYiSeJsim-1" vertex="1">
          <mxGeometry x="180" y="120" width="120" height="60" as="geometry" />
        </mxCell>
        <mxCell id="UeSPv5KlDwazfsDjhE0S-5" value="LiDAR_Sensor" style="rounded=1;whiteSpace=wrap;html=1;fillColor=#999999;strokeColor=#314354;fontColor=#CCCCCC;" parent="7kSWusJikNgaYiSeJsim-1" vertex="1">
          <mxGeometry x="320" y="120" width="120" height="60" as="geometry" />
        </mxCell>
        <mxCell id="UeSPv5KlDwazfsDjhE0S-6" value="ROS" style="rounded=1;whiteSpace=wrap;html=1;fillColor=#999999;strokeColor=#314354;fontColor=#CCCCCC;" parent="7kSWusJikNgaYiSeJsim-1" vertex="1">
          <mxGeometry x="40" y="240" width="400" height="40" as="geometry" />
        </mxCell>
        <mxCell id="UeSPv5KlDwazfsDjhE0S-7" value="RVIZ" style="rounded=1;whiteSpace=wrap;html=1;fillColor=#999999;strokeColor=#314354;fontColor=#CCCCCC;" parent="7kSWusJikNgaYiSeJsim-1" vertex="1">
          <mxGeometry x="40" y="560" width="400" height="40" as="geometry" />
        </mxCell>
        <mxCell id="UeSPv5KlDwazfsDjhE0S-8" value="ROS_BAG" style="rounded=1;whiteSpace=wrap;html=1;fillColor=#999999;strokeColor=#314354;fontColor=#CCCCCC;" parent="7kSWusJikNgaYiSeJsim-1" vertex="1">
          <mxGeometry x="40" y="120" width="120" height="60" as="geometry" />
        </mxCell>
        <mxCell id="UeSPv5KlDwazfsDjhE0S-9" value="" style="edgeStyle=segmentEdgeStyle;endArrow=classic;html=1;rounded=0;exitX=0.5;exitY=1;exitDx=0;exitDy=0;entryX=0.151;entryY=0.015;entryDx=0;entryDy=0;startArrow=classic;startFill=1;entryPerimeter=0;" parent="7kSWusJikNgaYiSeJsim-1" source="UeSPv5KlDwazfsDjhE0S-8" target="UeSPv5KlDwazfsDjhE0S-6" edge="1">
          <mxGeometry width="50" height="50" relative="1" as="geometry">
            <mxPoint x="410" y="260" as="sourcePoint" />
            <mxPoint x="460" y="210" as="targetPoint" />
            <Array as="points">
              <mxPoint x="100" y="241" />
            </Array>
          </mxGeometry>
        </mxCell>
        <mxCell id="UeSPv5KlDwazfsDjhE0S-10" value="" style="edgeStyle=segmentEdgeStyle;endArrow=classic;html=1;rounded=0;exitX=0.5;exitY=1;exitDx=0;exitDy=0;entryX=0.85;entryY=0.014;entryDx=0;entryDy=0;entryPerimeter=0;" parent="7kSWusJikNgaYiSeJsim-1" source="UeSPv5KlDwazfsDjhE0S-5" target="UeSPv5KlDwazfsDjhE0S-6" edge="1">
          <mxGeometry width="50" height="50" relative="1" as="geometry">
            <mxPoint x="310" y="160" as="sourcePoint" />
            <mxPoint x="330" y="250" as="targetPoint" />
            <Array as="points">
              <mxPoint x="380" y="200" />
              <mxPoint x="380" y="200" />
            </Array>
          </mxGeometry>
        </mxCell>
        <mxCell id="UeSPv5KlDwazfsDjhE0S-11" value="Real_World" style="rounded=1;whiteSpace=wrap;html=1;fillColor=#999999;strokeColor=#314354;fontColor=#CCCCCC;" parent="7kSWusJikNgaYiSeJsim-1" vertex="1">
          <mxGeometry x="320" y="40" width="120" height="60" as="geometry" />
        </mxCell>
        <mxCell id="UeSPv5KlDwazfsDjhE0S-12" value="" style="endArrow=classic;html=1;rounded=0;exitX=0.5;exitY=1;exitDx=0;exitDy=0;entryX=0.5;entryY=0;entryDx=0;entryDy=0;" parent="7kSWusJikNgaYiSeJsim-1" source="UeSPv5KlDwazfsDjhE0S-11" target="UeSPv5KlDwazfsDjhE0S-5" edge="1">
          <mxGeometry width="50" height="50" relative="1" as="geometry">
            <mxPoint x="390" y="260" as="sourcePoint" />
            <mxPoint x="440" y="210" as="targetPoint" />
          </mxGeometry>
        </mxCell>
        <mxCell id="UeSPv5KlDwazfsDjhE0S-13" value="Simulated_World" style="rounded=1;whiteSpace=wrap;html=1;fillColor=#999999;strokeColor=#314354;fontColor=#CCCCCC;" parent="7kSWusJikNgaYiSeJsim-1" vertex="1">
          <mxGeometry x="180" y="40" width="120" height="60" as="geometry" />
        </mxCell>
        <mxCell id="UeSPv5KlDwazfsDjhE0S-14" value="" style="endArrow=classic;html=1;rounded=0;exitX=0.5;exitY=1;exitDx=0;exitDy=0;entryX=0.5;entryY=0;entryDx=0;entryDy=0;" parent="7kSWusJikNgaYiSeJsim-1" source="UeSPv5KlDwazfsDjhE0S-13" target="UeSPv5KlDwazfsDjhE0S-4" edge="1">
          <mxGeometry width="50" height="50" relative="1" as="geometry">
            <mxPoint x="410" y="110" as="sourcePoint" />
            <mxPoint x="410" y="130" as="targetPoint" />
          </mxGeometry>
        </mxCell>
        <mxCell id="UeSPv5KlDwazfsDjhE0S-15" value="Pointcloud_Files" style="rounded=1;whiteSpace=wrap;html=1;fillColor=#999999;strokeColor=#314354;fontColor=#CCCCCC;" parent="7kSWusJikNgaYiSeJsim-1" vertex="1">
          <mxGeometry x="40" y="40" width="120" height="60" as="geometry" />
        </mxCell>
        <mxCell id="UeSPv5KlDwazfsDjhE0S-16" value="" style="endArrow=classic;html=1;rounded=0;startArrow=classic;startFill=1;entryX=0.5;entryY=1;entryDx=0;entryDy=0;" parent="7kSWusJikNgaYiSeJsim-1" target="UeSPv5KlDwazfsDjhE0S-15" edge="1">
          <mxGeometry width="50" height="50" relative="1" as="geometry">
            <mxPoint x="100" y="120" as="sourcePoint" />
            <mxPoint x="40" y="260" as="targetPoint" />
          </mxGeometry>
        </mxCell>
        <mxCell id="UeSPv5KlDwazfsDjhE0S-17" value="" style="edgeStyle=segmentEdgeStyle;endArrow=classic;html=1;rounded=0;entryX=0.1;entryY=0;entryDx=0;entryDy=0;entryPerimeter=0;exitX=0.099;exitY=0.989;exitDx=0;exitDy=0;exitPerimeter=0;" parent="7kSWusJikNgaYiSeJsim-1" source="UeSPv5KlDwazfsDjhE0S-6" target="UeSPv5KlDwazfsDjhE0S-7" edge="1">
          <mxGeometry width="50" height="50" relative="1" as="geometry">
            <mxPoint x="90" y="281" as="sourcePoint" />
            <mxPoint x="330" y="250" as="targetPoint" />
            <Array as="points" />
          </mxGeometry>
        </mxCell>
        <mxCell id="UeSPv5KlDwazfsDjhE0S-18" value="Open3D" style="rounded=1;whiteSpace=wrap;html=1;fillColor=#999999;strokeColor=#314354;fontColor=#CCCCCC;" parent="7kSWusJikNgaYiSeJsim-1" vertex="1">
          <mxGeometry x="120" y="320" width="80" height="60" as="geometry" />
        </mxCell>
        <mxCell id="UeSPv5KlDwazfsDjhE0S-19" value="" style="edgeStyle=orthogonalEdgeStyle;rounded=0;orthogonalLoop=1;jettySize=auto;html=1;startArrow=classic;startFill=1;entryX=0.5;entryY=1;entryDx=0;entryDy=0;" parent="7kSWusJikNgaYiSeJsim-1" source="UeSPv5KlDwazfsDjhE0S-21" target="UeSPv5KlDwazfsDjhE0S-6" edge="1">
          <mxGeometry relative="1" as="geometry">
            <mxPoint x="240" y="300" as="targetPoint" />
          </mxGeometry>
        </mxCell>
        <mxCell id="UeSPv5KlDwazfsDjhE0S-20" style="edgeStyle=orthogonalEdgeStyle;rounded=0;orthogonalLoop=1;jettySize=auto;html=1;entryX=0.5;entryY=0;entryDx=0;entryDy=0;startArrow=classic;startFill=1;" parent="7kSWusJikNgaYiSeJsim-1" source="UeSPv5KlDwazfsDjhE0S-21" target="UeSPv5KlDwazfsDjhE0S-7" edge="1">
          <mxGeometry relative="1" as="geometry" />
        </mxCell>
        <mxCell id="UeSPv5KlDwazfsDjhE0S-21" value="PointNet" style="rounded=1;whiteSpace=wrap;html=1;fillColor=#999999;strokeColor=#314354;fontColor=#CCCCCC;" parent="7kSWusJikNgaYiSeJsim-1" vertex="1">
          <mxGeometry x="200" y="390" width="80" height="60" as="geometry" />
        </mxCell>
        <mxCell id="UeSPv5KlDwazfsDjhE0S-22" style="edgeStyle=orthogonalEdgeStyle;rounded=0;orthogonalLoop=1;jettySize=auto;html=1;entryX=0.7;entryY=1.086;entryDx=0;entryDy=0;entryPerimeter=0;startArrow=classic;startFill=1;" parent="7kSWusJikNgaYiSeJsim-1" source="UeSPv5KlDwazfsDjhE0S-24" target="UeSPv5KlDwazfsDjhE0S-6" edge="1">
          <mxGeometry relative="1" as="geometry" />
        </mxCell>
        <mxCell id="UeSPv5KlDwazfsDjhE0S-23" style="edgeStyle=orthogonalEdgeStyle;rounded=0;orthogonalLoop=1;jettySize=auto;html=1;entryX=0.7;entryY=0.029;entryDx=0;entryDy=0;entryPerimeter=0;startArrow=classic;startFill=1;" parent="7kSWusJikNgaYiSeJsim-1" source="UeSPv5KlDwazfsDjhE0S-24" target="UeSPv5KlDwazfsDjhE0S-7" edge="1">
          <mxGeometry relative="1" as="geometry" />
        </mxCell>
        <mxCell id="UeSPv5KlDwazfsDjhE0S-24" value="Filtering" style="rounded=1;whiteSpace=wrap;html=1;fillColor=#999999;strokeColor=#314354;fontColor=#CCCCCC;" parent="7kSWusJikNgaYiSeJsim-1" vertex="1">
          <mxGeometry x="280" y="460" width="80" height="60" as="geometry" />
        </mxCell>
        <mxCell id="UeSPv5KlDwazfsDjhE0S-25" value="" style="endArrow=classic;html=1;rounded=0;entryX=0.5;entryY=0;entryDx=0;entryDy=0;" parent="7kSWusJikNgaYiSeJsim-1" source="UeSPv5KlDwazfsDjhE0S-4" target="UeSPv5KlDwazfsDjhE0S-6" edge="1">
          <mxGeometry width="50" height="50" relative="1" as="geometry">
            <mxPoint x="239.76" y="180" as="sourcePoint" />
            <mxPoint x="239.76" y="200" as="targetPoint" />
          </mxGeometry>
        </mxCell>
        <mxCell id="UeSPv5KlDwazfsDjhE0S-26" style="edgeStyle=orthogonalEdgeStyle;rounded=0;orthogonalLoop=1;jettySize=auto;html=1;entryX=1;entryY=0.5;entryDx=0;entryDy=0;fontSize=24;fontColor=#FFFFFF;startArrow=classic;startFill=1;" parent="7kSWusJikNgaYiSeJsim-1" source="UeSPv5KlDwazfsDjhE0S-27" target="UeSPv5KlDwazfsDjhE0S-6" edge="1">
          <mxGeometry relative="1" as="geometry" />
        </mxCell>
        <mxCell id="UeSPv5KlDwazfsDjhE0S-27" value="Actions" style="rounded=1;whiteSpace=wrap;html=1;fillColor=#999999;strokeColor=#314354;fontColor=#CCCCCC;" parent="7kSWusJikNgaYiSeJsim-1" vertex="1">
          <mxGeometry x="480" y="320" width="80" height="60" as="geometry" />
        </mxCell>
        <mxCell id="UeSPv5KlDwazfsDjhE0S-28" value="" style="endArrow=classic;startArrow=classic;html=1;rounded=0;exitX=0.5;exitY=0;exitDx=0;exitDy=0;entryX=0.3;entryY=1.029;entryDx=0;entryDy=0;entryPerimeter=0;" parent="7kSWusJikNgaYiSeJsim-1" source="UeSPv5KlDwazfsDjhE0S-18" target="UeSPv5KlDwazfsDjhE0S-6" edge="1">
          <mxGeometry width="50" height="50" relative="1" as="geometry">
            <mxPoint x="310" y="420" as="sourcePoint" />
            <mxPoint x="360" y="370" as="targetPoint" />
          </mxGeometry>
        </mxCell>
        <mxCell id="UeSPv5KlDwazfsDjhE0S-29" value="" style="endArrow=classic;html=1;rounded=0;exitX=0.5;exitY=1;exitDx=0;exitDy=0;entryX=0.3;entryY=0;entryDx=0;entryDy=0;entryPerimeter=0;" parent="7kSWusJikNgaYiSeJsim-1" source="UeSPv5KlDwazfsDjhE0S-18" target="UeSPv5KlDwazfsDjhE0S-7" edge="1">
          <mxGeometry width="50" height="50" relative="1" as="geometry">
            <mxPoint x="310" y="420" as="sourcePoint" />
            <mxPoint x="360" y="370" as="targetPoint" />
          </mxGeometry>
        </mxCell>
        <mxCell id="UeSPv5KlDwazfsDjhE0S-30" value="1" style="shape=process;whiteSpace=wrap;html=1;backgroundOutline=1;fontSize=24;fontColor=#FFFFFF;fillColor=#66B2FF;gradientColor=none;strokeColor=#FFFFFF;" parent="7kSWusJikNgaYiSeJsim-1" vertex="1">
          <mxGeometry x="20" y="760" width="120" height="60" as="geometry" />
        </mxCell>
        <mxCell id="UeSPv5KlDwazfsDjhE0S-31" value="2" style="shape=process;whiteSpace=wrap;html=1;backgroundOutline=1;fontSize=24;fontColor=#FFFFFF;fillColor=#66B2FF;gradientColor=none;strokeColor=#FFFFFF;" parent="7kSWusJikNgaYiSeJsim-1" vertex="1">
          <mxGeometry x="20" y="820" width="120" height="60" as="geometry" />
        </mxCell>
        <mxCell id="UeSPv5KlDwazfsDjhE0S-32" value="3" style="shape=process;whiteSpace=wrap;html=1;backgroundOutline=1;fontSize=24;fontColor=#FFFFFF;fillColor=#66B2FF;gradientColor=none;strokeColor=#FFFFFF;" parent="7kSWusJikNgaYiSeJsim-1" vertex="1">
          <mxGeometry x="20" y="880" width="120" height="60" as="geometry" />
        </mxCell>
        <mxCell id="UeSPv5KlDwazfsDjhE0S-33" value="4" style="shape=process;whiteSpace=wrap;html=1;backgroundOutline=1;fontSize=24;fontColor=#FFFFFF;fillColor=#66B2FF;gradientColor=none;strokeColor=#FFFFFF;" parent="7kSWusJikNgaYiSeJsim-1" vertex="1">
          <mxGeometry x="20" y="940" width="120" height="60" as="geometry" />
        </mxCell>
        <mxCell id="UeSPv5KlDwazfsDjhE0S-34" value="&lt;font style=&quot;font-size: 18px&quot;&gt;Linux + Python&lt;br&gt;&lt;/font&gt;" style="shape=process;whiteSpace=wrap;html=1;backgroundOutline=1;fontSize=24;fontColor=#FFFFFF;fillColor=#66B2FF;gradientColor=none;strokeColor=#FFFFFF;" parent="7kSWusJikNgaYiSeJsim-1" vertex="1">
          <mxGeometry x="20" y="700" width="120" height="60" as="geometry" />
        </mxCell>
        <mxCell id="UeSPv5KlDwazfsDjhE0S-35" value="" style="rounded=0;whiteSpace=wrap;html=1;fontSize=18;fontColor=#FFFFFF;fillColor=#A1D6FF;gradientColor=none;strokeColor=#FFFFFF;" parent="7kSWusJikNgaYiSeJsim-1" vertex="1">
          <mxGeometry x="140" y="700" width="360" height="60" as="geometry" />
        </mxCell>
        <mxCell id="UeSPv5KlDwazfsDjhE0S-38" value="&lt;div style=&quot;font-size: 12px&quot; align=&quot;left&quot;&gt;&lt;br&gt;&lt;ol&gt;&lt;li&gt;&lt;font style=&quot;font-size: 12px&quot;&gt;Work with VS code and Terminal&lt;br&gt;&lt;/font&gt;&lt;/li&gt;&lt;li&gt;&lt;div&gt;&lt;font style=&quot;font-size: 12px&quot;&gt;Run python scripts&lt;/font&gt;&lt;/div&gt;&lt;/li&gt;&lt;/ol&gt;&lt;/div&gt;" style="rounded=0;whiteSpace=wrap;html=1;fontSize=18;fontColor=#FFFFFF;fillColor=#66B2FF;gradientColor=none;strokeColor=#FFFFFF;align=left;" parent="7kSWusJikNgaYiSeJsim-1" vertex="1">
          <mxGeometry x="500" y="700" width="300" height="60" as="geometry" />
        </mxCell>
        <mxCell id="UeSPv5KlDwazfsDjhE0S-39" value="Get signed in to your VM" style="rounded=0;whiteSpace=wrap;html=1;fontSize=18;fontColor=#FFFFFF;fillColor=#A1D6FF;gradientColor=none;strokeColor=#FFFFFF;" parent="7kSWusJikNgaYiSeJsim-1" vertex="1">
          <mxGeometry x="140" y="760" width="360" height="60" as="geometry" />
        </mxCell>
        <mxCell id="UeSPv5KlDwazfsDjhE0S-40" value="&lt;div style=&quot;font-size: 12px&quot; align=&quot;left&quot;&gt;&lt;ol&gt;&lt;li&gt;Open Google Remote Desktop in your browser&lt;br&gt;&lt;/li&gt;&lt;li&gt;&lt;font style=&quot;font-size: 12px&quot;&gt;TODO&lt;br&gt;&lt;/font&gt;&lt;/li&gt;&lt;/ol&gt;&lt;/div&gt;" style="rounded=0;whiteSpace=wrap;html=1;fontSize=18;fontColor=#FFFFFF;fillColor=#A1D6FF;gradientColor=none;strokeColor=#FFFFFF;align=left;" parent="7kSWusJikNgaYiSeJsim-1" vertex="1">
          <mxGeometry x="500" y="760" width="300" height="60" as="geometry" />
        </mxCell>
        <mxCell id="UeSPv5KlDwazfsDjhE0S-41" value="&lt;div style=&quot;font-size: 36px&quot; align=&quot;left&quot;&gt;&lt;b&gt;&lt;font style=&quot;font-size: 36px&quot;&gt;1.1&lt;br&gt;&lt;/font&gt;&lt;/b&gt;&lt;/div&gt;" style="rounded=1;whiteSpace=wrap;html=1;strokeColor=none;align=left;" parent="7kSWusJikNgaYiSeJsim-1" vertex="1">
          <mxGeometry x="20" y="640" width="780" height="50" as="geometry" />
        </mxCell>
        <mxCell id="UeSPv5KlDwazfsDjhE0S-42" value="&lt;p style=&quot;line-height: 0.5&quot;&gt;&lt;font style=&quot;font-size: 12px&quot; color=&quot;#FFFFFF&quot;&gt;Introduction to our learning environment and run some python scripts&lt;/font&gt;&lt;/p&gt;" style="text;html=1;strokeColor=#FFFFFF;fillColor=#66B2FF;align=center;verticalAlign=middle;whiteSpace=wrap;rounded=0;fontSize=36;" parent="7kSWusJikNgaYiSeJsim-1" vertex="1">
          <mxGeometry x="140" y="700" width="360" height="60" as="geometry" />
        </mxCell>
        <mxCell id="UeSPv5KlDwazfsDjhE0S-43" value="&lt;div align=&quot;center&quot;&gt;Description&lt;/div&gt;" style="rounded=1;whiteSpace=wrap;html=1;strokeColor=none;align=center;" parent="7kSWusJikNgaYiSeJsim-1" vertex="1">
          <mxGeometry x="140" y="680" width="360" height="20" as="geometry" />
        </mxCell>
        <mxCell id="UeSPv5KlDwazfsDjhE0S-44" value="Tasks" style="rounded=1;whiteSpace=wrap;html=1;strokeColor=none;align=center;" parent="7kSWusJikNgaYiSeJsim-1" vertex="1">
          <mxGeometry x="500" y="680" width="300" height="20" as="geometry" />
        </mxCell>
        <mxCell id="UeSPv5KlDwazfsDjhE0S-45" value="Check your instalations" style="rounded=0;whiteSpace=wrap;html=1;fontSize=18;fontColor=#FFFFFF;fillColor=#A1D6FF;gradientColor=none;strokeColor=#FFFFFF;" parent="7kSWusJikNgaYiSeJsim-1" vertex="1">
          <mxGeometry x="140" y="820" width="360" height="60" as="geometry" />
        </mxCell>
        <mxCell id="UeSPv5KlDwazfsDjhE0S-46" value="&lt;ol style=&quot;font-size: 12px&quot;&gt;&lt;li&gt;Run Gazebo and VSCode&lt;/li&gt;&lt;li&gt;Run test1.py and tes2.py python scripts&lt;/li&gt;&lt;li&gt;Fix errors (Ask if you need a hint)&lt;br&gt;&lt;/li&gt;&lt;/ol&gt;" style="rounded=0;whiteSpace=wrap;html=1;fontSize=18;fontColor=#FFFFFF;fillColor=#A1D6FF;gradientColor=none;strokeColor=#FFFFFF;align=left;" parent="7kSWusJikNgaYiSeJsim-1" vertex="1">
          <mxGeometry x="500" y="820" width="300" height="60" as="geometry" />
        </mxCell>
        <mxCell id="UeSPv5KlDwazfsDjhE0S-47" value="Get to know the environment" style="rounded=0;whiteSpace=wrap;html=1;fontSize=18;fontColor=#FFFFFF;fillColor=#A1D6FF;gradientColor=none;strokeColor=#FFFFFF;" parent="7kSWusJikNgaYiSeJsim-1" vertex="1">
          <mxGeometry x="140" y="880" width="360" height="60" as="geometry" />
        </mxCell>
        <mxCell id="UeSPv5KlDwazfsDjhE0S-48" value="&lt;div style=&quot;font-size: 12px&quot; align=&quot;left&quot;&gt;&lt;ol&gt;&lt;li&gt;&lt;font style=&quot;font-size: 12px&quot;&gt;Move VSCode to desktop 2&lt;br&gt;&lt;/font&gt;&lt;/li&gt;&lt;li&gt;&lt;font style=&quot;font-size: 12px&quot;&gt;Click the menu on the top left and see what programs are included in the VM&lt;br&gt;&lt;/font&gt;&lt;/li&gt;&lt;/ol&gt;&lt;/div&gt;" style="rounded=0;whiteSpace=wrap;html=1;fontSize=18;fontColor=#FFFFFF;fillColor=#A1D6FF;gradientColor=none;strokeColor=#FFFFFF;align=left;" parent="7kSWusJikNgaYiSeJsim-1" vertex="1">
          <mxGeometry x="500" y="880" width="300" height="60" as="geometry" />
        </mxCell>
        <mxCell id="UeSPv5KlDwazfsDjhE0S-49" value="Open a Pointcloud" style="rounded=0;whiteSpace=wrap;html=1;fontSize=18;fontColor=#FFFFFF;fillColor=#A1D6FF;gradientColor=none;strokeColor=#FFFFFF;" parent="7kSWusJikNgaYiSeJsim-1" vertex="1">
          <mxGeometry x="140" y="940" width="360" height="60" as="geometry" />
        </mxCell>
        <mxCell id="UeSPv5KlDwazfsDjhE0S-50" value="&lt;div style=&quot;font-size: 12px&quot; align=&quot;left&quot;&gt;&lt;ol&gt;&lt;li&gt;&lt;font style=&quot;font-size: 12px&quot;&gt;Open Cloudcompare&lt;/font&gt;&lt;/li&gt;&lt;li&gt;&lt;font style=&quot;font-size: 12px&quot;&gt;Open &quot;wellington.las&quot; pointcloud file&lt;br&gt;&lt;/font&gt;&lt;/li&gt;&lt;/ol&gt;&lt;/div&gt;" style="rounded=0;whiteSpace=wrap;html=1;fontSize=18;fontColor=#FFFFFF;fillColor=#A1D6FF;gradientColor=none;strokeColor=#FFFFFF;align=left;" parent="7kSWusJikNgaYiSeJsim-1" vertex="1">
          <mxGeometry x="500" y="940" width="300" height="60" as="geometry" />
        </mxCell>
      </root>
    </mxGraphModel>
  </diagram>
  <diagram id="L6UDC8fnb3Be1GtFYhDQ" name="1.2_ROS">
    <mxGraphModel dx="1360" dy="834" grid="1" gridSize="10" guides="1" tooltips="1" connect="1" arrows="1" fold="1" page="1" pageScale="1" pageWidth="827" pageHeight="1169" math="0" shadow="0">
      <root>
        <mxCell id="J9mkaBKEq7xT8ixeh_O_-0" />
        <mxCell id="J9mkaBKEq7xT8ixeh_O_-1" parent="J9mkaBKEq7xT8ixeh_O_-0" />
        <mxCell id="J9mkaBKEq7xT8ixeh_O_-3" value="&lt;div style=&quot;font-size: 24px&quot; align=&quot;right&quot;&gt;&lt;font style=&quot;font-size: 24px&quot; color=&quot;#FFFFFF&quot;&gt;Framework&amp;nbsp; &lt;br&gt;&lt;/font&gt;&lt;/div&gt;" style="rounded=1;whiteSpace=wrap;html=1;fillColor=#DBBEBB;strokeColor=none;arcSize=0;align=right;" parent="J9mkaBKEq7xT8ixeh_O_-1" vertex="1">
          <mxGeometry x="20" y="200" width="780" height="110" as="geometry" />
        </mxCell>
        <mxCell id="rXhMLPP_2f7hIz_t4VRn-0" value="LINUX&amp;nbsp;&amp;nbsp;" style="rounded=1;whiteSpace=wrap;html=1;align=right;" vertex="1" parent="J9mkaBKEq7xT8ixeh_O_-1">
          <mxGeometry x="30" y="230" width="580" height="60" as="geometry" />
        </mxCell>
        <mxCell id="J9mkaBKEq7xT8ixeh_O_-2" value="&lt;div style=&quot;font-size: 24px&quot; align=&quot;right&quot;&gt;&lt;font style=&quot;font-size: 24px&quot; color=&quot;#FFFFFF&quot;&gt;Process&amp;nbsp; &lt;br&gt;&lt;/font&gt;&lt;/div&gt;" style="rounded=1;whiteSpace=wrap;html=1;fillColor=#FF99CC;strokeColor=none;arcSize=0;align=right;gradientColor=none;" parent="J9mkaBKEq7xT8ixeh_O_-1" vertex="1">
          <mxGeometry x="20" y="310" width="780" height="230" as="geometry" />
        </mxCell>
        <mxCell id="J9mkaBKEq7xT8ixeh_O_-4" value="&lt;div style=&quot;font-size: 24px&quot; align=&quot;right&quot;&gt;&lt;font style=&quot;font-size: 24px&quot;&gt;Visualise&amp;nbsp; &lt;br&gt;&lt;/font&gt;&lt;/div&gt;" style="rounded=1;whiteSpace=wrap;html=1;fillColor=#CC99FF;strokeColor=none;arcSize=0;align=right;fontColor=#ffffff;" parent="J9mkaBKEq7xT8ixeh_O_-1" vertex="1">
          <mxGeometry x="20" y="540" width="780" height="80" as="geometry" />
        </mxCell>
        <mxCell id="J9mkaBKEq7xT8ixeh_O_-5" value="&lt;div style=&quot;font-size: 24px&quot; align=&quot;right&quot;&gt;&lt;font style=&quot;font-size: 24px&quot; color=&quot;#FFFFFF&quot;&gt;Input PointCloud Data&amp;nbsp; &lt;br&gt;&lt;/font&gt;&lt;/div&gt;" style="rounded=1;whiteSpace=wrap;html=1;fillColor=#FFCC99;strokeColor=none;arcSize=0;align=right;" parent="J9mkaBKEq7xT8ixeh_O_-1" vertex="1">
          <mxGeometry x="20" y="20" width="780" height="180" as="geometry" />
        </mxCell>
        <mxCell id="J9mkaBKEq7xT8ixeh_O_-6" value="Gazebo" style="rounded=1;whiteSpace=wrap;html=1;fillColor=#999999;strokeColor=#314354;fontColor=#CCCCCC;" parent="J9mkaBKEq7xT8ixeh_O_-1" vertex="1">
          <mxGeometry x="180" y="120" width="120" height="60" as="geometry" />
        </mxCell>
        <mxCell id="J9mkaBKEq7xT8ixeh_O_-7" value="LiDAR_Sensor" style="rounded=1;whiteSpace=wrap;html=1;fillColor=#999999;strokeColor=#314354;fontColor=#CCCCCC;" parent="J9mkaBKEq7xT8ixeh_O_-1" vertex="1">
          <mxGeometry x="320" y="120" width="120" height="60" as="geometry" />
        </mxCell>
        <mxCell id="J9mkaBKEq7xT8ixeh_O_-8" value="ROS" style="rounded=1;whiteSpace=wrap;html=1;fillColor=#FFFFFF;strokeColor=#314354;fontColor=#000000;" parent="J9mkaBKEq7xT8ixeh_O_-1" vertex="1">
          <mxGeometry x="40" y="240" width="400" height="40" as="geometry" />
        </mxCell>
        <mxCell id="J9mkaBKEq7xT8ixeh_O_-9" value="RVIZ" style="rounded=1;whiteSpace=wrap;html=1;fillColor=#999999;strokeColor=#314354;fontColor=#CCCCCC;" parent="J9mkaBKEq7xT8ixeh_O_-1" vertex="1">
          <mxGeometry x="40" y="560" width="400" height="40" as="geometry" />
        </mxCell>
        <mxCell id="J9mkaBKEq7xT8ixeh_O_-10" value="ROS_BAG" style="rounded=1;whiteSpace=wrap;html=1;fillColor=#999999;strokeColor=#314354;fontColor=#CCCCCC;" parent="J9mkaBKEq7xT8ixeh_O_-1" vertex="1">
          <mxGeometry x="40" y="120" width="120" height="60" as="geometry" />
        </mxCell>
        <mxCell id="J9mkaBKEq7xT8ixeh_O_-11" value="" style="edgeStyle=segmentEdgeStyle;endArrow=classic;html=1;rounded=0;exitX=0.5;exitY=1;exitDx=0;exitDy=0;entryX=0.151;entryY=0.015;entryDx=0;entryDy=0;startArrow=classic;startFill=1;entryPerimeter=0;" parent="J9mkaBKEq7xT8ixeh_O_-1" source="J9mkaBKEq7xT8ixeh_O_-10" target="J9mkaBKEq7xT8ixeh_O_-8" edge="1">
          <mxGeometry width="50" height="50" relative="1" as="geometry">
            <mxPoint x="410" y="260" as="sourcePoint" />
            <mxPoint x="460" y="210" as="targetPoint" />
            <Array as="points">
              <mxPoint x="100" y="241" />
            </Array>
          </mxGeometry>
        </mxCell>
        <mxCell id="J9mkaBKEq7xT8ixeh_O_-12" value="" style="edgeStyle=segmentEdgeStyle;endArrow=classic;html=1;rounded=0;exitX=0.5;exitY=1;exitDx=0;exitDy=0;entryX=0.85;entryY=0.014;entryDx=0;entryDy=0;entryPerimeter=0;" parent="J9mkaBKEq7xT8ixeh_O_-1" source="J9mkaBKEq7xT8ixeh_O_-7" target="J9mkaBKEq7xT8ixeh_O_-8" edge="1">
          <mxGeometry width="50" height="50" relative="1" as="geometry">
            <mxPoint x="310" y="160" as="sourcePoint" />
            <mxPoint x="330" y="250" as="targetPoint" />
            <Array as="points">
              <mxPoint x="380" y="200" />
              <mxPoint x="380" y="200" />
            </Array>
          </mxGeometry>
        </mxCell>
        <mxCell id="J9mkaBKEq7xT8ixeh_O_-13" value="Real_World" style="rounded=1;whiteSpace=wrap;html=1;fillColor=#999999;strokeColor=#314354;fontColor=#CCCCCC;" parent="J9mkaBKEq7xT8ixeh_O_-1" vertex="1">
          <mxGeometry x="320" y="40" width="120" height="60" as="geometry" />
        </mxCell>
        <mxCell id="J9mkaBKEq7xT8ixeh_O_-14" value="" style="endArrow=classic;html=1;rounded=0;exitX=0.5;exitY=1;exitDx=0;exitDy=0;entryX=0.5;entryY=0;entryDx=0;entryDy=0;" parent="J9mkaBKEq7xT8ixeh_O_-1" source="J9mkaBKEq7xT8ixeh_O_-13" target="J9mkaBKEq7xT8ixeh_O_-7" edge="1">
          <mxGeometry width="50" height="50" relative="1" as="geometry">
            <mxPoint x="390" y="260" as="sourcePoint" />
            <mxPoint x="440" y="210" as="targetPoint" />
          </mxGeometry>
        </mxCell>
        <mxCell id="J9mkaBKEq7xT8ixeh_O_-15" value="Simulated_World" style="rounded=1;whiteSpace=wrap;html=1;fillColor=#999999;strokeColor=#314354;fontColor=#CCCCCC;" parent="J9mkaBKEq7xT8ixeh_O_-1" vertex="1">
          <mxGeometry x="180" y="40" width="120" height="60" as="geometry" />
        </mxCell>
        <mxCell id="J9mkaBKEq7xT8ixeh_O_-16" value="" style="endArrow=classic;html=1;rounded=0;exitX=0.5;exitY=1;exitDx=0;exitDy=0;entryX=0.5;entryY=0;entryDx=0;entryDy=0;" parent="J9mkaBKEq7xT8ixeh_O_-1" source="J9mkaBKEq7xT8ixeh_O_-15" target="J9mkaBKEq7xT8ixeh_O_-6" edge="1">
          <mxGeometry width="50" height="50" relative="1" as="geometry">
            <mxPoint x="410" y="110" as="sourcePoint" />
            <mxPoint x="410" y="130" as="targetPoint" />
          </mxGeometry>
        </mxCell>
        <mxCell id="J9mkaBKEq7xT8ixeh_O_-17" value="Pointcloud_Files" style="rounded=1;whiteSpace=wrap;html=1;fillColor=#999999;strokeColor=#314354;fontColor=#CCCCCC;" parent="J9mkaBKEq7xT8ixeh_O_-1" vertex="1">
          <mxGeometry x="40" y="40" width="120" height="60" as="geometry" />
        </mxCell>
        <mxCell id="J9mkaBKEq7xT8ixeh_O_-18" value="" style="endArrow=classic;html=1;rounded=0;startArrow=classic;startFill=1;entryX=0.5;entryY=1;entryDx=0;entryDy=0;" parent="J9mkaBKEq7xT8ixeh_O_-1" target="J9mkaBKEq7xT8ixeh_O_-17" edge="1">
          <mxGeometry width="50" height="50" relative="1" as="geometry">
            <mxPoint x="100" y="120" as="sourcePoint" />
            <mxPoint x="40" y="260" as="targetPoint" />
          </mxGeometry>
        </mxCell>
        <mxCell id="J9mkaBKEq7xT8ixeh_O_-19" value="" style="edgeStyle=segmentEdgeStyle;endArrow=classic;html=1;rounded=0;entryX=0.1;entryY=0;entryDx=0;entryDy=0;entryPerimeter=0;exitX=0.099;exitY=0.989;exitDx=0;exitDy=0;exitPerimeter=0;" parent="J9mkaBKEq7xT8ixeh_O_-1" source="J9mkaBKEq7xT8ixeh_O_-8" target="J9mkaBKEq7xT8ixeh_O_-9" edge="1">
          <mxGeometry width="50" height="50" relative="1" as="geometry">
            <mxPoint x="90" y="281" as="sourcePoint" />
            <mxPoint x="330" y="250" as="targetPoint" />
            <Array as="points" />
          </mxGeometry>
        </mxCell>
        <mxCell id="J9mkaBKEq7xT8ixeh_O_-20" value="Open3D" style="rounded=1;whiteSpace=wrap;html=1;fillColor=#999999;strokeColor=#314354;fontColor=#CCCCCC;" parent="J9mkaBKEq7xT8ixeh_O_-1" vertex="1">
          <mxGeometry x="120" y="320" width="80" height="60" as="geometry" />
        </mxCell>
        <mxCell id="J9mkaBKEq7xT8ixeh_O_-21" value="" style="edgeStyle=orthogonalEdgeStyle;rounded=0;orthogonalLoop=1;jettySize=auto;html=1;startArrow=classic;startFill=1;entryX=0.5;entryY=1;entryDx=0;entryDy=0;" parent="J9mkaBKEq7xT8ixeh_O_-1" source="J9mkaBKEq7xT8ixeh_O_-23" target="J9mkaBKEq7xT8ixeh_O_-8" edge="1">
          <mxGeometry relative="1" as="geometry">
            <mxPoint x="240" y="300" as="targetPoint" />
          </mxGeometry>
        </mxCell>
        <mxCell id="J9mkaBKEq7xT8ixeh_O_-22" style="edgeStyle=orthogonalEdgeStyle;rounded=0;orthogonalLoop=1;jettySize=auto;html=1;entryX=0.5;entryY=0;entryDx=0;entryDy=0;startArrow=classic;startFill=1;" parent="J9mkaBKEq7xT8ixeh_O_-1" source="J9mkaBKEq7xT8ixeh_O_-23" target="J9mkaBKEq7xT8ixeh_O_-9" edge="1">
          <mxGeometry relative="1" as="geometry" />
        </mxCell>
        <mxCell id="J9mkaBKEq7xT8ixeh_O_-23" value="PointNet" style="rounded=1;whiteSpace=wrap;html=1;fillColor=#999999;strokeColor=#314354;fontColor=#CCCCCC;" parent="J9mkaBKEq7xT8ixeh_O_-1" vertex="1">
          <mxGeometry x="200" y="390" width="80" height="60" as="geometry" />
        </mxCell>
        <mxCell id="J9mkaBKEq7xT8ixeh_O_-24" style="edgeStyle=orthogonalEdgeStyle;rounded=0;orthogonalLoop=1;jettySize=auto;html=1;entryX=0.7;entryY=1.086;entryDx=0;entryDy=0;entryPerimeter=0;startArrow=classic;startFill=1;" parent="J9mkaBKEq7xT8ixeh_O_-1" source="J9mkaBKEq7xT8ixeh_O_-26" target="J9mkaBKEq7xT8ixeh_O_-8" edge="1">
          <mxGeometry relative="1" as="geometry" />
        </mxCell>
        <mxCell id="J9mkaBKEq7xT8ixeh_O_-25" style="edgeStyle=orthogonalEdgeStyle;rounded=0;orthogonalLoop=1;jettySize=auto;html=1;entryX=0.7;entryY=0.029;entryDx=0;entryDy=0;entryPerimeter=0;startArrow=classic;startFill=1;" parent="J9mkaBKEq7xT8ixeh_O_-1" source="J9mkaBKEq7xT8ixeh_O_-26" target="J9mkaBKEq7xT8ixeh_O_-9" edge="1">
          <mxGeometry relative="1" as="geometry" />
        </mxCell>
        <mxCell id="J9mkaBKEq7xT8ixeh_O_-26" value="Filtering" style="rounded=1;whiteSpace=wrap;html=1;fillColor=#999999;strokeColor=#314354;fontColor=#CCCCCC;" parent="J9mkaBKEq7xT8ixeh_O_-1" vertex="1">
          <mxGeometry x="280" y="460" width="80" height="60" as="geometry" />
        </mxCell>
        <mxCell id="J9mkaBKEq7xT8ixeh_O_-27" value="" style="endArrow=classic;html=1;rounded=0;entryX=0.5;entryY=0;entryDx=0;entryDy=0;" parent="J9mkaBKEq7xT8ixeh_O_-1" source="J9mkaBKEq7xT8ixeh_O_-6" target="J9mkaBKEq7xT8ixeh_O_-8" edge="1">
          <mxGeometry width="50" height="50" relative="1" as="geometry">
            <mxPoint x="239.76" y="180" as="sourcePoint" />
            <mxPoint x="239.76" y="200" as="targetPoint" />
          </mxGeometry>
        </mxCell>
        <mxCell id="J9mkaBKEq7xT8ixeh_O_-28" style="edgeStyle=orthogonalEdgeStyle;rounded=0;orthogonalLoop=1;jettySize=auto;html=1;entryX=1;entryY=0.5;entryDx=0;entryDy=0;fontSize=24;fontColor=#FFFFFF;startArrow=classic;startFill=1;" parent="J9mkaBKEq7xT8ixeh_O_-1" source="J9mkaBKEq7xT8ixeh_O_-29" target="J9mkaBKEq7xT8ixeh_O_-8" edge="1">
          <mxGeometry relative="1" as="geometry" />
        </mxCell>
        <mxCell id="J9mkaBKEq7xT8ixeh_O_-29" value="Actions" style="rounded=1;whiteSpace=wrap;html=1;fillColor=#999999;strokeColor=#314354;fontColor=#CCCCCC;" parent="J9mkaBKEq7xT8ixeh_O_-1" vertex="1">
          <mxGeometry x="480" y="320" width="80" height="60" as="geometry" />
        </mxCell>
        <mxCell id="J9mkaBKEq7xT8ixeh_O_-30" value="" style="endArrow=classic;startArrow=classic;html=1;rounded=0;exitX=0.5;exitY=0;exitDx=0;exitDy=0;entryX=0.3;entryY=1.029;entryDx=0;entryDy=0;entryPerimeter=0;" parent="J9mkaBKEq7xT8ixeh_O_-1" source="J9mkaBKEq7xT8ixeh_O_-20" target="J9mkaBKEq7xT8ixeh_O_-8" edge="1">
          <mxGeometry width="50" height="50" relative="1" as="geometry">
            <mxPoint x="310" y="420" as="sourcePoint" />
            <mxPoint x="360" y="370" as="targetPoint" />
          </mxGeometry>
        </mxCell>
        <mxCell id="J9mkaBKEq7xT8ixeh_O_-31" value="" style="endArrow=classic;html=1;rounded=0;exitX=0.5;exitY=1;exitDx=0;exitDy=0;entryX=0.3;entryY=0;entryDx=0;entryDy=0;entryPerimeter=0;" parent="J9mkaBKEq7xT8ixeh_O_-1" source="J9mkaBKEq7xT8ixeh_O_-20" target="J9mkaBKEq7xT8ixeh_O_-9" edge="1">
          <mxGeometry width="50" height="50" relative="1" as="geometry">
            <mxPoint x="310" y="420" as="sourcePoint" />
            <mxPoint x="360" y="370" as="targetPoint" />
          </mxGeometry>
        </mxCell>
        <mxCell id="J9mkaBKEq7xT8ixeh_O_-32" value="1" style="shape=process;whiteSpace=wrap;html=1;backgroundOutline=1;fontSize=24;fontColor=#FFFFFF;fillColor=#66B2FF;gradientColor=none;strokeColor=#FFFFFF;" parent="J9mkaBKEq7xT8ixeh_O_-1" vertex="1">
          <mxGeometry x="20" y="760" width="120" height="60" as="geometry" />
        </mxCell>
        <mxCell id="J9mkaBKEq7xT8ixeh_O_-33" value="2" style="shape=process;whiteSpace=wrap;html=1;backgroundOutline=1;fontSize=24;fontColor=#FFFFFF;fillColor=#66B2FF;gradientColor=none;strokeColor=#FFFFFF;" parent="J9mkaBKEq7xT8ixeh_O_-1" vertex="1">
          <mxGeometry x="20" y="820" width="120" height="60" as="geometry" />
        </mxCell>
        <mxCell id="J9mkaBKEq7xT8ixeh_O_-34" value="3" style="shape=process;whiteSpace=wrap;html=1;backgroundOutline=1;fontSize=24;fontColor=#FFFFFF;fillColor=#66B2FF;gradientColor=none;strokeColor=#FFFFFF;" parent="J9mkaBKEq7xT8ixeh_O_-1" vertex="1">
          <mxGeometry x="20" y="880" width="120" height="80" as="geometry" />
        </mxCell>
        <mxCell id="J9mkaBKEq7xT8ixeh_O_-35" value="4" style="shape=process;whiteSpace=wrap;html=1;backgroundOutline=1;fontSize=24;fontColor=#FFFFFF;fillColor=#66B2FF;gradientColor=none;strokeColor=#FFFFFF;" parent="J9mkaBKEq7xT8ixeh_O_-1" vertex="1">
          <mxGeometry x="20" y="960" width="120" height="200" as="geometry" />
        </mxCell>
        <mxCell id="J9mkaBKEq7xT8ixeh_O_-36" value="ROS" style="shape=process;whiteSpace=wrap;html=1;backgroundOutline=1;fontSize=24;fontColor=#FFFFFF;fillColor=#66B2FF;gradientColor=none;strokeColor=#FFFFFF;" parent="J9mkaBKEq7xT8ixeh_O_-1" vertex="1">
          <mxGeometry x="20" y="700" width="120" height="60" as="geometry" />
        </mxCell>
        <mxCell id="J9mkaBKEq7xT8ixeh_O_-39" value="Source ROS and start core" style="rounded=0;whiteSpace=wrap;html=1;fontSize=18;fontColor=#FFFFFF;fillColor=#A1D6FF;gradientColor=none;strokeColor=#FFFFFF;" parent="J9mkaBKEq7xT8ixeh_O_-1" vertex="1">
          <mxGeometry x="140" y="760" width="360" height="60" as="geometry" />
        </mxCell>
        <mxCell id="J9mkaBKEq7xT8ixeh_O_-40" value="&lt;div style=&quot;font-size: 12px&quot; align=&quot;left&quot;&gt;&lt;ol&gt;&lt;li&gt;Open a terminal&lt;/li&gt;&lt;li&gt;Type &quot;rosgo&quot; to source ROS&lt;br&gt;&lt;/li&gt;&lt;li&gt;Type &quot;roscore&quot; to start the ROS Core&lt;br&gt;&lt;/li&gt;&lt;/ol&gt;&lt;/div&gt;" style="rounded=0;whiteSpace=wrap;html=1;fontSize=18;fontColor=#FFFFFF;fillColor=#A1D6FF;gradientColor=none;strokeColor=#FFFFFF;align=left;" parent="J9mkaBKEq7xT8ixeh_O_-1" vertex="1">
          <mxGeometry x="500" y="760" width="300" height="60" as="geometry" />
        </mxCell>
        <mxCell id="J9mkaBKEq7xT8ixeh_O_-41" value="&lt;div style=&quot;font-size: 36px&quot; align=&quot;left&quot;&gt;&lt;b&gt;&lt;font style=&quot;font-size: 36px&quot;&gt;1.2&lt;/font&gt;&lt;/b&gt;&lt;/div&gt;" style="rounded=1;whiteSpace=wrap;html=1;strokeColor=none;align=left;" parent="J9mkaBKEq7xT8ixeh_O_-1" vertex="1">
          <mxGeometry x="20" y="640" width="780" height="50" as="geometry" />
        </mxCell>
        <mxCell id="J9mkaBKEq7xT8ixeh_O_-43" value="&lt;div align=&quot;center&quot;&gt;Description&lt;/div&gt;" style="rounded=1;whiteSpace=wrap;html=1;strokeColor=none;align=center;" parent="J9mkaBKEq7xT8ixeh_O_-1" vertex="1">
          <mxGeometry x="140" y="680" width="360" height="20" as="geometry" />
        </mxCell>
        <mxCell id="J9mkaBKEq7xT8ixeh_O_-44" value="Tasks" style="rounded=1;whiteSpace=wrap;html=1;strokeColor=none;align=center;" parent="J9mkaBKEq7xT8ixeh_O_-1" vertex="1">
          <mxGeometry x="500" y="680" width="300" height="20" as="geometry" />
        </mxCell>
        <mxCell id="J9mkaBKEq7xT8ixeh_O_-45" value="RUN Talker and Listerner Nodes" style="rounded=0;whiteSpace=wrap;html=1;fontSize=18;fontColor=#FFFFFF;fillColor=#A1D6FF;gradientColor=none;strokeColor=#FFFFFF;" parent="J9mkaBKEq7xT8ixeh_O_-1" vertex="1">
          <mxGeometry x="140" y="820" width="360" height="60" as="geometry" />
        </mxCell>
        <mxCell id="J9mkaBKEq7xT8ixeh_O_-47" value="&lt;div&gt;Interigate and manipulate the /chatter topic.&lt;/div&gt;&lt;div style=&quot;font-size: 12px&quot;&gt;Bonus: Try &quot;rosnode&quot; TAB TAB&lt;br&gt;&lt;/div&gt;" style="rounded=0;whiteSpace=wrap;html=1;fontSize=18;fontColor=#FFFFFF;fillColor=#A1D6FF;gradientColor=none;strokeColor=#FFFFFF;" parent="J9mkaBKEq7xT8ixeh_O_-1" vertex="1">
          <mxGeometry x="140" y="880" width="360" height="80" as="geometry" />
        </mxCell>
        <mxCell id="J9mkaBKEq7xT8ixeh_O_-48" value="&lt;div style=&quot;font-size: 12px&quot; align=&quot;left&quot;&gt;&lt;ol&gt;&lt;li&gt;&lt;font style=&quot;font-size: 12px&quot;&gt;&quot;rosrun rospy_tutorials talker&quot;&lt;br&gt;&lt;/font&gt;&lt;/li&gt;&lt;li&gt;&lt;font style=&quot;font-size: 12px&quot;&gt;&quot;rosrun rospy_tutorials listener&quot;&lt;/font&gt;&lt;/li&gt;&lt;li&gt;&lt;font style=&quot;font-size: 12px&quot;&gt;&quot;rosrun rqt_graph rqt_graph&quot;&lt;br&gt;&lt;/font&gt;&lt;/li&gt;&lt;/ol&gt;&lt;/div&gt;" style="rounded=0;whiteSpace=wrap;html=1;fontSize=18;fontColor=#FFFFFF;fillColor=#A1D6FF;gradientColor=none;strokeColor=#FFFFFF;align=left;" parent="J9mkaBKEq7xT8ixeh_O_-1" vertex="1">
          <mxGeometry x="500" y="820" width="300" height="60" as="geometry" />
        </mxCell>
        <mxCell id="J9mkaBKEq7xT8ixeh_O_-49" value="Create Node that filters &quot;chatter&quot;" style="rounded=0;whiteSpace=wrap;html=1;fontSize=18;fontColor=#FFFFFF;fillColor=#A1D6FF;gradientColor=none;strokeColor=#FFFFFF;" parent="J9mkaBKEq7xT8ixeh_O_-1" vertex="1">
          <mxGeometry x="140" y="960" width="360" height="200" as="geometry" />
        </mxCell>
        <mxCell id="J9mkaBKEq7xT8ixeh_O_-50" value="&lt;div style=&quot;font-size: 12px&quot; align=&quot;left&quot;&gt;&lt;ol&gt;&lt;li&gt;&lt;font style=&quot;font-size: 12px&quot;&gt;Review &quot;message_publisher.py&quot;&lt;br&gt;&lt;/font&gt;&lt;/li&gt;&lt;li&gt;&lt;font style=&quot;font-size: 12px&quot;&gt;Review &quot;message_subscriber.py&quot;&lt;br&gt;&lt;/font&gt;&lt;/li&gt;&lt;/ol&gt;&lt;/div&gt;" style="rounded=0;whiteSpace=wrap;html=1;fontSize=18;fontColor=#FFFFFF;fillColor=#A1D6FF;gradientColor=none;strokeColor=#FFFFFF;align=left;" parent="J9mkaBKEq7xT8ixeh_O_-1" vertex="1">
          <mxGeometry x="500" y="960" width="300" height="50" as="geometry" />
        </mxCell>
        <mxCell id="FPhliQQyami5PE9gNsOo-0" value="&lt;p style=&quot;line-height: 0.9&quot;&gt;&lt;font style=&quot;font-size: 12px&quot;&gt;Introduction to ROS. Demonstration of Concepts. Time to practice and familiarise yourself &lt;br&gt;&lt;/font&gt;&lt;/p&gt;" style="rounded=0;whiteSpace=wrap;html=1;fontSize=18;fontColor=#FFFFFF;fillColor=#66B2FF;gradientColor=none;strokeColor=#FFFFFF;" parent="J9mkaBKEq7xT8ixeh_O_-1" vertex="1">
          <mxGeometry x="140" y="700" width="360" height="60" as="geometry" />
        </mxCell>
        <mxCell id="FPhliQQyami5PE9gNsOo-1" value="&lt;div style=&quot;font-size: 12px&quot; align=&quot;left&quot;&gt;&lt;ol&gt;&lt;li&gt;&lt;font style=&quot;font-size: 12px&quot;&gt;Run ROS Demo Nodes&lt;/font&gt;&lt;/li&gt;&lt;li&gt;&lt;font style=&quot;font-size: 12px&quot;&gt;Edit a ROS Node&lt;br&gt;&lt;/font&gt;&lt;/li&gt;&lt;/ol&gt;&lt;/div&gt;" style="rounded=0;whiteSpace=wrap;html=1;fontSize=18;fontColor=#FFFFFF;fillColor=#66B2FF;gradientColor=none;strokeColor=#FFFFFF;align=left;" parent="J9mkaBKEq7xT8ixeh_O_-1" vertex="1">
          <mxGeometry x="500" y="700" width="300" height="60" as="geometry" />
        </mxCell>
        <mxCell id="FPhliQQyami5PE9gNsOo-2" value="&lt;div style=&quot;font-size: 12px&quot; align=&quot;left&quot;&gt;&lt;ol&gt;&lt;li&gt;&lt;font style=&quot;font-size: 12px&quot;&gt;&quot;rostopic &quot; TAB TAB. Try these options&lt;br&gt;&lt;/font&gt;&lt;/li&gt;&lt;li&gt;&lt;font style=&quot;font-size: 12px&quot;&gt;&quot;rostopic echo /chatter&quot;&lt;/font&gt;&lt;/li&gt;&lt;li&gt;&lt;font style=&quot;font-size: 12px&quot;&gt;&quot;rostopic type /chatter&quot;&lt;br&gt;&lt;/font&gt;&lt;/li&gt;&lt;li&gt;&lt;font style=&quot;font-size: 12px&quot;&gt;&quot;rostopic pub -r 1 /chatter std_msgs/String &quot;data: &#39;hello&#39;&quot; &quot;&lt;br&gt;&lt;/font&gt;&lt;/li&gt;&lt;/ol&gt;&lt;/div&gt;" style="rounded=0;whiteSpace=wrap;html=1;fontSize=18;fontColor=#FFFFFF;fillColor=#A1D6FF;gradientColor=none;strokeColor=#FFFFFF;align=left;" parent="J9mkaBKEq7xT8ixeh_O_-1" vertex="1">
          <mxGeometry x="500" y="880" width="300" height="80" as="geometry" />
        </mxCell>
        <mxCell id="FPhliQQyami5PE9gNsOo-3" value="&lt;div style=&quot;font-size: 12px&quot; align=&quot;left&quot;&gt;&lt;font style=&quot;font-size: 12px&quot;&gt;Create a node that:&lt;/font&gt;&lt;ol&gt;&lt;li&gt;&lt;font style=&quot;font-size: 12px&quot;&gt;&lt;span style=&quot;white-space: pre&quot;&gt; &lt;/span&gt;subscribes to /chatter&lt;br&gt;&lt;/font&gt;&lt;/li&gt;&lt;li&gt;&lt;font style=&quot;font-size: 12px&quot;&gt;&lt;span style=&quot;white-space: pre&quot;&gt; &lt;/span&gt;removes all non-numerical characters&lt;/font&gt;&lt;/li&gt;&lt;li&gt;&lt;font style=&quot;font-size: 12px&quot;&gt;&lt;span style=&quot;white-space: pre&quot;&gt; &lt;/span&gt;rounds time value down&lt;/font&gt;&lt;/li&gt;&lt;li&gt;&lt;font style=&quot;font-size: 12px&quot;&gt;&lt;span style=&quot;white-space: pre&quot;&gt; &lt;/span&gt;publishes int to /chatter_filtered &lt;br&gt;&lt;/font&gt;&lt;/li&gt;&lt;li&gt;&lt;font style=&quot;font-size: 12px&quot;&gt;if:&lt;/font&gt;&lt;/li&gt;&lt;li&gt;&lt;font style=&quot;font-size: 12px&quot;&gt;&lt;span style=&quot;white-space: pre&quot;&gt; &lt;/span&gt;&lt;span style=&quot;white-space: pre&quot;&gt; &lt;/span&gt;the value has changed&lt;br&gt;&lt;/font&gt;&lt;/li&gt;&lt;/ol&gt;&lt;/div&gt;" style="rounded=0;whiteSpace=wrap;html=1;fontSize=18;fontColor=#FFFFFF;fillColor=#A1D6FF;gradientColor=none;strokeColor=#FFFFFF;align=left;" parent="J9mkaBKEq7xT8ixeh_O_-1" vertex="1">
          <mxGeometry x="500" y="1010" width="300" height="150" as="geometry" />
        </mxCell>
      </root>
    </mxGraphModel>
  </diagram>
  <diagram id="9bVdkPfa6usCf1rkUAir" name="1.3_PointCloud_Files">
    <mxGraphModel dx="1360" dy="834" grid="1" gridSize="10" guides="1" tooltips="1" connect="1" arrows="1" fold="1" page="1" pageScale="1" pageWidth="827" pageHeight="1169" math="0" shadow="0">
      <root>
        <mxCell id="4YQgjiPVblWJCsrGzRVQ-0" />
        <mxCell id="4YQgjiPVblWJCsrGzRVQ-1" parent="4YQgjiPVblWJCsrGzRVQ-0" />
        <mxCell id="4YQgjiPVblWJCsrGzRVQ-3" value="&lt;div style=&quot;font-size: 24px&quot; align=&quot;right&quot;&gt;&lt;font style=&quot;font-size: 24px&quot; color=&quot;#FFFFFF&quot;&gt;Framework&amp;nbsp; &lt;br&gt;&lt;/font&gt;&lt;/div&gt;" style="rounded=1;whiteSpace=wrap;html=1;fillColor=#DBBEBB;strokeColor=none;arcSize=0;align=right;" parent="4YQgjiPVblWJCsrGzRVQ-1" vertex="1">
          <mxGeometry x="20" y="200" width="780" height="110" as="geometry" />
        </mxCell>
        <mxCell id="jQTTBZ4Hy3vGuIqQFhRK-0" value="LINUX&amp;nbsp;&amp;nbsp;" style="rounded=1;whiteSpace=wrap;html=1;align=right;" vertex="1" parent="4YQgjiPVblWJCsrGzRVQ-1">
          <mxGeometry x="30" y="230" width="580" height="60" as="geometry" />
        </mxCell>
        <mxCell id="4YQgjiPVblWJCsrGzRVQ-2" value="&lt;div style=&quot;font-size: 24px&quot; align=&quot;right&quot;&gt;&lt;font style=&quot;font-size: 24px&quot; color=&quot;#FFFFFF&quot;&gt;Process&amp;nbsp; &lt;br&gt;&lt;/font&gt;&lt;/div&gt;" style="rounded=1;whiteSpace=wrap;html=1;fillColor=#FF99CC;strokeColor=none;arcSize=0;align=right;gradientColor=none;" parent="4YQgjiPVblWJCsrGzRVQ-1" vertex="1">
          <mxGeometry x="20" y="310" width="780" height="230" as="geometry" />
        </mxCell>
        <mxCell id="4YQgjiPVblWJCsrGzRVQ-4" value="&lt;div style=&quot;font-size: 24px&quot; align=&quot;right&quot;&gt;&lt;font style=&quot;font-size: 24px&quot;&gt;Visualise&amp;nbsp; &lt;br&gt;&lt;/font&gt;&lt;/div&gt;" style="rounded=1;whiteSpace=wrap;html=1;fillColor=#CC99FF;strokeColor=none;arcSize=0;align=right;fontColor=#ffffff;" parent="4YQgjiPVblWJCsrGzRVQ-1" vertex="1">
          <mxGeometry x="20" y="540" width="780" height="80" as="geometry" />
        </mxCell>
        <mxCell id="4YQgjiPVblWJCsrGzRVQ-5" value="&lt;div style=&quot;font-size: 24px&quot; align=&quot;right&quot;&gt;&lt;font style=&quot;font-size: 24px&quot; color=&quot;#FFFFFF&quot;&gt;Input PointCloud Data&amp;nbsp; &lt;br&gt;&lt;/font&gt;&lt;/div&gt;" style="rounded=1;whiteSpace=wrap;html=1;fillColor=#FFCC99;strokeColor=none;arcSize=0;align=right;" parent="4YQgjiPVblWJCsrGzRVQ-1" vertex="1">
          <mxGeometry x="20" y="20" width="780" height="180" as="geometry" />
        </mxCell>
        <mxCell id="4YQgjiPVblWJCsrGzRVQ-6" value="Gazebo" style="rounded=1;whiteSpace=wrap;html=1;fillColor=#999999;strokeColor=#314354;fontColor=#CCCCCC;" parent="4YQgjiPVblWJCsrGzRVQ-1" vertex="1">
          <mxGeometry x="180" y="120" width="120" height="60" as="geometry" />
        </mxCell>
        <mxCell id="4YQgjiPVblWJCsrGzRVQ-7" value="LiDAR_Sensor" style="rounded=1;whiteSpace=wrap;html=1;fillColor=#999999;strokeColor=#314354;fontColor=#CCCCCC;" parent="4YQgjiPVblWJCsrGzRVQ-1" vertex="1">
          <mxGeometry x="320" y="120" width="120" height="60" as="geometry" />
        </mxCell>
        <mxCell id="4YQgjiPVblWJCsrGzRVQ-8" value="ROS" style="rounded=1;whiteSpace=wrap;html=1;fillColor=#FFFFFF;strokeColor=#314354;fontColor=#000000;" parent="4YQgjiPVblWJCsrGzRVQ-1" vertex="1">
          <mxGeometry x="40" y="240" width="400" height="40" as="geometry" />
        </mxCell>
        <mxCell id="4YQgjiPVblWJCsrGzRVQ-9" value="RVIZ" style="rounded=1;whiteSpace=wrap;html=1;fillColor=#999999;strokeColor=#314354;fontColor=#CCCCCC;" parent="4YQgjiPVblWJCsrGzRVQ-1" vertex="1">
          <mxGeometry x="40" y="560" width="400" height="40" as="geometry" />
        </mxCell>
        <mxCell id="4YQgjiPVblWJCsrGzRVQ-10" value="ROS_BAG" style="rounded=1;whiteSpace=wrap;html=1;fillColor=#999999;strokeColor=#314354;fontColor=#CCCCCC;" parent="4YQgjiPVblWJCsrGzRVQ-1" vertex="1">
          <mxGeometry x="40" y="120" width="120" height="60" as="geometry" />
        </mxCell>
        <mxCell id="4YQgjiPVblWJCsrGzRVQ-11" value="" style="edgeStyle=segmentEdgeStyle;endArrow=classic;html=1;rounded=0;exitX=0.5;exitY=1;exitDx=0;exitDy=0;entryX=0.151;entryY=0.015;entryDx=0;entryDy=0;startArrow=classic;startFill=1;entryPerimeter=0;" parent="4YQgjiPVblWJCsrGzRVQ-1" source="4YQgjiPVblWJCsrGzRVQ-10" target="4YQgjiPVblWJCsrGzRVQ-8" edge="1">
          <mxGeometry width="50" height="50" relative="1" as="geometry">
            <mxPoint x="410" y="260" as="sourcePoint" />
            <mxPoint x="460" y="210" as="targetPoint" />
            <Array as="points">
              <mxPoint x="100" y="241" />
            </Array>
          </mxGeometry>
        </mxCell>
        <mxCell id="4YQgjiPVblWJCsrGzRVQ-12" value="" style="edgeStyle=segmentEdgeStyle;endArrow=classic;html=1;rounded=0;exitX=0.5;exitY=1;exitDx=0;exitDy=0;entryX=0.85;entryY=0.014;entryDx=0;entryDy=0;entryPerimeter=0;" parent="4YQgjiPVblWJCsrGzRVQ-1" source="4YQgjiPVblWJCsrGzRVQ-7" target="4YQgjiPVblWJCsrGzRVQ-8" edge="1">
          <mxGeometry width="50" height="50" relative="1" as="geometry">
            <mxPoint x="310" y="160" as="sourcePoint" />
            <mxPoint x="330" y="250" as="targetPoint" />
            <Array as="points">
              <mxPoint x="380" y="200" />
              <mxPoint x="380" y="200" />
            </Array>
          </mxGeometry>
        </mxCell>
        <mxCell id="4YQgjiPVblWJCsrGzRVQ-13" value="Real_World" style="rounded=1;whiteSpace=wrap;html=1;fillColor=#999999;strokeColor=#314354;fontColor=#CCCCCC;" parent="4YQgjiPVblWJCsrGzRVQ-1" vertex="1">
          <mxGeometry x="320" y="40" width="120" height="60" as="geometry" />
        </mxCell>
        <mxCell id="4YQgjiPVblWJCsrGzRVQ-14" value="" style="endArrow=classic;html=1;rounded=0;exitX=0.5;exitY=1;exitDx=0;exitDy=0;entryX=0.5;entryY=0;entryDx=0;entryDy=0;" parent="4YQgjiPVblWJCsrGzRVQ-1" source="4YQgjiPVblWJCsrGzRVQ-13" target="4YQgjiPVblWJCsrGzRVQ-7" edge="1">
          <mxGeometry width="50" height="50" relative="1" as="geometry">
            <mxPoint x="390" y="260" as="sourcePoint" />
            <mxPoint x="440" y="210" as="targetPoint" />
          </mxGeometry>
        </mxCell>
        <mxCell id="4YQgjiPVblWJCsrGzRVQ-15" value="Simulated_World" style="rounded=1;whiteSpace=wrap;html=1;fillColor=#999999;strokeColor=#314354;fontColor=#CCCCCC;" parent="4YQgjiPVblWJCsrGzRVQ-1" vertex="1">
          <mxGeometry x="180" y="40" width="120" height="60" as="geometry" />
        </mxCell>
        <mxCell id="4YQgjiPVblWJCsrGzRVQ-16" value="" style="endArrow=classic;html=1;rounded=0;exitX=0.5;exitY=1;exitDx=0;exitDy=0;entryX=0.5;entryY=0;entryDx=0;entryDy=0;" parent="4YQgjiPVblWJCsrGzRVQ-1" source="4YQgjiPVblWJCsrGzRVQ-15" target="4YQgjiPVblWJCsrGzRVQ-6" edge="1">
          <mxGeometry width="50" height="50" relative="1" as="geometry">
            <mxPoint x="410" y="110" as="sourcePoint" />
            <mxPoint x="410" y="130" as="targetPoint" />
          </mxGeometry>
        </mxCell>
        <mxCell id="4YQgjiPVblWJCsrGzRVQ-17" value="Pointcloud_Files" style="rounded=1;whiteSpace=wrap;html=1;" parent="4YQgjiPVblWJCsrGzRVQ-1" vertex="1">
          <mxGeometry x="40" y="40" width="120" height="60" as="geometry" />
        </mxCell>
        <mxCell id="4YQgjiPVblWJCsrGzRVQ-18" value="" style="endArrow=classic;html=1;rounded=0;startArrow=classic;startFill=1;entryX=0.5;entryY=1;entryDx=0;entryDy=0;" parent="4YQgjiPVblWJCsrGzRVQ-1" target="4YQgjiPVblWJCsrGzRVQ-17" edge="1">
          <mxGeometry width="50" height="50" relative="1" as="geometry">
            <mxPoint x="100" y="120" as="sourcePoint" />
            <mxPoint x="40" y="260" as="targetPoint" />
          </mxGeometry>
        </mxCell>
        <mxCell id="4YQgjiPVblWJCsrGzRVQ-19" value="" style="edgeStyle=segmentEdgeStyle;endArrow=classic;html=1;rounded=0;entryX=0.1;entryY=0;entryDx=0;entryDy=0;entryPerimeter=0;exitX=0.099;exitY=0.989;exitDx=0;exitDy=0;exitPerimeter=0;" parent="4YQgjiPVblWJCsrGzRVQ-1" source="4YQgjiPVblWJCsrGzRVQ-8" target="4YQgjiPVblWJCsrGzRVQ-9" edge="1">
          <mxGeometry width="50" height="50" relative="1" as="geometry">
            <mxPoint x="90" y="281" as="sourcePoint" />
            <mxPoint x="330" y="250" as="targetPoint" />
            <Array as="points" />
          </mxGeometry>
        </mxCell>
        <mxCell id="4YQgjiPVblWJCsrGzRVQ-20" value="Open3D" style="rounded=1;whiteSpace=wrap;html=1;fillColor=#999999;strokeColor=#314354;fontColor=#CCCCCC;" parent="4YQgjiPVblWJCsrGzRVQ-1" vertex="1">
          <mxGeometry x="120" y="320" width="80" height="60" as="geometry" />
        </mxCell>
        <mxCell id="4YQgjiPVblWJCsrGzRVQ-21" value="" style="edgeStyle=orthogonalEdgeStyle;rounded=0;orthogonalLoop=1;jettySize=auto;html=1;startArrow=classic;startFill=1;entryX=0.5;entryY=1;entryDx=0;entryDy=0;" parent="4YQgjiPVblWJCsrGzRVQ-1" source="4YQgjiPVblWJCsrGzRVQ-23" target="4YQgjiPVblWJCsrGzRVQ-8" edge="1">
          <mxGeometry relative="1" as="geometry">
            <mxPoint x="240" y="300" as="targetPoint" />
          </mxGeometry>
        </mxCell>
        <mxCell id="4YQgjiPVblWJCsrGzRVQ-22" style="edgeStyle=orthogonalEdgeStyle;rounded=0;orthogonalLoop=1;jettySize=auto;html=1;entryX=0.5;entryY=0;entryDx=0;entryDy=0;startArrow=classic;startFill=1;" parent="4YQgjiPVblWJCsrGzRVQ-1" source="4YQgjiPVblWJCsrGzRVQ-23" target="4YQgjiPVblWJCsrGzRVQ-9" edge="1">
          <mxGeometry relative="1" as="geometry" />
        </mxCell>
        <mxCell id="4YQgjiPVblWJCsrGzRVQ-23" value="PointNet" style="rounded=1;whiteSpace=wrap;html=1;fillColor=#999999;strokeColor=#314354;fontColor=#CCCCCC;" parent="4YQgjiPVblWJCsrGzRVQ-1" vertex="1">
          <mxGeometry x="200" y="390" width="80" height="60" as="geometry" />
        </mxCell>
        <mxCell id="4YQgjiPVblWJCsrGzRVQ-24" style="edgeStyle=orthogonalEdgeStyle;rounded=0;orthogonalLoop=1;jettySize=auto;html=1;entryX=0.7;entryY=1.086;entryDx=0;entryDy=0;entryPerimeter=0;startArrow=classic;startFill=1;" parent="4YQgjiPVblWJCsrGzRVQ-1" source="4YQgjiPVblWJCsrGzRVQ-26" target="4YQgjiPVblWJCsrGzRVQ-8" edge="1">
          <mxGeometry relative="1" as="geometry" />
        </mxCell>
        <mxCell id="4YQgjiPVblWJCsrGzRVQ-25" style="edgeStyle=orthogonalEdgeStyle;rounded=0;orthogonalLoop=1;jettySize=auto;html=1;entryX=0.7;entryY=0.029;entryDx=0;entryDy=0;entryPerimeter=0;startArrow=classic;startFill=1;" parent="4YQgjiPVblWJCsrGzRVQ-1" source="4YQgjiPVblWJCsrGzRVQ-26" target="4YQgjiPVblWJCsrGzRVQ-9" edge="1">
          <mxGeometry relative="1" as="geometry" />
        </mxCell>
        <mxCell id="4YQgjiPVblWJCsrGzRVQ-26" value="Filtering" style="rounded=1;whiteSpace=wrap;html=1;fillColor=#999999;strokeColor=#314354;fontColor=#CCCCCC;" parent="4YQgjiPVblWJCsrGzRVQ-1" vertex="1">
          <mxGeometry x="280" y="460" width="80" height="60" as="geometry" />
        </mxCell>
        <mxCell id="4YQgjiPVblWJCsrGzRVQ-27" value="" style="endArrow=classic;html=1;rounded=0;entryX=0.5;entryY=0;entryDx=0;entryDy=0;" parent="4YQgjiPVblWJCsrGzRVQ-1" source="4YQgjiPVblWJCsrGzRVQ-6" target="4YQgjiPVblWJCsrGzRVQ-8" edge="1">
          <mxGeometry width="50" height="50" relative="1" as="geometry">
            <mxPoint x="239.76" y="180" as="sourcePoint" />
            <mxPoint x="239.76" y="200" as="targetPoint" />
          </mxGeometry>
        </mxCell>
        <mxCell id="4YQgjiPVblWJCsrGzRVQ-28" style="edgeStyle=orthogonalEdgeStyle;rounded=0;orthogonalLoop=1;jettySize=auto;html=1;entryX=1;entryY=0.5;entryDx=0;entryDy=0;fontSize=24;fontColor=#FFFFFF;startArrow=classic;startFill=1;" parent="4YQgjiPVblWJCsrGzRVQ-1" source="4YQgjiPVblWJCsrGzRVQ-29" target="4YQgjiPVblWJCsrGzRVQ-8" edge="1">
          <mxGeometry relative="1" as="geometry" />
        </mxCell>
        <mxCell id="4YQgjiPVblWJCsrGzRVQ-29" value="Actions" style="rounded=1;whiteSpace=wrap;html=1;fillColor=#999999;strokeColor=#314354;fontColor=#CCCCCC;" parent="4YQgjiPVblWJCsrGzRVQ-1" vertex="1">
          <mxGeometry x="480" y="320" width="80" height="60" as="geometry" />
        </mxCell>
        <mxCell id="4YQgjiPVblWJCsrGzRVQ-30" value="" style="endArrow=classic;startArrow=classic;html=1;rounded=0;exitX=0.5;exitY=0;exitDx=0;exitDy=0;entryX=0.3;entryY=1.029;entryDx=0;entryDy=0;entryPerimeter=0;" parent="4YQgjiPVblWJCsrGzRVQ-1" source="4YQgjiPVblWJCsrGzRVQ-20" target="4YQgjiPVblWJCsrGzRVQ-8" edge="1">
          <mxGeometry width="50" height="50" relative="1" as="geometry">
            <mxPoint x="310" y="420" as="sourcePoint" />
            <mxPoint x="360" y="370" as="targetPoint" />
          </mxGeometry>
        </mxCell>
        <mxCell id="4YQgjiPVblWJCsrGzRVQ-31" value="" style="endArrow=classic;html=1;rounded=0;exitX=0.5;exitY=1;exitDx=0;exitDy=0;entryX=0.3;entryY=0;entryDx=0;entryDy=0;entryPerimeter=0;" parent="4YQgjiPVblWJCsrGzRVQ-1" source="4YQgjiPVblWJCsrGzRVQ-20" target="4YQgjiPVblWJCsrGzRVQ-9" edge="1">
          <mxGeometry width="50" height="50" relative="1" as="geometry">
            <mxPoint x="310" y="420" as="sourcePoint" />
            <mxPoint x="360" y="370" as="targetPoint" />
          </mxGeometry>
        </mxCell>
        <mxCell id="4YQgjiPVblWJCsrGzRVQ-32" value="1" style="shape=process;whiteSpace=wrap;html=1;backgroundOutline=1;fontSize=24;fontColor=#FFFFFF;fillColor=#66B2FF;gradientColor=none;strokeColor=#FFFFFF;" parent="4YQgjiPVblWJCsrGzRVQ-1" vertex="1">
          <mxGeometry x="20" y="760" width="120" height="60" as="geometry" />
        </mxCell>
        <mxCell id="4YQgjiPVblWJCsrGzRVQ-33" value="2" style="shape=process;whiteSpace=wrap;html=1;backgroundOutline=1;fontSize=24;fontColor=#FFFFFF;fillColor=#66B2FF;gradientColor=none;strokeColor=#FFFFFF;" parent="4YQgjiPVblWJCsrGzRVQ-1" vertex="1">
          <mxGeometry x="20" y="820" width="120" height="60" as="geometry" />
        </mxCell>
        <mxCell id="4YQgjiPVblWJCsrGzRVQ-36" value="PC Files" style="shape=process;whiteSpace=wrap;html=1;backgroundOutline=1;fontSize=24;fontColor=#FFFFFF;fillColor=#66B2FF;gradientColor=none;strokeColor=#FFFFFF;" parent="4YQgjiPVblWJCsrGzRVQ-1" vertex="1">
          <mxGeometry x="20" y="700" width="120" height="60" as="geometry" />
        </mxCell>
        <mxCell id="4YQgjiPVblWJCsrGzRVQ-37" value="Presentation: Overview of Types of Pointcloud Files" style="rounded=0;whiteSpace=wrap;html=1;fontSize=12;fontColor=#FFFFFF;fillColor=#A1D6FF;gradientColor=none;strokeColor=#FFFFFF;" parent="4YQgjiPVblWJCsrGzRVQ-1" vertex="1">
          <mxGeometry x="140" y="760" width="360" height="60" as="geometry" />
        </mxCell>
        <mxCell id="4YQgjiPVblWJCsrGzRVQ-38" value="&lt;div style=&quot;font-size: 12px&quot; align=&quot;left&quot;&gt;&lt;ol&gt;&lt;li&gt;TODO&lt;br&gt;&lt;/li&gt;&lt;/ol&gt;&lt;/div&gt;" style="rounded=0;whiteSpace=wrap;html=1;fontSize=18;fontColor=#FFFFFF;fillColor=#A1D6FF;gradientColor=none;strokeColor=#FFFFFF;align=left;" parent="4YQgjiPVblWJCsrGzRVQ-1" vertex="1">
          <mxGeometry x="500" y="760" width="300" height="60" as="geometry" />
        </mxCell>
        <mxCell id="4YQgjiPVblWJCsrGzRVQ-39" value="&lt;div style=&quot;font-size: 36px&quot; align=&quot;left&quot;&gt;&lt;b&gt;&lt;font style=&quot;font-size: 36px&quot;&gt;1.3&lt;/font&gt;&lt;/b&gt;&lt;/div&gt;" style="rounded=1;whiteSpace=wrap;html=1;strokeColor=none;align=left;" parent="4YQgjiPVblWJCsrGzRVQ-1" vertex="1">
          <mxGeometry x="20" y="640" width="780" height="50" as="geometry" />
        </mxCell>
        <mxCell id="4YQgjiPVblWJCsrGzRVQ-40" value="&lt;div align=&quot;center&quot;&gt;Description&lt;/div&gt;" style="rounded=1;whiteSpace=wrap;html=1;strokeColor=none;align=center;" parent="4YQgjiPVblWJCsrGzRVQ-1" vertex="1">
          <mxGeometry x="140" y="680" width="360" height="20" as="geometry" />
        </mxCell>
        <mxCell id="4YQgjiPVblWJCsrGzRVQ-41" value="Tasks" style="rounded=1;whiteSpace=wrap;html=1;strokeColor=none;align=center;" parent="4YQgjiPVblWJCsrGzRVQ-1" vertex="1">
          <mxGeometry x="500" y="680" width="300" height="20" as="geometry" />
        </mxCell>
        <mxCell id="4YQgjiPVblWJCsrGzRVQ-42" value="Open and View Files" style="rounded=0;whiteSpace=wrap;html=1;fontSize=12;fontColor=#FFFFFF;fillColor=#A1D6FF;gradientColor=none;strokeColor=#FFFFFF;" parent="4YQgjiPVblWJCsrGzRVQ-1" vertex="1">
          <mxGeometry x="140" y="820" width="360" height="60" as="geometry" />
        </mxCell>
        <mxCell id="4YQgjiPVblWJCsrGzRVQ-44" value="&lt;div style=&quot;font-size: 12px&quot; align=&quot;left&quot;&gt;&lt;ol&gt;&lt;li&gt;TODO&lt;br&gt;&lt;/li&gt;&lt;/ol&gt;&lt;/div&gt;" style="rounded=0;whiteSpace=wrap;html=1;fontSize=18;fontColor=#FFFFFF;fillColor=#A1D6FF;gradientColor=none;strokeColor=#FFFFFF;align=left;" parent="4YQgjiPVblWJCsrGzRVQ-1" vertex="1">
          <mxGeometry x="500" y="820" width="300" height="60" as="geometry" />
        </mxCell>
        <mxCell id="Je_H-Fq9UtKYgdRXmB1_-0" value="&lt;p style=&quot;line-height: 0.9&quot;&gt;&lt;font style=&quot;font-size: 12px&quot;&gt;Introduction to PointCloud Files. Open and view files. Convert between filetypes. PointClouds, Meshes, 3D. etc&lt;br&gt;&lt;/font&gt;&lt;/p&gt;" style="rounded=0;whiteSpace=wrap;html=1;fontSize=18;fontColor=#FFFFFF;fillColor=#A1D6FF;gradientColor=none;strokeColor=#FFFFFF;" parent="4YQgjiPVblWJCsrGzRVQ-1" vertex="1">
          <mxGeometry x="140" y="700" width="360" height="60" as="geometry" />
        </mxCell>
        <mxCell id="Je_H-Fq9UtKYgdRXmB1_-1" value="&lt;ol style=&quot;font-size: 12px&quot;&gt;&lt;li&gt;Quiz on Pointcloud Files&lt;font style=&quot;font-size: 12px&quot;&gt;&lt;br&gt;&lt;/font&gt;&lt;/li&gt;&lt;li&gt;&lt;font style=&quot;font-size: 12px&quot;&gt;Visualise files and scenes&lt;/font&gt;&lt;/li&gt;&lt;li&gt;Convert between filestypes&lt;/li&gt;&lt;/ol&gt;" style="rounded=0;whiteSpace=wrap;html=1;fontSize=18;fontColor=#FFFFFF;fillColor=#A1D6FF;gradientColor=none;strokeColor=#FFFFFF;align=left;" parent="4YQgjiPVblWJCsrGzRVQ-1" vertex="1">
          <mxGeometry x="500" y="700" width="300" height="60" as="geometry" />
        </mxCell>
        <mxCell id="ohtLr2exUeDOasbmNJmP-0" value="3" style="shape=process;whiteSpace=wrap;html=1;backgroundOutline=1;fontSize=24;fontColor=#FFFFFF;fillColor=#66B2FF;gradientColor=none;strokeColor=#FFFFFF;" vertex="1" parent="4YQgjiPVblWJCsrGzRVQ-1">
          <mxGeometry x="20" y="880" width="120" height="60" as="geometry" />
        </mxCell>
        <mxCell id="ohtLr2exUeDOasbmNJmP-1" value="Convert files between different types" style="rounded=0;whiteSpace=wrap;html=1;fontSize=12;fontColor=#FFFFFF;fillColor=#A1D6FF;gradientColor=none;strokeColor=#FFFFFF;" vertex="1" parent="4YQgjiPVblWJCsrGzRVQ-1">
          <mxGeometry x="140" y="880" width="360" height="60" as="geometry" />
        </mxCell>
        <mxCell id="ohtLr2exUeDOasbmNJmP-2" value="&lt;div style=&quot;font-size: 12px&quot; align=&quot;left&quot;&gt;&lt;ol&gt;&lt;li&gt;TODO&lt;br&gt;&lt;/li&gt;&lt;/ol&gt;&lt;/div&gt;" style="rounded=0;whiteSpace=wrap;html=1;fontSize=18;fontColor=#FFFFFF;fillColor=#A1D6FF;gradientColor=none;strokeColor=#FFFFFF;align=left;" vertex="1" parent="4YQgjiPVblWJCsrGzRVQ-1">
          <mxGeometry x="500" y="880" width="300" height="60" as="geometry" />
        </mxCell>
      </root>
    </mxGraphModel>
  </diagram>
  <diagram id="1GLsboiLLE9J7ARoGoJZ" name="1.4_ROSBAG_RVIZ">
    <mxGraphModel dx="1360" dy="834" grid="1" gridSize="10" guides="1" tooltips="1" connect="1" arrows="1" fold="1" page="1" pageScale="1" pageWidth="827" pageHeight="1169" math="0" shadow="0">
      <root>
        <mxCell id="DGRR15cwUST8M-Wxcmkc-0" />
        <mxCell id="DGRR15cwUST8M-Wxcmkc-1" parent="DGRR15cwUST8M-Wxcmkc-0" />
        <mxCell id="hvmsJPatxfwNXYZrIwbC-1" value="&lt;div style=&quot;font-size: 24px&quot; align=&quot;right&quot;&gt;&lt;font style=&quot;font-size: 24px&quot; color=&quot;#FFFFFF&quot;&gt;Framework&amp;nbsp; &lt;br&gt;&lt;/font&gt;&lt;/div&gt;" style="rounded=1;whiteSpace=wrap;html=1;fillColor=#DBBEBB;strokeColor=none;arcSize=0;align=right;" parent="DGRR15cwUST8M-Wxcmkc-1" vertex="1">
          <mxGeometry x="20" y="200" width="780" height="110" as="geometry" />
        </mxCell>
        <mxCell id="YYlpaAIacSnsv4gLlBTE-0" value="LINUX&amp;nbsp;&amp;nbsp;" style="rounded=1;whiteSpace=wrap;html=1;align=right;" vertex="1" parent="DGRR15cwUST8M-Wxcmkc-1">
          <mxGeometry x="30" y="230" width="580" height="60" as="geometry" />
        </mxCell>
        <mxCell id="hvmsJPatxfwNXYZrIwbC-0" value="&lt;div style=&quot;font-size: 24px&quot; align=&quot;right&quot;&gt;&lt;font style=&quot;font-size: 24px&quot; color=&quot;#FFFFFF&quot;&gt;Process&amp;nbsp; &lt;br&gt;&lt;/font&gt;&lt;/div&gt;" style="rounded=1;whiteSpace=wrap;html=1;fillColor=#FF99CC;strokeColor=none;arcSize=0;align=right;gradientColor=none;" parent="DGRR15cwUST8M-Wxcmkc-1" vertex="1">
          <mxGeometry x="20" y="310" width="780" height="230" as="geometry" />
        </mxCell>
        <mxCell id="hvmsJPatxfwNXYZrIwbC-2" value="&lt;div style=&quot;font-size: 24px&quot; align=&quot;right&quot;&gt;&lt;font style=&quot;font-size: 24px&quot;&gt;Visualise&amp;nbsp; &lt;br&gt;&lt;/font&gt;&lt;/div&gt;" style="rounded=1;whiteSpace=wrap;html=1;fillColor=#CC99FF;strokeColor=none;arcSize=0;align=right;fontColor=#ffffff;" parent="DGRR15cwUST8M-Wxcmkc-1" vertex="1">
          <mxGeometry x="20" y="540" width="780" height="80" as="geometry" />
        </mxCell>
        <mxCell id="hvmsJPatxfwNXYZrIwbC-3" value="&lt;div style=&quot;font-size: 24px&quot; align=&quot;right&quot;&gt;&lt;font style=&quot;font-size: 24px&quot; color=&quot;#FFFFFF&quot;&gt;Input PointCloud Data&amp;nbsp; &lt;br&gt;&lt;/font&gt;&lt;/div&gt;" style="rounded=1;whiteSpace=wrap;html=1;fillColor=#FFCC99;strokeColor=none;arcSize=0;align=right;" parent="DGRR15cwUST8M-Wxcmkc-1" vertex="1">
          <mxGeometry x="20" y="20" width="780" height="180" as="geometry" />
        </mxCell>
        <mxCell id="hvmsJPatxfwNXYZrIwbC-4" value="Gazebo" style="rounded=1;whiteSpace=wrap;html=1;fillColor=#999999;strokeColor=#314354;fontColor=#CCCCCC;" parent="DGRR15cwUST8M-Wxcmkc-1" vertex="1">
          <mxGeometry x="180" y="120" width="120" height="60" as="geometry" />
        </mxCell>
        <mxCell id="hvmsJPatxfwNXYZrIwbC-5" value="LiDAR_Sensor" style="rounded=1;whiteSpace=wrap;html=1;fillColor=#999999;strokeColor=#314354;fontColor=#CCCCCC;" parent="DGRR15cwUST8M-Wxcmkc-1" vertex="1">
          <mxGeometry x="320" y="120" width="120" height="60" as="geometry" />
        </mxCell>
        <mxCell id="hvmsJPatxfwNXYZrIwbC-6" value="ROS" style="rounded=1;whiteSpace=wrap;html=1;fillColor=#FFFFFF;strokeColor=#314354;fontColor=#000000;" parent="DGRR15cwUST8M-Wxcmkc-1" vertex="1">
          <mxGeometry x="40" y="240" width="400" height="40" as="geometry" />
        </mxCell>
        <mxCell id="hvmsJPatxfwNXYZrIwbC-7" value="RVIZ" style="rounded=1;whiteSpace=wrap;html=1;" parent="DGRR15cwUST8M-Wxcmkc-1" vertex="1">
          <mxGeometry x="40" y="560" width="400" height="40" as="geometry" />
        </mxCell>
        <mxCell id="hvmsJPatxfwNXYZrIwbC-8" value="ROS_BAG" style="rounded=1;whiteSpace=wrap;html=1;" parent="DGRR15cwUST8M-Wxcmkc-1" vertex="1">
          <mxGeometry x="40" y="120" width="120" height="60" as="geometry" />
        </mxCell>
        <mxCell id="hvmsJPatxfwNXYZrIwbC-9" value="" style="edgeStyle=segmentEdgeStyle;endArrow=classic;html=1;rounded=0;exitX=0.5;exitY=1;exitDx=0;exitDy=0;entryX=0.151;entryY=0.015;entryDx=0;entryDy=0;startArrow=classic;startFill=1;entryPerimeter=0;" parent="DGRR15cwUST8M-Wxcmkc-1" source="hvmsJPatxfwNXYZrIwbC-8" target="hvmsJPatxfwNXYZrIwbC-6" edge="1">
          <mxGeometry width="50" height="50" relative="1" as="geometry">
            <mxPoint x="410" y="260" as="sourcePoint" />
            <mxPoint x="460" y="210" as="targetPoint" />
            <Array as="points">
              <mxPoint x="100" y="241" />
            </Array>
          </mxGeometry>
        </mxCell>
        <mxCell id="hvmsJPatxfwNXYZrIwbC-10" value="" style="edgeStyle=segmentEdgeStyle;endArrow=classic;html=1;rounded=0;exitX=0.5;exitY=1;exitDx=0;exitDy=0;entryX=0.85;entryY=0.014;entryDx=0;entryDy=0;entryPerimeter=0;" parent="DGRR15cwUST8M-Wxcmkc-1" source="hvmsJPatxfwNXYZrIwbC-5" target="hvmsJPatxfwNXYZrIwbC-6" edge="1">
          <mxGeometry width="50" height="50" relative="1" as="geometry">
            <mxPoint x="310" y="160" as="sourcePoint" />
            <mxPoint x="330" y="250" as="targetPoint" />
            <Array as="points">
              <mxPoint x="380" y="200" />
              <mxPoint x="380" y="200" />
            </Array>
          </mxGeometry>
        </mxCell>
        <mxCell id="hvmsJPatxfwNXYZrIwbC-11" value="Real_World" style="rounded=1;whiteSpace=wrap;html=1;fillColor=#999999;strokeColor=#314354;fontColor=#CCCCCC;" parent="DGRR15cwUST8M-Wxcmkc-1" vertex="1">
          <mxGeometry x="320" y="40" width="120" height="60" as="geometry" />
        </mxCell>
        <mxCell id="hvmsJPatxfwNXYZrIwbC-12" value="" style="endArrow=classic;html=1;rounded=0;exitX=0.5;exitY=1;exitDx=0;exitDy=0;entryX=0.5;entryY=0;entryDx=0;entryDy=0;" parent="DGRR15cwUST8M-Wxcmkc-1" source="hvmsJPatxfwNXYZrIwbC-11" target="hvmsJPatxfwNXYZrIwbC-5" edge="1">
          <mxGeometry width="50" height="50" relative="1" as="geometry">
            <mxPoint x="390" y="260" as="sourcePoint" />
            <mxPoint x="440" y="210" as="targetPoint" />
          </mxGeometry>
        </mxCell>
        <mxCell id="hvmsJPatxfwNXYZrIwbC-13" value="Simulated_World" style="rounded=1;whiteSpace=wrap;html=1;fillColor=#999999;strokeColor=#314354;fontColor=#CCCCCC;" parent="DGRR15cwUST8M-Wxcmkc-1" vertex="1">
          <mxGeometry x="180" y="40" width="120" height="60" as="geometry" />
        </mxCell>
        <mxCell id="hvmsJPatxfwNXYZrIwbC-14" value="" style="endArrow=classic;html=1;rounded=0;exitX=0.5;exitY=1;exitDx=0;exitDy=0;entryX=0.5;entryY=0;entryDx=0;entryDy=0;" parent="DGRR15cwUST8M-Wxcmkc-1" source="hvmsJPatxfwNXYZrIwbC-13" target="hvmsJPatxfwNXYZrIwbC-4" edge="1">
          <mxGeometry width="50" height="50" relative="1" as="geometry">
            <mxPoint x="410" y="110" as="sourcePoint" />
            <mxPoint x="410" y="130" as="targetPoint" />
          </mxGeometry>
        </mxCell>
        <mxCell id="hvmsJPatxfwNXYZrIwbC-15" value="Pointcloud_Files" style="rounded=1;whiteSpace=wrap;html=1;" parent="DGRR15cwUST8M-Wxcmkc-1" vertex="1">
          <mxGeometry x="40" y="40" width="120" height="60" as="geometry" />
        </mxCell>
        <mxCell id="hvmsJPatxfwNXYZrIwbC-16" value="" style="endArrow=classic;html=1;rounded=0;startArrow=classic;startFill=1;entryX=0.5;entryY=1;entryDx=0;entryDy=0;" parent="DGRR15cwUST8M-Wxcmkc-1" target="hvmsJPatxfwNXYZrIwbC-15" edge="1">
          <mxGeometry width="50" height="50" relative="1" as="geometry">
            <mxPoint x="100" y="120" as="sourcePoint" />
            <mxPoint x="40" y="260" as="targetPoint" />
          </mxGeometry>
        </mxCell>
        <mxCell id="hvmsJPatxfwNXYZrIwbC-17" value="" style="edgeStyle=segmentEdgeStyle;endArrow=classic;html=1;rounded=0;entryX=0.1;entryY=0;entryDx=0;entryDy=0;entryPerimeter=0;exitX=0.099;exitY=0.989;exitDx=0;exitDy=0;exitPerimeter=0;" parent="DGRR15cwUST8M-Wxcmkc-1" source="hvmsJPatxfwNXYZrIwbC-6" target="hvmsJPatxfwNXYZrIwbC-7" edge="1">
          <mxGeometry width="50" height="50" relative="1" as="geometry">
            <mxPoint x="90" y="281" as="sourcePoint" />
            <mxPoint x="330" y="250" as="targetPoint" />
            <Array as="points" />
          </mxGeometry>
        </mxCell>
        <mxCell id="hvmsJPatxfwNXYZrIwbC-18" value="Open3D" style="rounded=1;whiteSpace=wrap;html=1;fillColor=#999999;strokeColor=#314354;fontColor=#CCCCCC;" parent="DGRR15cwUST8M-Wxcmkc-1" vertex="1">
          <mxGeometry x="120" y="320" width="80" height="60" as="geometry" />
        </mxCell>
        <mxCell id="hvmsJPatxfwNXYZrIwbC-19" value="" style="edgeStyle=orthogonalEdgeStyle;rounded=0;orthogonalLoop=1;jettySize=auto;html=1;startArrow=classic;startFill=1;entryX=0.5;entryY=1;entryDx=0;entryDy=0;" parent="DGRR15cwUST8M-Wxcmkc-1" source="hvmsJPatxfwNXYZrIwbC-21" target="hvmsJPatxfwNXYZrIwbC-6" edge="1">
          <mxGeometry relative="1" as="geometry">
            <mxPoint x="240" y="300" as="targetPoint" />
          </mxGeometry>
        </mxCell>
        <mxCell id="hvmsJPatxfwNXYZrIwbC-20" style="edgeStyle=orthogonalEdgeStyle;rounded=0;orthogonalLoop=1;jettySize=auto;html=1;entryX=0.5;entryY=0;entryDx=0;entryDy=0;startArrow=classic;startFill=1;" parent="DGRR15cwUST8M-Wxcmkc-1" source="hvmsJPatxfwNXYZrIwbC-21" target="hvmsJPatxfwNXYZrIwbC-7" edge="1">
          <mxGeometry relative="1" as="geometry" />
        </mxCell>
        <mxCell id="hvmsJPatxfwNXYZrIwbC-21" value="PointNet" style="rounded=1;whiteSpace=wrap;html=1;fillColor=#999999;strokeColor=#314354;fontColor=#CCCCCC;" parent="DGRR15cwUST8M-Wxcmkc-1" vertex="1">
          <mxGeometry x="200" y="390" width="80" height="60" as="geometry" />
        </mxCell>
        <mxCell id="hvmsJPatxfwNXYZrIwbC-22" style="edgeStyle=orthogonalEdgeStyle;rounded=0;orthogonalLoop=1;jettySize=auto;html=1;entryX=0.7;entryY=1.086;entryDx=0;entryDy=0;entryPerimeter=0;startArrow=classic;startFill=1;" parent="DGRR15cwUST8M-Wxcmkc-1" source="hvmsJPatxfwNXYZrIwbC-24" target="hvmsJPatxfwNXYZrIwbC-6" edge="1">
          <mxGeometry relative="1" as="geometry" />
        </mxCell>
        <mxCell id="hvmsJPatxfwNXYZrIwbC-23" style="edgeStyle=orthogonalEdgeStyle;rounded=0;orthogonalLoop=1;jettySize=auto;html=1;entryX=0.7;entryY=0.029;entryDx=0;entryDy=0;entryPerimeter=0;startArrow=classic;startFill=1;" parent="DGRR15cwUST8M-Wxcmkc-1" source="hvmsJPatxfwNXYZrIwbC-24" target="hvmsJPatxfwNXYZrIwbC-7" edge="1">
          <mxGeometry relative="1" as="geometry" />
        </mxCell>
        <mxCell id="hvmsJPatxfwNXYZrIwbC-24" value="Filtering" style="rounded=1;whiteSpace=wrap;html=1;fillColor=#999999;strokeColor=#314354;fontColor=#CCCCCC;" parent="DGRR15cwUST8M-Wxcmkc-1" vertex="1">
          <mxGeometry x="280" y="460" width="80" height="60" as="geometry" />
        </mxCell>
        <mxCell id="hvmsJPatxfwNXYZrIwbC-25" value="" style="endArrow=classic;html=1;rounded=0;entryX=0.5;entryY=0;entryDx=0;entryDy=0;" parent="DGRR15cwUST8M-Wxcmkc-1" source="hvmsJPatxfwNXYZrIwbC-4" target="hvmsJPatxfwNXYZrIwbC-6" edge="1">
          <mxGeometry width="50" height="50" relative="1" as="geometry">
            <mxPoint x="239.76" y="180" as="sourcePoint" />
            <mxPoint x="239.76" y="200" as="targetPoint" />
          </mxGeometry>
        </mxCell>
        <mxCell id="hvmsJPatxfwNXYZrIwbC-26" style="edgeStyle=orthogonalEdgeStyle;rounded=0;orthogonalLoop=1;jettySize=auto;html=1;entryX=1;entryY=0.5;entryDx=0;entryDy=0;fontSize=24;fontColor=#FFFFFF;startArrow=classic;startFill=1;" parent="DGRR15cwUST8M-Wxcmkc-1" source="hvmsJPatxfwNXYZrIwbC-27" target="hvmsJPatxfwNXYZrIwbC-6" edge="1">
          <mxGeometry relative="1" as="geometry" />
        </mxCell>
        <mxCell id="hvmsJPatxfwNXYZrIwbC-27" value="Actions" style="rounded=1;whiteSpace=wrap;html=1;fillColor=#999999;strokeColor=#314354;fontColor=#CCCCCC;" parent="DGRR15cwUST8M-Wxcmkc-1" vertex="1">
          <mxGeometry x="480" y="320" width="80" height="60" as="geometry" />
        </mxCell>
        <mxCell id="hvmsJPatxfwNXYZrIwbC-28" value="" style="endArrow=classic;startArrow=classic;html=1;rounded=0;exitX=0.5;exitY=0;exitDx=0;exitDy=0;entryX=0.3;entryY=1.029;entryDx=0;entryDy=0;entryPerimeter=0;" parent="DGRR15cwUST8M-Wxcmkc-1" source="hvmsJPatxfwNXYZrIwbC-18" target="hvmsJPatxfwNXYZrIwbC-6" edge="1">
          <mxGeometry width="50" height="50" relative="1" as="geometry">
            <mxPoint x="310" y="420" as="sourcePoint" />
            <mxPoint x="360" y="370" as="targetPoint" />
          </mxGeometry>
        </mxCell>
        <mxCell id="hvmsJPatxfwNXYZrIwbC-29" value="" style="endArrow=classic;html=1;rounded=0;exitX=0.5;exitY=1;exitDx=0;exitDy=0;entryX=0.3;entryY=0;entryDx=0;entryDy=0;entryPerimeter=0;" parent="DGRR15cwUST8M-Wxcmkc-1" source="hvmsJPatxfwNXYZrIwbC-18" target="hvmsJPatxfwNXYZrIwbC-7" edge="1">
          <mxGeometry width="50" height="50" relative="1" as="geometry">
            <mxPoint x="310" y="420" as="sourcePoint" />
            <mxPoint x="360" y="370" as="targetPoint" />
          </mxGeometry>
        </mxCell>
        <mxCell id="hvmsJPatxfwNXYZrIwbC-30" value="1" style="shape=process;whiteSpace=wrap;html=1;backgroundOutline=1;fontSize=24;fontColor=#FFFFFF;fillColor=#66B2FF;gradientColor=none;strokeColor=#FFFFFF;" parent="DGRR15cwUST8M-Wxcmkc-1" vertex="1">
          <mxGeometry x="20" y="760" width="120" height="60" as="geometry" />
        </mxCell>
        <mxCell id="hvmsJPatxfwNXYZrIwbC-31" value="2" style="shape=process;whiteSpace=wrap;html=1;backgroundOutline=1;fontSize=24;fontColor=#FFFFFF;fillColor=#66B2FF;gradientColor=none;strokeColor=#FFFFFF;" parent="DGRR15cwUST8M-Wxcmkc-1" vertex="1">
          <mxGeometry x="20" y="820" width="120" height="60" as="geometry" />
        </mxCell>
        <mxCell id="hvmsJPatxfwNXYZrIwbC-32" value="&lt;div&gt;ROSBAG&lt;br&gt;&lt;/div&gt;" style="shape=process;whiteSpace=wrap;html=1;backgroundOutline=1;fontSize=24;fontColor=#FFFFFF;fillColor=#66B2FF;gradientColor=none;strokeColor=#FFFFFF;" parent="DGRR15cwUST8M-Wxcmkc-1" vertex="1">
          <mxGeometry x="20" y="700" width="120" height="60" as="geometry" />
        </mxCell>
        <mxCell id="hvmsJPatxfwNXYZrIwbC-33" value="Opena&amp;nbsp; rosbag" style="rounded=0;whiteSpace=wrap;html=1;fontSize=18;fontColor=#FFFFFF;fillColor=#A1D6FF;gradientColor=none;strokeColor=#FFFFFF;" parent="DGRR15cwUST8M-Wxcmkc-1" vertex="1">
          <mxGeometry x="140" y="760" width="360" height="60" as="geometry" />
        </mxCell>
        <mxCell id="hvmsJPatxfwNXYZrIwbC-34" value="&lt;div style=&quot;font-size: 12px&quot; align=&quot;left&quot;&gt;&lt;ol&gt;&lt;li&gt;TODO&lt;br&gt;&lt;/li&gt;&lt;/ol&gt;&lt;/div&gt;" style="rounded=0;whiteSpace=wrap;html=1;fontSize=18;fontColor=#FFFFFF;fillColor=#A1D6FF;gradientColor=none;strokeColor=#FFFFFF;align=left;" parent="DGRR15cwUST8M-Wxcmkc-1" vertex="1">
          <mxGeometry x="500" y="760" width="300" height="60" as="geometry" />
        </mxCell>
        <mxCell id="hvmsJPatxfwNXYZrIwbC-35" value="&lt;div style=&quot;font-size: 36px&quot; align=&quot;left&quot;&gt;&lt;b&gt;&lt;font style=&quot;font-size: 36px&quot;&gt;1.4&lt;/font&gt;&lt;/b&gt;&lt;/div&gt;" style="rounded=1;whiteSpace=wrap;html=1;strokeColor=none;align=left;" parent="DGRR15cwUST8M-Wxcmkc-1" vertex="1">
          <mxGeometry x="20" y="640" width="780" height="50" as="geometry" />
        </mxCell>
        <mxCell id="hvmsJPatxfwNXYZrIwbC-36" value="&lt;div align=&quot;center&quot;&gt;Description&lt;/div&gt;" style="rounded=1;whiteSpace=wrap;html=1;strokeColor=none;align=center;" parent="DGRR15cwUST8M-Wxcmkc-1" vertex="1">
          <mxGeometry x="140" y="680" width="360" height="20" as="geometry" />
        </mxCell>
        <mxCell id="hvmsJPatxfwNXYZrIwbC-37" value="Tasks" style="rounded=1;whiteSpace=wrap;html=1;strokeColor=none;align=center;" parent="DGRR15cwUST8M-Wxcmkc-1" vertex="1">
          <mxGeometry x="500" y="680" width="300" height="20" as="geometry" />
        </mxCell>
        <mxCell id="hvmsJPatxfwNXYZrIwbC-38" value="Record a rosbag" style="rounded=0;whiteSpace=wrap;html=1;fontSize=18;fontColor=#FFFFFF;fillColor=#A1D6FF;gradientColor=none;strokeColor=#FFFFFF;" parent="DGRR15cwUST8M-Wxcmkc-1" vertex="1">
          <mxGeometry x="140" y="820" width="360" height="60" as="geometry" />
        </mxCell>
        <mxCell id="hvmsJPatxfwNXYZrIwbC-39" value="&lt;div style=&quot;font-size: 12px&quot; align=&quot;left&quot;&gt;&lt;ol&gt;&lt;li&gt;TODO&lt;br&gt;&lt;/li&gt;&lt;/ol&gt;&lt;/div&gt;" style="rounded=0;whiteSpace=wrap;html=1;fontSize=18;fontColor=#FFFFFF;fillColor=#A1D6FF;gradientColor=none;strokeColor=#FFFFFF;align=left;" parent="DGRR15cwUST8M-Wxcmkc-1" vertex="1">
          <mxGeometry x="500" y="820" width="300" height="60" as="geometry" />
        </mxCell>
        <mxCell id="DX-YHT2cHhJSpUWptf3h-0" value="&lt;font style=&quot;font-size: 12px&quot;&gt;Understand how to use ROS Bags to both record and replay data.&lt;br&gt;&lt;/font&gt;" style="rounded=0;whiteSpace=wrap;html=1;fontSize=18;fontColor=#FFFFFF;fillColor=#66B2FF;gradientColor=none;strokeColor=#FFFFFF;" parent="DGRR15cwUST8M-Wxcmkc-1" vertex="1">
          <mxGeometry x="140" y="700" width="360" height="60" as="geometry" />
        </mxCell>
        <mxCell id="DX-YHT2cHhJSpUWptf3h-1" value="&lt;div style=&quot;font-size: 12px&quot; align=&quot;left&quot;&gt;&lt;ol&gt;&lt;li&gt;&lt;font style=&quot;font-size: 12px&quot;&gt;TODO&lt;br&gt;&lt;/font&gt;&lt;/li&gt;&lt;/ol&gt;&lt;/div&gt;" style="rounded=0;whiteSpace=wrap;html=1;fontSize=18;fontColor=#FFFFFF;fillColor=#66B2FF;gradientColor=none;strokeColor=#FFFFFF;align=left;" parent="DGRR15cwUST8M-Wxcmkc-1" vertex="1">
          <mxGeometry x="500" y="700" width="300" height="60" as="geometry" />
        </mxCell>
        <mxCell id="DX-YHT2cHhJSpUWptf3h-2" value="&lt;font style=&quot;font-size: 12px&quot;&gt;Visualise data in RVIZ&lt;br&gt;&lt;/font&gt;" style="rounded=0;whiteSpace=wrap;html=1;fontSize=18;fontColor=#FFFFFF;fillColor=#66B2FF;gradientColor=none;strokeColor=#FFFFFF;" parent="DGRR15cwUST8M-Wxcmkc-1" vertex="1">
          <mxGeometry x="140" y="940" width="360" height="60" as="geometry" />
        </mxCell>
        <mxCell id="DX-YHT2cHhJSpUWptf3h-3" value="RVIZ" style="shape=process;whiteSpace=wrap;html=1;backgroundOutline=1;fontSize=24;fontColor=#FFFFFF;fillColor=#66B2FF;gradientColor=none;strokeColor=#FFFFFF;" parent="DGRR15cwUST8M-Wxcmkc-1" vertex="1">
          <mxGeometry x="20" y="940" width="120" height="60" as="geometry" />
        </mxCell>
        <mxCell id="DX-YHT2cHhJSpUWptf3h-4" value="&lt;div style=&quot;font-size: 12px&quot; align=&quot;left&quot;&gt;&lt;ol&gt;&lt;li&gt;&lt;font style=&quot;font-size: 12px&quot;&gt;TODO&lt;br&gt;&lt;/font&gt;&lt;/li&gt;&lt;/ol&gt;&lt;/div&gt;" style="rounded=0;whiteSpace=wrap;html=1;fontSize=18;fontColor=#FFFFFF;fillColor=#66B2FF;gradientColor=none;strokeColor=#FFFFFF;align=left;" parent="DGRR15cwUST8M-Wxcmkc-1" vertex="1">
          <mxGeometry x="500" y="940" width="300" height="60" as="geometry" />
        </mxCell>
        <mxCell id="DX-YHT2cHhJSpUWptf3h-5" value="1" style="shape=process;whiteSpace=wrap;html=1;backgroundOutline=1;fontSize=24;fontColor=#FFFFFF;fillColor=#66B2FF;gradientColor=none;strokeColor=#FFFFFF;" parent="DGRR15cwUST8M-Wxcmkc-1" vertex="1">
          <mxGeometry x="20" y="1000" width="120" height="60" as="geometry" />
        </mxCell>
        <mxCell id="DX-YHT2cHhJSpUWptf3h-6" value="2" style="shape=process;whiteSpace=wrap;html=1;backgroundOutline=1;fontSize=24;fontColor=#FFFFFF;fillColor=#66B2FF;gradientColor=none;strokeColor=#FFFFFF;" parent="DGRR15cwUST8M-Wxcmkc-1" vertex="1">
          <mxGeometry x="20" y="1060" width="120" height="60" as="geometry" />
        </mxCell>
        <mxCell id="DX-YHT2cHhJSpUWptf3h-7" value="Familiarise with RVIZ" style="rounded=0;whiteSpace=wrap;html=1;fontSize=18;fontColor=#FFFFFF;fillColor=#A1D6FF;gradientColor=none;strokeColor=#FFFFFF;" parent="DGRR15cwUST8M-Wxcmkc-1" vertex="1">
          <mxGeometry x="140" y="1000" width="360" height="60" as="geometry" />
        </mxCell>
        <mxCell id="DX-YHT2cHhJSpUWptf3h-8" value="&lt;div style=&quot;font-size: 12px&quot; align=&quot;left&quot;&gt;&lt;ol&gt;&lt;li&gt;TODO&lt;br&gt;&lt;/li&gt;&lt;/ol&gt;&lt;/div&gt;" style="rounded=0;whiteSpace=wrap;html=1;fontSize=18;fontColor=#FFFFFF;fillColor=#A1D6FF;gradientColor=none;strokeColor=#FFFFFF;align=left;" parent="DGRR15cwUST8M-Wxcmkc-1" vertex="1">
          <mxGeometry x="500" y="1000" width="300" height="60" as="geometry" />
        </mxCell>
        <mxCell id="DX-YHT2cHhJSpUWptf3h-9" value="Visualise your Point CLoud" style="rounded=0;whiteSpace=wrap;html=1;fontSize=18;fontColor=#FFFFFF;fillColor=#A1D6FF;gradientColor=none;strokeColor=#FFFFFF;" parent="DGRR15cwUST8M-Wxcmkc-1" vertex="1">
          <mxGeometry x="140" y="1060" width="360" height="60" as="geometry" />
        </mxCell>
        <mxCell id="DX-YHT2cHhJSpUWptf3h-10" value="&lt;div style=&quot;font-size: 12px&quot; align=&quot;left&quot;&gt;&lt;ol&gt;&lt;li&gt;TODO&lt;br&gt;&lt;/li&gt;&lt;/ol&gt;&lt;/div&gt;" style="rounded=0;whiteSpace=wrap;html=1;fontSize=18;fontColor=#FFFFFF;fillColor=#A1D6FF;gradientColor=none;strokeColor=#FFFFFF;align=left;" parent="DGRR15cwUST8M-Wxcmkc-1" vertex="1">
          <mxGeometry x="500" y="1060" width="300" height="60" as="geometry" />
        </mxCell>
        <mxCell id="Yq-CQl0yH6AKpARvc8Pw-0" value="3" style="shape=process;whiteSpace=wrap;html=1;backgroundOutline=1;fontSize=24;fontColor=#FFFFFF;fillColor=#66B2FF;gradientColor=none;strokeColor=#FFFFFF;" vertex="1" parent="DGRR15cwUST8M-Wxcmkc-1">
          <mxGeometry x="20" y="880" width="120" height="60" as="geometry" />
        </mxCell>
        <mxCell id="Yq-CQl0yH6AKpARvc8Pw-1" value="Convert a Pointcloud to a rosbag" style="rounded=0;whiteSpace=wrap;html=1;fontSize=18;fontColor=#FFFFFF;fillColor=#A1D6FF;gradientColor=none;strokeColor=#FFFFFF;" vertex="1" parent="DGRR15cwUST8M-Wxcmkc-1">
          <mxGeometry x="140" y="880" width="360" height="60" as="geometry" />
        </mxCell>
        <mxCell id="Yq-CQl0yH6AKpARvc8Pw-2" value="&lt;div style=&quot;font-size: 12px&quot; align=&quot;left&quot;&gt;&lt;ol&gt;&lt;li&gt;TODO&lt;br&gt;&lt;/li&gt;&lt;/ol&gt;&lt;/div&gt;" style="rounded=0;whiteSpace=wrap;html=1;fontSize=18;fontColor=#FFFFFF;fillColor=#A1D6FF;gradientColor=none;strokeColor=#FFFFFF;align=left;" vertex="1" parent="DGRR15cwUST8M-Wxcmkc-1">
          <mxGeometry x="500" y="880" width="300" height="60" as="geometry" />
        </mxCell>
      </root>
    </mxGraphModel>
  </diagram>
  <diagram id="Flcan-7KDrgsw43nqLEb" name="1.5_Gazebo">
    <mxGraphModel dx="1360" dy="834" grid="1" gridSize="10" guides="1" tooltips="1" connect="1" arrows="1" fold="1" page="1" pageScale="1" pageWidth="827" pageHeight="1169" math="0" shadow="0">
      <root>
        <mxCell id="o8z9ErRJCHIPHsEvGA98-0" />
        <mxCell id="o8z9ErRJCHIPHsEvGA98-1" parent="o8z9ErRJCHIPHsEvGA98-0" />
        <mxCell id="TeRaVZZHhjJ2PINX9UlU-1" value="&lt;div style=&quot;font-size: 24px&quot; align=&quot;right&quot;&gt;&lt;font style=&quot;font-size: 24px&quot; color=&quot;#FFFFFF&quot;&gt;Framework&amp;nbsp; &lt;br&gt;&lt;/font&gt;&lt;/div&gt;" style="rounded=1;whiteSpace=wrap;html=1;fillColor=#DBBEBB;strokeColor=none;arcSize=0;align=right;" parent="o8z9ErRJCHIPHsEvGA98-1" vertex="1">
          <mxGeometry x="20" y="200" width="780" height="110" as="geometry" />
        </mxCell>
        <mxCell id="rEE6VkpOKMM6cc2qPyEe-0" value="LINUX&amp;nbsp;&amp;nbsp;" style="rounded=1;whiteSpace=wrap;html=1;align=right;" vertex="1" parent="o8z9ErRJCHIPHsEvGA98-1">
          <mxGeometry x="30" y="230" width="580" height="60" as="geometry" />
        </mxCell>
        <mxCell id="TeRaVZZHhjJ2PINX9UlU-0" value="&lt;div style=&quot;font-size: 24px&quot; align=&quot;right&quot;&gt;&lt;font style=&quot;font-size: 24px&quot; color=&quot;#FFFFFF&quot;&gt;Process&amp;nbsp; &lt;br&gt;&lt;/font&gt;&lt;/div&gt;" style="rounded=1;whiteSpace=wrap;html=1;fillColor=#FF99CC;strokeColor=none;arcSize=0;align=right;gradientColor=none;" parent="o8z9ErRJCHIPHsEvGA98-1" vertex="1">
          <mxGeometry x="20" y="310" width="780" height="230" as="geometry" />
        </mxCell>
        <mxCell id="TeRaVZZHhjJ2PINX9UlU-2" value="&lt;div style=&quot;font-size: 24px&quot; align=&quot;right&quot;&gt;&lt;font style=&quot;font-size: 24px&quot;&gt;Visualise&amp;nbsp; &lt;br&gt;&lt;/font&gt;&lt;/div&gt;" style="rounded=1;whiteSpace=wrap;html=1;fillColor=#CC99FF;strokeColor=none;arcSize=0;align=right;fontColor=#ffffff;" parent="o8z9ErRJCHIPHsEvGA98-1" vertex="1">
          <mxGeometry x="20" y="540" width="780" height="80" as="geometry" />
        </mxCell>
        <mxCell id="TeRaVZZHhjJ2PINX9UlU-3" value="&lt;div style=&quot;font-size: 24px&quot; align=&quot;right&quot;&gt;&lt;font style=&quot;font-size: 24px&quot; color=&quot;#FFFFFF&quot;&gt;Input PointCloud Data&amp;nbsp; &lt;br&gt;&lt;/font&gt;&lt;/div&gt;" style="rounded=1;whiteSpace=wrap;html=1;fillColor=#FFCC99;strokeColor=none;arcSize=0;align=right;" parent="o8z9ErRJCHIPHsEvGA98-1" vertex="1">
          <mxGeometry x="20" y="20" width="780" height="180" as="geometry" />
        </mxCell>
        <mxCell id="TeRaVZZHhjJ2PINX9UlU-4" value="Gazebo" style="rounded=1;whiteSpace=wrap;html=1;" parent="o8z9ErRJCHIPHsEvGA98-1" vertex="1">
          <mxGeometry x="180" y="120" width="120" height="60" as="geometry" />
        </mxCell>
        <mxCell id="TeRaVZZHhjJ2PINX9UlU-5" value="LiDAR_Sensor" style="rounded=1;whiteSpace=wrap;html=1;fillColor=#999999;strokeColor=#314354;fontColor=#CCCCCC;" parent="o8z9ErRJCHIPHsEvGA98-1" vertex="1">
          <mxGeometry x="320" y="120" width="120" height="60" as="geometry" />
        </mxCell>
        <mxCell id="TeRaVZZHhjJ2PINX9UlU-6" value="ROS" style="rounded=1;whiteSpace=wrap;html=1;fillColor=#FFFFFF;strokeColor=#314354;fontColor=#000000;" parent="o8z9ErRJCHIPHsEvGA98-1" vertex="1">
          <mxGeometry x="40" y="240" width="400" height="40" as="geometry" />
        </mxCell>
        <mxCell id="TeRaVZZHhjJ2PINX9UlU-7" value="RVIZ" style="rounded=1;whiteSpace=wrap;html=1;" parent="o8z9ErRJCHIPHsEvGA98-1" vertex="1">
          <mxGeometry x="40" y="560" width="400" height="40" as="geometry" />
        </mxCell>
        <mxCell id="TeRaVZZHhjJ2PINX9UlU-8" value="ROS_BAG" style="rounded=1;whiteSpace=wrap;html=1;" parent="o8z9ErRJCHIPHsEvGA98-1" vertex="1">
          <mxGeometry x="40" y="120" width="120" height="60" as="geometry" />
        </mxCell>
        <mxCell id="TeRaVZZHhjJ2PINX9UlU-9" value="" style="edgeStyle=segmentEdgeStyle;endArrow=classic;html=1;rounded=0;exitX=0.5;exitY=1;exitDx=0;exitDy=0;entryX=0.151;entryY=0.015;entryDx=0;entryDy=0;startArrow=classic;startFill=1;entryPerimeter=0;" parent="o8z9ErRJCHIPHsEvGA98-1" source="TeRaVZZHhjJ2PINX9UlU-8" target="TeRaVZZHhjJ2PINX9UlU-6" edge="1">
          <mxGeometry width="50" height="50" relative="1" as="geometry">
            <mxPoint x="410" y="260" as="sourcePoint" />
            <mxPoint x="460" y="210" as="targetPoint" />
            <Array as="points">
              <mxPoint x="100" y="241" />
            </Array>
          </mxGeometry>
        </mxCell>
        <mxCell id="TeRaVZZHhjJ2PINX9UlU-10" value="" style="edgeStyle=segmentEdgeStyle;endArrow=classic;html=1;rounded=0;exitX=0.5;exitY=1;exitDx=0;exitDy=0;entryX=0.85;entryY=0.014;entryDx=0;entryDy=0;entryPerimeter=0;" parent="o8z9ErRJCHIPHsEvGA98-1" source="TeRaVZZHhjJ2PINX9UlU-5" target="TeRaVZZHhjJ2PINX9UlU-6" edge="1">
          <mxGeometry width="50" height="50" relative="1" as="geometry">
            <mxPoint x="310" y="160" as="sourcePoint" />
            <mxPoint x="330" y="250" as="targetPoint" />
            <Array as="points">
              <mxPoint x="380" y="200" />
              <mxPoint x="380" y="200" />
            </Array>
          </mxGeometry>
        </mxCell>
        <mxCell id="TeRaVZZHhjJ2PINX9UlU-11" value="Real_World" style="rounded=1;whiteSpace=wrap;html=1;fillColor=#999999;strokeColor=#314354;fontColor=#CCCCCC;" parent="o8z9ErRJCHIPHsEvGA98-1" vertex="1">
          <mxGeometry x="320" y="40" width="120" height="60" as="geometry" />
        </mxCell>
        <mxCell id="TeRaVZZHhjJ2PINX9UlU-12" value="" style="endArrow=classic;html=1;rounded=0;exitX=0.5;exitY=1;exitDx=0;exitDy=0;entryX=0.5;entryY=0;entryDx=0;entryDy=0;" parent="o8z9ErRJCHIPHsEvGA98-1" source="TeRaVZZHhjJ2PINX9UlU-11" target="TeRaVZZHhjJ2PINX9UlU-5" edge="1">
          <mxGeometry width="50" height="50" relative="1" as="geometry">
            <mxPoint x="390" y="260" as="sourcePoint" />
            <mxPoint x="440" y="210" as="targetPoint" />
          </mxGeometry>
        </mxCell>
        <mxCell id="TeRaVZZHhjJ2PINX9UlU-13" value="Simulated_World" style="rounded=1;whiteSpace=wrap;html=1;" parent="o8z9ErRJCHIPHsEvGA98-1" vertex="1">
          <mxGeometry x="180" y="40" width="120" height="60" as="geometry" />
        </mxCell>
        <mxCell id="TeRaVZZHhjJ2PINX9UlU-14" value="" style="endArrow=classic;html=1;rounded=0;exitX=0.5;exitY=1;exitDx=0;exitDy=0;entryX=0.5;entryY=0;entryDx=0;entryDy=0;" parent="o8z9ErRJCHIPHsEvGA98-1" source="TeRaVZZHhjJ2PINX9UlU-13" target="TeRaVZZHhjJ2PINX9UlU-4" edge="1">
          <mxGeometry width="50" height="50" relative="1" as="geometry">
            <mxPoint x="410" y="110" as="sourcePoint" />
            <mxPoint x="410" y="130" as="targetPoint" />
          </mxGeometry>
        </mxCell>
        <mxCell id="TeRaVZZHhjJ2PINX9UlU-15" value="Pointcloud_Files" style="rounded=1;whiteSpace=wrap;html=1;" parent="o8z9ErRJCHIPHsEvGA98-1" vertex="1">
          <mxGeometry x="40" y="40" width="120" height="60" as="geometry" />
        </mxCell>
        <mxCell id="TeRaVZZHhjJ2PINX9UlU-16" value="" style="endArrow=classic;html=1;rounded=0;startArrow=classic;startFill=1;entryX=0.5;entryY=1;entryDx=0;entryDy=0;" parent="o8z9ErRJCHIPHsEvGA98-1" target="TeRaVZZHhjJ2PINX9UlU-15" edge="1">
          <mxGeometry width="50" height="50" relative="1" as="geometry">
            <mxPoint x="100" y="120" as="sourcePoint" />
            <mxPoint x="40" y="260" as="targetPoint" />
          </mxGeometry>
        </mxCell>
        <mxCell id="TeRaVZZHhjJ2PINX9UlU-17" value="" style="edgeStyle=segmentEdgeStyle;endArrow=classic;html=1;rounded=0;entryX=0.1;entryY=0;entryDx=0;entryDy=0;entryPerimeter=0;exitX=0.099;exitY=0.989;exitDx=0;exitDy=0;exitPerimeter=0;" parent="o8z9ErRJCHIPHsEvGA98-1" source="TeRaVZZHhjJ2PINX9UlU-6" target="TeRaVZZHhjJ2PINX9UlU-7" edge="1">
          <mxGeometry width="50" height="50" relative="1" as="geometry">
            <mxPoint x="90" y="281" as="sourcePoint" />
            <mxPoint x="330" y="250" as="targetPoint" />
            <Array as="points" />
          </mxGeometry>
        </mxCell>
        <mxCell id="TeRaVZZHhjJ2PINX9UlU-18" value="Open3D" style="rounded=1;whiteSpace=wrap;html=1;fillColor=#999999;strokeColor=#314354;fontColor=#CCCCCC;" parent="o8z9ErRJCHIPHsEvGA98-1" vertex="1">
          <mxGeometry x="120" y="320" width="80" height="60" as="geometry" />
        </mxCell>
        <mxCell id="TeRaVZZHhjJ2PINX9UlU-19" value="" style="edgeStyle=orthogonalEdgeStyle;rounded=0;orthogonalLoop=1;jettySize=auto;html=1;startArrow=classic;startFill=1;entryX=0.5;entryY=1;entryDx=0;entryDy=0;" parent="o8z9ErRJCHIPHsEvGA98-1" source="TeRaVZZHhjJ2PINX9UlU-21" target="TeRaVZZHhjJ2PINX9UlU-6" edge="1">
          <mxGeometry relative="1" as="geometry">
            <mxPoint x="240" y="300" as="targetPoint" />
          </mxGeometry>
        </mxCell>
        <mxCell id="TeRaVZZHhjJ2PINX9UlU-20" style="edgeStyle=orthogonalEdgeStyle;rounded=0;orthogonalLoop=1;jettySize=auto;html=1;entryX=0.5;entryY=0;entryDx=0;entryDy=0;startArrow=classic;startFill=1;" parent="o8z9ErRJCHIPHsEvGA98-1" source="TeRaVZZHhjJ2PINX9UlU-21" target="TeRaVZZHhjJ2PINX9UlU-7" edge="1">
          <mxGeometry relative="1" as="geometry" />
        </mxCell>
        <mxCell id="TeRaVZZHhjJ2PINX9UlU-21" value="PointNet" style="rounded=1;whiteSpace=wrap;html=1;fillColor=#999999;strokeColor=#314354;fontColor=#CCCCCC;" parent="o8z9ErRJCHIPHsEvGA98-1" vertex="1">
          <mxGeometry x="200" y="390" width="80" height="60" as="geometry" />
        </mxCell>
        <mxCell id="TeRaVZZHhjJ2PINX9UlU-22" style="edgeStyle=orthogonalEdgeStyle;rounded=0;orthogonalLoop=1;jettySize=auto;html=1;entryX=0.7;entryY=1.086;entryDx=0;entryDy=0;entryPerimeter=0;startArrow=classic;startFill=1;" parent="o8z9ErRJCHIPHsEvGA98-1" source="TeRaVZZHhjJ2PINX9UlU-24" target="TeRaVZZHhjJ2PINX9UlU-6" edge="1">
          <mxGeometry relative="1" as="geometry" />
        </mxCell>
        <mxCell id="TeRaVZZHhjJ2PINX9UlU-23" style="edgeStyle=orthogonalEdgeStyle;rounded=0;orthogonalLoop=1;jettySize=auto;html=1;entryX=0.7;entryY=0.029;entryDx=0;entryDy=0;entryPerimeter=0;startArrow=classic;startFill=1;" parent="o8z9ErRJCHIPHsEvGA98-1" source="TeRaVZZHhjJ2PINX9UlU-24" target="TeRaVZZHhjJ2PINX9UlU-7" edge="1">
          <mxGeometry relative="1" as="geometry" />
        </mxCell>
        <mxCell id="TeRaVZZHhjJ2PINX9UlU-24" value="Filtering" style="rounded=1;whiteSpace=wrap;html=1;fillColor=#999999;strokeColor=#314354;fontColor=#CCCCCC;" parent="o8z9ErRJCHIPHsEvGA98-1" vertex="1">
          <mxGeometry x="280" y="460" width="80" height="60" as="geometry" />
        </mxCell>
        <mxCell id="TeRaVZZHhjJ2PINX9UlU-25" value="" style="endArrow=classic;html=1;rounded=0;entryX=0.5;entryY=0;entryDx=0;entryDy=0;" parent="o8z9ErRJCHIPHsEvGA98-1" source="TeRaVZZHhjJ2PINX9UlU-4" target="TeRaVZZHhjJ2PINX9UlU-6" edge="1">
          <mxGeometry width="50" height="50" relative="1" as="geometry">
            <mxPoint x="239.76" y="180" as="sourcePoint" />
            <mxPoint x="239.76" y="200" as="targetPoint" />
          </mxGeometry>
        </mxCell>
        <mxCell id="TeRaVZZHhjJ2PINX9UlU-26" style="edgeStyle=orthogonalEdgeStyle;rounded=0;orthogonalLoop=1;jettySize=auto;html=1;entryX=1;entryY=0.5;entryDx=0;entryDy=0;fontSize=24;fontColor=#FFFFFF;startArrow=classic;startFill=1;" parent="o8z9ErRJCHIPHsEvGA98-1" source="TeRaVZZHhjJ2PINX9UlU-27" target="TeRaVZZHhjJ2PINX9UlU-6" edge="1">
          <mxGeometry relative="1" as="geometry" />
        </mxCell>
        <mxCell id="TeRaVZZHhjJ2PINX9UlU-27" value="Actions" style="rounded=1;whiteSpace=wrap;html=1;fillColor=#999999;strokeColor=#314354;fontColor=#CCCCCC;" parent="o8z9ErRJCHIPHsEvGA98-1" vertex="1">
          <mxGeometry x="480" y="320" width="80" height="60" as="geometry" />
        </mxCell>
        <mxCell id="TeRaVZZHhjJ2PINX9UlU-28" value="" style="endArrow=classic;startArrow=classic;html=1;rounded=0;exitX=0.5;exitY=0;exitDx=0;exitDy=0;entryX=0.3;entryY=1.029;entryDx=0;entryDy=0;entryPerimeter=0;" parent="o8z9ErRJCHIPHsEvGA98-1" source="TeRaVZZHhjJ2PINX9UlU-18" target="TeRaVZZHhjJ2PINX9UlU-6" edge="1">
          <mxGeometry width="50" height="50" relative="1" as="geometry">
            <mxPoint x="310" y="420" as="sourcePoint" />
            <mxPoint x="360" y="370" as="targetPoint" />
          </mxGeometry>
        </mxCell>
        <mxCell id="TeRaVZZHhjJ2PINX9UlU-29" value="" style="endArrow=classic;html=1;rounded=0;exitX=0.5;exitY=1;exitDx=0;exitDy=0;entryX=0.3;entryY=0;entryDx=0;entryDy=0;entryPerimeter=0;" parent="o8z9ErRJCHIPHsEvGA98-1" source="TeRaVZZHhjJ2PINX9UlU-18" target="TeRaVZZHhjJ2PINX9UlU-7" edge="1">
          <mxGeometry width="50" height="50" relative="1" as="geometry">
            <mxPoint x="310" y="420" as="sourcePoint" />
            <mxPoint x="360" y="370" as="targetPoint" />
          </mxGeometry>
        </mxCell>
        <mxCell id="TeRaVZZHhjJ2PINX9UlU-30" value="1" style="shape=process;whiteSpace=wrap;html=1;backgroundOutline=1;fontSize=24;fontColor=#FFFFFF;fillColor=#66B2FF;gradientColor=none;strokeColor=#FFFFFF;" parent="o8z9ErRJCHIPHsEvGA98-1" vertex="1">
          <mxGeometry x="20" y="760" width="120" height="60" as="geometry" />
        </mxCell>
        <mxCell id="TeRaVZZHhjJ2PINX9UlU-31" value="2" style="shape=process;whiteSpace=wrap;html=1;backgroundOutline=1;fontSize=24;fontColor=#FFFFFF;fillColor=#66B2FF;gradientColor=none;strokeColor=#FFFFFF;" parent="o8z9ErRJCHIPHsEvGA98-1" vertex="1">
          <mxGeometry x="20" y="820" width="120" height="60" as="geometry" />
        </mxCell>
        <mxCell id="TeRaVZZHhjJ2PINX9UlU-32" value="&lt;div&gt;GAZEBO&lt;br&gt;&lt;/div&gt;" style="shape=process;whiteSpace=wrap;html=1;backgroundOutline=1;fontSize=24;fontColor=#FFFFFF;fillColor=#66B2FF;gradientColor=none;strokeColor=#FFFFFF;" parent="o8z9ErRJCHIPHsEvGA98-1" vertex="1">
          <mxGeometry x="20" y="700" width="120" height="60" as="geometry" />
        </mxCell>
        <mxCell id="TeRaVZZHhjJ2PINX9UlU-33" value="Run a simulated world in Gazebo" style="rounded=0;whiteSpace=wrap;html=1;fontSize=18;fontColor=#FFFFFF;fillColor=#A1D6FF;gradientColor=none;strokeColor=#FFFFFF;" parent="o8z9ErRJCHIPHsEvGA98-1" vertex="1">
          <mxGeometry x="140" y="760" width="360" height="60" as="geometry" />
        </mxCell>
        <mxCell id="TeRaVZZHhjJ2PINX9UlU-34" value="&lt;div style=&quot;font-size: 12px&quot; align=&quot;left&quot;&gt;&lt;ol&gt;&lt;li&gt;TODO&lt;br&gt;&lt;/li&gt;&lt;/ol&gt;&lt;/div&gt;" style="rounded=0;whiteSpace=wrap;html=1;fontSize=18;fontColor=#FFFFFF;fillColor=#A1D6FF;gradientColor=none;strokeColor=#FFFFFF;align=left;" parent="o8z9ErRJCHIPHsEvGA98-1" vertex="1">
          <mxGeometry x="500" y="760" width="300" height="60" as="geometry" />
        </mxCell>
        <mxCell id="TeRaVZZHhjJ2PINX9UlU-35" value="&lt;div style=&quot;font-size: 36px&quot; align=&quot;left&quot;&gt;&lt;b&gt;&lt;font style=&quot;font-size: 36px&quot;&gt;1.4&lt;/font&gt;&lt;/b&gt;&lt;/div&gt;" style="rounded=1;whiteSpace=wrap;html=1;strokeColor=none;align=left;" parent="o8z9ErRJCHIPHsEvGA98-1" vertex="1">
          <mxGeometry x="20" y="640" width="780" height="50" as="geometry" />
        </mxCell>
        <mxCell id="TeRaVZZHhjJ2PINX9UlU-36" value="&lt;div align=&quot;center&quot;&gt;Description&lt;/div&gt;" style="rounded=1;whiteSpace=wrap;html=1;strokeColor=none;align=center;" parent="o8z9ErRJCHIPHsEvGA98-1" vertex="1">
          <mxGeometry x="140" y="680" width="360" height="20" as="geometry" />
        </mxCell>
        <mxCell id="TeRaVZZHhjJ2PINX9UlU-37" value="Tasks" style="rounded=1;whiteSpace=wrap;html=1;strokeColor=none;align=center;" parent="o8z9ErRJCHIPHsEvGA98-1" vertex="1">
          <mxGeometry x="500" y="680" width="300" height="20" as="geometry" />
        </mxCell>
        <mxCell id="TeRaVZZHhjJ2PINX9UlU-38" value="Visualise a pointcloud in Gazebo" style="rounded=0;whiteSpace=wrap;html=1;fontSize=18;fontColor=#FFFFFF;fillColor=#A1D6FF;gradientColor=none;strokeColor=#FFFFFF;" parent="o8z9ErRJCHIPHsEvGA98-1" vertex="1">
          <mxGeometry x="140" y="820" width="360" height="60" as="geometry" />
        </mxCell>
        <mxCell id="TeRaVZZHhjJ2PINX9UlU-39" value="&lt;div style=&quot;font-size: 12px&quot; align=&quot;left&quot;&gt;&lt;ol&gt;&lt;li&gt;TODO&lt;br&gt;&lt;/li&gt;&lt;/ol&gt;&lt;/div&gt;" style="rounded=0;whiteSpace=wrap;html=1;fontSize=18;fontColor=#FFFFFF;fillColor=#A1D6FF;gradientColor=none;strokeColor=#FFFFFF;align=left;" parent="o8z9ErRJCHIPHsEvGA98-1" vertex="1">
          <mxGeometry x="500" y="820" width="300" height="60" as="geometry" />
        </mxCell>
        <mxCell id="TeRaVZZHhjJ2PINX9UlU-40" value="&lt;font style=&quot;font-size: 12px&quot;&gt;Understand how to use ROS Bags to both record and replay data.&lt;br&gt;&lt;/font&gt;" style="rounded=0;whiteSpace=wrap;html=1;fontSize=18;fontColor=#FFFFFF;fillColor=#66B2FF;gradientColor=none;strokeColor=#FFFFFF;" parent="o8z9ErRJCHIPHsEvGA98-1" vertex="1">
          <mxGeometry x="140" y="700" width="360" height="60" as="geometry" />
        </mxCell>
        <mxCell id="TeRaVZZHhjJ2PINX9UlU-41" value="&lt;div style=&quot;font-size: 12px&quot; align=&quot;left&quot;&gt;&lt;ol&gt;&lt;li&gt;&lt;font style=&quot;font-size: 12px&quot;&gt;TODO&lt;br&gt;&lt;/font&gt;&lt;/li&gt;&lt;/ol&gt;&lt;/div&gt;" style="rounded=0;whiteSpace=wrap;html=1;fontSize=18;fontColor=#FFFFFF;fillColor=#66B2FF;gradientColor=none;strokeColor=#FFFFFF;align=left;" parent="o8z9ErRJCHIPHsEvGA98-1" vertex="1">
          <mxGeometry x="500" y="700" width="300" height="60" as="geometry" />
        </mxCell>
        <mxCell id="TYe_E1v-t82sR9Y8aGbn-0" value="&lt;font style=&quot;font-size: 12px&quot;&gt;Understand what Gazebo is and how we can use it. How to interface ROS with Gazebo. How we model a LiDAR in Gazebo.&lt;/font&gt;" style="rounded=0;whiteSpace=wrap;html=1;fontSize=18;fontColor=#FFFFFF;fillColor=#66B2FF;gradientColor=none;strokeColor=#FFFFFF;" vertex="1" parent="o8z9ErRJCHIPHsEvGA98-1">
          <mxGeometry x="140" y="700" width="360" height="60" as="geometry" />
        </mxCell>
        <mxCell id="TYe_E1v-t82sR9Y8aGbn-1" value="&lt;div style=&quot;font-size: 12px&quot; align=&quot;left&quot;&gt;&lt;ol&gt;&lt;li&gt;&lt;font style=&quot;font-size: 12px&quot;&gt;Run and edit Gazebo World&lt;br&gt;&lt;/font&gt;&lt;/li&gt;&lt;li&gt;&lt;font style=&quot;font-size: 12px&quot;&gt;Add and modify LiDAR in Gazebo World&lt;/font&gt;&lt;/li&gt;&lt;li&gt;&lt;font style=&quot;font-size: 12px&quot;&gt;Interact with LiDAR from ROS&lt;br&gt;&lt;/font&gt;&lt;/li&gt;&lt;/ol&gt;&lt;/div&gt;" style="rounded=0;whiteSpace=wrap;html=1;fontSize=18;fontColor=#FFFFFF;fillColor=#66B2FF;gradientColor=none;strokeColor=#FFFFFF;align=left;" vertex="1" parent="o8z9ErRJCHIPHsEvGA98-1">
          <mxGeometry x="500" y="700" width="300" height="60" as="geometry" />
        </mxCell>
        <mxCell id="TYe_E1v-t82sR9Y8aGbn-2" value="3" style="shape=process;whiteSpace=wrap;html=1;backgroundOutline=1;fontSize=24;fontColor=#FFFFFF;fillColor=#66B2FF;gradientColor=none;strokeColor=#FFFFFF;" vertex="1" parent="o8z9ErRJCHIPHsEvGA98-1">
          <mxGeometry x="20" y="880" width="120" height="60" as="geometry" />
        </mxCell>
        <mxCell id="TYe_E1v-t82sR9Y8aGbn-3" value="Open and customise a Simulated LiDAR&amp;nbsp;" style="rounded=0;whiteSpace=wrap;html=1;fontSize=18;fontColor=#FFFFFF;fillColor=#A1D6FF;gradientColor=none;strokeColor=#FFFFFF;" vertex="1" parent="o8z9ErRJCHIPHsEvGA98-1">
          <mxGeometry x="140" y="880" width="360" height="60" as="geometry" />
        </mxCell>
        <mxCell id="TYe_E1v-t82sR9Y8aGbn-4" value="&lt;div style=&quot;font-size: 12px&quot; align=&quot;left&quot;&gt;&lt;ol&gt;&lt;li&gt;TODO&lt;br&gt;&lt;/li&gt;&lt;/ol&gt;&lt;/div&gt;" style="rounded=0;whiteSpace=wrap;html=1;fontSize=18;fontColor=#FFFFFF;fillColor=#A1D6FF;gradientColor=none;strokeColor=#FFFFFF;align=left;" vertex="1" parent="o8z9ErRJCHIPHsEvGA98-1">
          <mxGeometry x="500" y="880" width="300" height="60" as="geometry" />
        </mxCell>
      </root>
    </mxGraphModel>
  </diagram>
  <diagram id="clgivDCjoy6WqJRAnzap" name="1.6_Point_Cloud_Manipulation">
    <mxGraphModel dx="1360" dy="834" grid="1" gridSize="10" guides="1" tooltips="1" connect="1" arrows="1" fold="1" page="1" pageScale="1" pageWidth="827" pageHeight="1169" math="0" shadow="0">
      <root>
        <mxCell id="Qwk8itgLuH_87v9c4H-A-0" />
        <mxCell id="Qwk8itgLuH_87v9c4H-A-1" parent="Qwk8itgLuH_87v9c4H-A-0" />
        <mxCell id="q-HwYT_mtrrfzeHJE0xE-1" value="&lt;div style=&quot;font-size: 24px&quot; align=&quot;right&quot;&gt;&lt;font style=&quot;font-size: 24px&quot; color=&quot;#FFFFFF&quot;&gt;Framework&amp;nbsp; &lt;br&gt;&lt;/font&gt;&lt;/div&gt;" style="rounded=1;whiteSpace=wrap;html=1;fillColor=#DBBEBB;strokeColor=none;arcSize=0;align=right;" parent="Qwk8itgLuH_87v9c4H-A-1" vertex="1">
          <mxGeometry x="20" y="200" width="780" height="110" as="geometry" />
        </mxCell>
        <mxCell id="L6SX79q7i5G3RsfCFiH7-0" value="LINUX&amp;nbsp;&amp;nbsp;" style="rounded=1;whiteSpace=wrap;html=1;align=right;" vertex="1" parent="Qwk8itgLuH_87v9c4H-A-1">
          <mxGeometry x="30" y="230" width="580" height="60" as="geometry" />
        </mxCell>
        <mxCell id="q-HwYT_mtrrfzeHJE0xE-0" value="&lt;div style=&quot;font-size: 24px&quot; align=&quot;right&quot;&gt;&lt;font style=&quot;font-size: 24px&quot; color=&quot;#FFFFFF&quot;&gt;Process&amp;nbsp; &lt;br&gt;&lt;/font&gt;&lt;/div&gt;" style="rounded=1;whiteSpace=wrap;html=1;fillColor=#FF99CC;strokeColor=none;arcSize=0;align=right;gradientColor=none;" parent="Qwk8itgLuH_87v9c4H-A-1" vertex="1">
          <mxGeometry x="20" y="310" width="780" height="230" as="geometry" />
        </mxCell>
        <mxCell id="q-HwYT_mtrrfzeHJE0xE-2" value="&lt;div style=&quot;font-size: 24px&quot; align=&quot;right&quot;&gt;&lt;font style=&quot;font-size: 24px&quot;&gt;Visualise&amp;nbsp; &lt;br&gt;&lt;/font&gt;&lt;/div&gt;" style="rounded=1;whiteSpace=wrap;html=1;fillColor=#CC99FF;strokeColor=none;arcSize=0;align=right;fontColor=#ffffff;" parent="Qwk8itgLuH_87v9c4H-A-1" vertex="1">
          <mxGeometry x="20" y="540" width="780" height="80" as="geometry" />
        </mxCell>
        <mxCell id="q-HwYT_mtrrfzeHJE0xE-3" value="&lt;div style=&quot;font-size: 24px&quot; align=&quot;right&quot;&gt;&lt;font style=&quot;font-size: 24px&quot; color=&quot;#FFFFFF&quot;&gt;Input PointCloud Data&amp;nbsp; &lt;br&gt;&lt;/font&gt;&lt;/div&gt;" style="rounded=1;whiteSpace=wrap;html=1;fillColor=#FFCC99;strokeColor=none;arcSize=0;align=right;" parent="Qwk8itgLuH_87v9c4H-A-1" vertex="1">
          <mxGeometry x="20" y="20" width="780" height="180" as="geometry" />
        </mxCell>
        <mxCell id="q-HwYT_mtrrfzeHJE0xE-4" value="Gazebo" style="rounded=1;whiteSpace=wrap;html=1;" parent="Qwk8itgLuH_87v9c4H-A-1" vertex="1">
          <mxGeometry x="180" y="120" width="120" height="60" as="geometry" />
        </mxCell>
        <mxCell id="q-HwYT_mtrrfzeHJE0xE-5" value="LiDAR_Sensor" style="rounded=1;whiteSpace=wrap;html=1;fillColor=#999999;strokeColor=#314354;fontColor=#CCCCCC;" parent="Qwk8itgLuH_87v9c4H-A-1" vertex="1">
          <mxGeometry x="320" y="120" width="120" height="60" as="geometry" />
        </mxCell>
        <mxCell id="q-HwYT_mtrrfzeHJE0xE-6" value="ROS" style="rounded=1;whiteSpace=wrap;html=1;fillColor=#FFFFFF;strokeColor=#314354;fontColor=#000000;" parent="Qwk8itgLuH_87v9c4H-A-1" vertex="1">
          <mxGeometry x="40" y="240" width="400" height="40" as="geometry" />
        </mxCell>
        <mxCell id="q-HwYT_mtrrfzeHJE0xE-7" value="RVIZ" style="rounded=1;whiteSpace=wrap;html=1;" parent="Qwk8itgLuH_87v9c4H-A-1" vertex="1">
          <mxGeometry x="40" y="560" width="400" height="40" as="geometry" />
        </mxCell>
        <mxCell id="q-HwYT_mtrrfzeHJE0xE-8" value="ROS_BAG" style="rounded=1;whiteSpace=wrap;html=1;" parent="Qwk8itgLuH_87v9c4H-A-1" vertex="1">
          <mxGeometry x="40" y="120" width="120" height="60" as="geometry" />
        </mxCell>
        <mxCell id="q-HwYT_mtrrfzeHJE0xE-9" value="" style="edgeStyle=segmentEdgeStyle;endArrow=classic;html=1;rounded=0;exitX=0.5;exitY=1;exitDx=0;exitDy=0;entryX=0.151;entryY=0.015;entryDx=0;entryDy=0;startArrow=classic;startFill=1;entryPerimeter=0;" parent="Qwk8itgLuH_87v9c4H-A-1" source="q-HwYT_mtrrfzeHJE0xE-8" target="q-HwYT_mtrrfzeHJE0xE-6" edge="1">
          <mxGeometry width="50" height="50" relative="1" as="geometry">
            <mxPoint x="410" y="260" as="sourcePoint" />
            <mxPoint x="460" y="210" as="targetPoint" />
            <Array as="points">
              <mxPoint x="100" y="241" />
            </Array>
          </mxGeometry>
        </mxCell>
        <mxCell id="q-HwYT_mtrrfzeHJE0xE-10" value="" style="edgeStyle=segmentEdgeStyle;endArrow=classic;html=1;rounded=0;exitX=0.5;exitY=1;exitDx=0;exitDy=0;entryX=0.85;entryY=0.014;entryDx=0;entryDy=0;entryPerimeter=0;" parent="Qwk8itgLuH_87v9c4H-A-1" source="q-HwYT_mtrrfzeHJE0xE-5" target="q-HwYT_mtrrfzeHJE0xE-6" edge="1">
          <mxGeometry width="50" height="50" relative="1" as="geometry">
            <mxPoint x="310" y="160" as="sourcePoint" />
            <mxPoint x="330" y="250" as="targetPoint" />
            <Array as="points">
              <mxPoint x="380" y="200" />
              <mxPoint x="380" y="200" />
            </Array>
          </mxGeometry>
        </mxCell>
        <mxCell id="q-HwYT_mtrrfzeHJE0xE-11" value="Real_World" style="rounded=1;whiteSpace=wrap;html=1;fillColor=#999999;strokeColor=#314354;fontColor=#CCCCCC;" parent="Qwk8itgLuH_87v9c4H-A-1" vertex="1">
          <mxGeometry x="320" y="40" width="120" height="60" as="geometry" />
        </mxCell>
        <mxCell id="q-HwYT_mtrrfzeHJE0xE-12" value="" style="endArrow=classic;html=1;rounded=0;exitX=0.5;exitY=1;exitDx=0;exitDy=0;entryX=0.5;entryY=0;entryDx=0;entryDy=0;" parent="Qwk8itgLuH_87v9c4H-A-1" source="q-HwYT_mtrrfzeHJE0xE-11" target="q-HwYT_mtrrfzeHJE0xE-5" edge="1">
          <mxGeometry width="50" height="50" relative="1" as="geometry">
            <mxPoint x="390" y="260" as="sourcePoint" />
            <mxPoint x="440" y="210" as="targetPoint" />
          </mxGeometry>
        </mxCell>
        <mxCell id="q-HwYT_mtrrfzeHJE0xE-13" value="Simulated_World" style="rounded=1;whiteSpace=wrap;html=1;" parent="Qwk8itgLuH_87v9c4H-A-1" vertex="1">
          <mxGeometry x="180" y="40" width="120" height="60" as="geometry" />
        </mxCell>
        <mxCell id="q-HwYT_mtrrfzeHJE0xE-14" value="" style="endArrow=classic;html=1;rounded=0;exitX=0.5;exitY=1;exitDx=0;exitDy=0;entryX=0.5;entryY=0;entryDx=0;entryDy=0;" parent="Qwk8itgLuH_87v9c4H-A-1" source="q-HwYT_mtrrfzeHJE0xE-13" target="q-HwYT_mtrrfzeHJE0xE-4" edge="1">
          <mxGeometry width="50" height="50" relative="1" as="geometry">
            <mxPoint x="410" y="110" as="sourcePoint" />
            <mxPoint x="410" y="130" as="targetPoint" />
          </mxGeometry>
        </mxCell>
        <mxCell id="q-HwYT_mtrrfzeHJE0xE-15" value="Pointcloud_Files" style="rounded=1;whiteSpace=wrap;html=1;" parent="Qwk8itgLuH_87v9c4H-A-1" vertex="1">
          <mxGeometry x="40" y="40" width="120" height="60" as="geometry" />
        </mxCell>
        <mxCell id="q-HwYT_mtrrfzeHJE0xE-16" value="" style="endArrow=classic;html=1;rounded=0;startArrow=classic;startFill=1;entryX=0.5;entryY=1;entryDx=0;entryDy=0;" parent="Qwk8itgLuH_87v9c4H-A-1" target="q-HwYT_mtrrfzeHJE0xE-15" edge="1">
          <mxGeometry width="50" height="50" relative="1" as="geometry">
            <mxPoint x="100" y="120" as="sourcePoint" />
            <mxPoint x="40" y="260" as="targetPoint" />
          </mxGeometry>
        </mxCell>
        <mxCell id="q-HwYT_mtrrfzeHJE0xE-17" value="" style="edgeStyle=segmentEdgeStyle;endArrow=classic;html=1;rounded=0;entryX=0.1;entryY=0;entryDx=0;entryDy=0;entryPerimeter=0;exitX=0.099;exitY=0.989;exitDx=0;exitDy=0;exitPerimeter=0;" parent="Qwk8itgLuH_87v9c4H-A-1" source="q-HwYT_mtrrfzeHJE0xE-6" target="q-HwYT_mtrrfzeHJE0xE-7" edge="1">
          <mxGeometry width="50" height="50" relative="1" as="geometry">
            <mxPoint x="90" y="281" as="sourcePoint" />
            <mxPoint x="330" y="250" as="targetPoint" />
            <Array as="points" />
          </mxGeometry>
        </mxCell>
        <mxCell id="q-HwYT_mtrrfzeHJE0xE-18" value="Open3D" style="rounded=1;whiteSpace=wrap;html=1;" parent="Qwk8itgLuH_87v9c4H-A-1" vertex="1">
          <mxGeometry x="120" y="320" width="80" height="60" as="geometry" />
        </mxCell>
        <mxCell id="q-HwYT_mtrrfzeHJE0xE-19" value="" style="edgeStyle=orthogonalEdgeStyle;rounded=0;orthogonalLoop=1;jettySize=auto;html=1;startArrow=classic;startFill=1;entryX=0.5;entryY=1;entryDx=0;entryDy=0;" parent="Qwk8itgLuH_87v9c4H-A-1" source="q-HwYT_mtrrfzeHJE0xE-21" target="q-HwYT_mtrrfzeHJE0xE-6" edge="1">
          <mxGeometry relative="1" as="geometry">
            <mxPoint x="240" y="300" as="targetPoint" />
          </mxGeometry>
        </mxCell>
        <mxCell id="q-HwYT_mtrrfzeHJE0xE-20" style="edgeStyle=orthogonalEdgeStyle;rounded=0;orthogonalLoop=1;jettySize=auto;html=1;entryX=0.5;entryY=0;entryDx=0;entryDy=0;startArrow=classic;startFill=1;" parent="Qwk8itgLuH_87v9c4H-A-1" source="q-HwYT_mtrrfzeHJE0xE-21" target="q-HwYT_mtrrfzeHJE0xE-7" edge="1">
          <mxGeometry relative="1" as="geometry" />
        </mxCell>
        <mxCell id="q-HwYT_mtrrfzeHJE0xE-21" value="PointNet" style="rounded=1;whiteSpace=wrap;html=1;" parent="Qwk8itgLuH_87v9c4H-A-1" vertex="1">
          <mxGeometry x="200" y="390" width="80" height="60" as="geometry" />
        </mxCell>
        <mxCell id="q-HwYT_mtrrfzeHJE0xE-22" style="edgeStyle=orthogonalEdgeStyle;rounded=0;orthogonalLoop=1;jettySize=auto;html=1;entryX=0.7;entryY=1.086;entryDx=0;entryDy=0;entryPerimeter=0;startArrow=classic;startFill=1;" parent="Qwk8itgLuH_87v9c4H-A-1" source="q-HwYT_mtrrfzeHJE0xE-24" target="q-HwYT_mtrrfzeHJE0xE-6" edge="1">
          <mxGeometry relative="1" as="geometry" />
        </mxCell>
        <mxCell id="q-HwYT_mtrrfzeHJE0xE-23" style="edgeStyle=orthogonalEdgeStyle;rounded=0;orthogonalLoop=1;jettySize=auto;html=1;entryX=0.7;entryY=0.029;entryDx=0;entryDy=0;entryPerimeter=0;startArrow=classic;startFill=1;" parent="Qwk8itgLuH_87v9c4H-A-1" source="q-HwYT_mtrrfzeHJE0xE-24" target="q-HwYT_mtrrfzeHJE0xE-7" edge="1">
          <mxGeometry relative="1" as="geometry" />
        </mxCell>
        <mxCell id="q-HwYT_mtrrfzeHJE0xE-24" value="Filtering" style="rounded=1;whiteSpace=wrap;html=1;" parent="Qwk8itgLuH_87v9c4H-A-1" vertex="1">
          <mxGeometry x="280" y="460" width="80" height="60" as="geometry" />
        </mxCell>
        <mxCell id="q-HwYT_mtrrfzeHJE0xE-25" value="" style="endArrow=classic;html=1;rounded=0;entryX=0.5;entryY=0;entryDx=0;entryDy=0;" parent="Qwk8itgLuH_87v9c4H-A-1" source="q-HwYT_mtrrfzeHJE0xE-4" target="q-HwYT_mtrrfzeHJE0xE-6" edge="1">
          <mxGeometry width="50" height="50" relative="1" as="geometry">
            <mxPoint x="239.76" y="180" as="sourcePoint" />
            <mxPoint x="239.76" y="200" as="targetPoint" />
          </mxGeometry>
        </mxCell>
        <mxCell id="q-HwYT_mtrrfzeHJE0xE-26" style="edgeStyle=orthogonalEdgeStyle;rounded=0;orthogonalLoop=1;jettySize=auto;html=1;entryX=1;entryY=0.5;entryDx=0;entryDy=0;fontSize=24;fontColor=#FFFFFF;startArrow=classic;startFill=1;" parent="Qwk8itgLuH_87v9c4H-A-1" source="q-HwYT_mtrrfzeHJE0xE-27" target="q-HwYT_mtrrfzeHJE0xE-6" edge="1">
          <mxGeometry relative="1" as="geometry" />
        </mxCell>
        <mxCell id="q-HwYT_mtrrfzeHJE0xE-27" value="Actions" style="rounded=1;whiteSpace=wrap;html=1;fillColor=#999999;strokeColor=#314354;fontColor=#CCCCCC;" parent="Qwk8itgLuH_87v9c4H-A-1" vertex="1">
          <mxGeometry x="480" y="320" width="80" height="60" as="geometry" />
        </mxCell>
        <mxCell id="q-HwYT_mtrrfzeHJE0xE-28" value="" style="endArrow=classic;startArrow=classic;html=1;rounded=0;exitX=0.5;exitY=0;exitDx=0;exitDy=0;entryX=0.3;entryY=1.029;entryDx=0;entryDy=0;entryPerimeter=0;" parent="Qwk8itgLuH_87v9c4H-A-1" source="q-HwYT_mtrrfzeHJE0xE-18" target="q-HwYT_mtrrfzeHJE0xE-6" edge="1">
          <mxGeometry width="50" height="50" relative="1" as="geometry">
            <mxPoint x="310" y="420" as="sourcePoint" />
            <mxPoint x="360" y="370" as="targetPoint" />
          </mxGeometry>
        </mxCell>
        <mxCell id="q-HwYT_mtrrfzeHJE0xE-29" value="" style="endArrow=classic;html=1;rounded=0;exitX=0.5;exitY=1;exitDx=0;exitDy=0;entryX=0.3;entryY=0;entryDx=0;entryDy=0;entryPerimeter=0;" parent="Qwk8itgLuH_87v9c4H-A-1" source="q-HwYT_mtrrfzeHJE0xE-18" target="q-HwYT_mtrrfzeHJE0xE-7" edge="1">
          <mxGeometry width="50" height="50" relative="1" as="geometry">
            <mxPoint x="310" y="420" as="sourcePoint" />
            <mxPoint x="360" y="370" as="targetPoint" />
          </mxGeometry>
        </mxCell>
        <mxCell id="q-HwYT_mtrrfzeHJE0xE-30" value="1" style="shape=process;whiteSpace=wrap;html=1;backgroundOutline=1;fontSize=24;fontColor=#FFFFFF;fillColor=#66B2FF;gradientColor=none;strokeColor=#FFFFFF;" parent="Qwk8itgLuH_87v9c4H-A-1" vertex="1">
          <mxGeometry x="20" y="760" width="120" height="60" as="geometry" />
        </mxCell>
        <mxCell id="q-HwYT_mtrrfzeHJE0xE-31" value="2" style="shape=process;whiteSpace=wrap;html=1;backgroundOutline=1;fontSize=24;fontColor=#FFFFFF;fillColor=#66B2FF;gradientColor=none;strokeColor=#FFFFFF;" parent="Qwk8itgLuH_87v9c4H-A-1" vertex="1">
          <mxGeometry x="20" y="820" width="120" height="60" as="geometry" />
        </mxCell>
        <mxCell id="q-HwYT_mtrrfzeHJE0xE-32" value="&lt;font style=&quot;font-size: 18px&quot;&gt;Overview&lt;/font&gt;" style="shape=process;whiteSpace=wrap;html=1;backgroundOutline=1;fontSize=24;fontColor=#FFFFFF;fillColor=#66B2FF;gradientColor=none;strokeColor=#FFFFFF;" parent="Qwk8itgLuH_87v9c4H-A-1" vertex="1">
          <mxGeometry x="20" y="700" width="120" height="60" as="geometry" />
        </mxCell>
        <mxCell id="q-HwYT_mtrrfzeHJE0xE-33" value="TODO" style="rounded=0;whiteSpace=wrap;html=1;fontSize=18;fontColor=#FFFFFF;fillColor=#A1D6FF;gradientColor=none;strokeColor=#FFFFFF;" parent="Qwk8itgLuH_87v9c4H-A-1" vertex="1">
          <mxGeometry x="140" y="760" width="360" height="60" as="geometry" />
        </mxCell>
        <mxCell id="q-HwYT_mtrrfzeHJE0xE-34" value="&lt;div style=&quot;font-size: 12px&quot; align=&quot;left&quot;&gt;&lt;ol&gt;&lt;li&gt;TODO&lt;br&gt;&lt;/li&gt;&lt;/ol&gt;&lt;/div&gt;" style="rounded=0;whiteSpace=wrap;html=1;fontSize=18;fontColor=#FFFFFF;fillColor=#A1D6FF;gradientColor=none;strokeColor=#FFFFFF;align=left;" parent="Qwk8itgLuH_87v9c4H-A-1" vertex="1">
          <mxGeometry x="500" y="760" width="300" height="60" as="geometry" />
        </mxCell>
        <mxCell id="q-HwYT_mtrrfzeHJE0xE-35" value="&lt;div style=&quot;font-size: 36px&quot; align=&quot;left&quot;&gt;&lt;b&gt;&lt;font style=&quot;font-size: 36px&quot;&gt;1.4&lt;/font&gt;&lt;/b&gt;&lt;/div&gt;" style="rounded=1;whiteSpace=wrap;html=1;strokeColor=none;align=left;" parent="Qwk8itgLuH_87v9c4H-A-1" vertex="1">
          <mxGeometry x="20" y="640" width="780" height="50" as="geometry" />
        </mxCell>
        <mxCell id="q-HwYT_mtrrfzeHJE0xE-36" value="&lt;div align=&quot;center&quot;&gt;Description&lt;/div&gt;" style="rounded=1;whiteSpace=wrap;html=1;strokeColor=none;align=center;" parent="Qwk8itgLuH_87v9c4H-A-1" vertex="1">
          <mxGeometry x="140" y="680" width="360" height="20" as="geometry" />
        </mxCell>
        <mxCell id="q-HwYT_mtrrfzeHJE0xE-37" value="Tasks" style="rounded=1;whiteSpace=wrap;html=1;strokeColor=none;align=center;" parent="Qwk8itgLuH_87v9c4H-A-1" vertex="1">
          <mxGeometry x="500" y="680" width="300" height="20" as="geometry" />
        </mxCell>
        <mxCell id="q-HwYT_mtrrfzeHJE0xE-38" value="TODO" style="rounded=0;whiteSpace=wrap;html=1;fontSize=18;fontColor=#FFFFFF;fillColor=#A1D6FF;gradientColor=none;strokeColor=#FFFFFF;" parent="Qwk8itgLuH_87v9c4H-A-1" vertex="1">
          <mxGeometry x="140" y="820" width="360" height="60" as="geometry" />
        </mxCell>
        <mxCell id="q-HwYT_mtrrfzeHJE0xE-39" value="&lt;div style=&quot;font-size: 12px&quot; align=&quot;left&quot;&gt;&lt;ol&gt;&lt;li&gt;TODO&lt;br&gt;&lt;/li&gt;&lt;/ol&gt;&lt;/div&gt;" style="rounded=0;whiteSpace=wrap;html=1;fontSize=18;fontColor=#FFFFFF;fillColor=#A1D6FF;gradientColor=none;strokeColor=#FFFFFF;align=left;" parent="Qwk8itgLuH_87v9c4H-A-1" vertex="1">
          <mxGeometry x="500" y="820" width="300" height="60" as="geometry" />
        </mxCell>
        <mxCell id="q-HwYT_mtrrfzeHJE0xE-40" value="&lt;font style=&quot;font-size: 12px&quot;&gt;Understand how to use ROS Bags to both record and replay data.&lt;br&gt;&lt;/font&gt;" style="rounded=0;whiteSpace=wrap;html=1;fontSize=18;fontColor=#FFFFFF;fillColor=#66B2FF;gradientColor=none;strokeColor=#FFFFFF;" parent="Qwk8itgLuH_87v9c4H-A-1" vertex="1">
          <mxGeometry x="140" y="700" width="360" height="60" as="geometry" />
        </mxCell>
        <mxCell id="q-HwYT_mtrrfzeHJE0xE-41" value="&lt;div style=&quot;font-size: 12px&quot; align=&quot;left&quot;&gt;&lt;ol&gt;&lt;li&gt;&lt;font style=&quot;font-size: 12px&quot;&gt;TODO&lt;br&gt;&lt;/font&gt;&lt;/li&gt;&lt;/ol&gt;&lt;/div&gt;" style="rounded=0;whiteSpace=wrap;html=1;fontSize=18;fontColor=#FFFFFF;fillColor=#66B2FF;gradientColor=none;strokeColor=#FFFFFF;align=left;" parent="Qwk8itgLuH_87v9c4H-A-1" vertex="1">
          <mxGeometry x="500" y="700" width="300" height="60" as="geometry" />
        </mxCell>
        <mxCell id="q-HwYT_mtrrfzeHJE0xE-42" value="&lt;font style=&quot;font-size: 12px&quot;&gt;Visualise data in RVIZ&lt;br&gt;&lt;/font&gt;" style="rounded=0;whiteSpace=wrap;html=1;fontSize=18;fontColor=#FFFFFF;fillColor=#66B2FF;gradientColor=none;strokeColor=#FFFFFF;" parent="Qwk8itgLuH_87v9c4H-A-1" vertex="1">
          <mxGeometry x="140" y="880" width="360" height="60" as="geometry" />
        </mxCell>
        <mxCell id="q-HwYT_mtrrfzeHJE0xE-43" value="&lt;font style=&quot;font-size: 18px&quot;&gt;Examples&lt;/font&gt;" style="shape=process;whiteSpace=wrap;html=1;backgroundOutline=1;fontSize=24;fontColor=#FFFFFF;fillColor=#66B2FF;gradientColor=none;strokeColor=#FFFFFF;" parent="Qwk8itgLuH_87v9c4H-A-1" vertex="1">
          <mxGeometry x="20" y="880" width="120" height="60" as="geometry" />
        </mxCell>
        <mxCell id="q-HwYT_mtrrfzeHJE0xE-44" value="&lt;div style=&quot;font-size: 12px&quot; align=&quot;left&quot;&gt;&lt;ol&gt;&lt;li&gt;&lt;font style=&quot;font-size: 12px&quot;&gt;TODO&lt;br&gt;&lt;/font&gt;&lt;/li&gt;&lt;/ol&gt;&lt;/div&gt;" style="rounded=0;whiteSpace=wrap;html=1;fontSize=18;fontColor=#FFFFFF;fillColor=#66B2FF;gradientColor=none;strokeColor=#FFFFFF;align=left;" parent="Qwk8itgLuH_87v9c4H-A-1" vertex="1">
          <mxGeometry x="500" y="880" width="300" height="60" as="geometry" />
        </mxCell>
        <mxCell id="q-HwYT_mtrrfzeHJE0xE-45" value="1" style="shape=process;whiteSpace=wrap;html=1;backgroundOutline=1;fontSize=24;fontColor=#FFFFFF;fillColor=#66B2FF;gradientColor=none;strokeColor=#FFFFFF;" parent="Qwk8itgLuH_87v9c4H-A-1" vertex="1">
          <mxGeometry x="20" y="940" width="120" height="60" as="geometry" />
        </mxCell>
        <mxCell id="q-HwYT_mtrrfzeHJE0xE-46" value="2" style="shape=process;whiteSpace=wrap;html=1;backgroundOutline=1;fontSize=24;fontColor=#FFFFFF;fillColor=#66B2FF;gradientColor=none;strokeColor=#FFFFFF;" parent="Qwk8itgLuH_87v9c4H-A-1" vertex="1">
          <mxGeometry x="20" y="1000" width="120" height="60" as="geometry" />
        </mxCell>
        <mxCell id="q-HwYT_mtrrfzeHJE0xE-47" value="TODO" style="rounded=0;whiteSpace=wrap;html=1;fontSize=18;fontColor=#FFFFFF;fillColor=#A1D6FF;gradientColor=none;strokeColor=#FFFFFF;" parent="Qwk8itgLuH_87v9c4H-A-1" vertex="1">
          <mxGeometry x="140" y="940" width="360" height="60" as="geometry" />
        </mxCell>
        <mxCell id="q-HwYT_mtrrfzeHJE0xE-48" value="&lt;div style=&quot;font-size: 12px&quot; align=&quot;left&quot;&gt;&lt;ol&gt;&lt;li&gt;TODO&lt;br&gt;&lt;/li&gt;&lt;/ol&gt;&lt;/div&gt;" style="rounded=0;whiteSpace=wrap;html=1;fontSize=18;fontColor=#FFFFFF;fillColor=#A1D6FF;gradientColor=none;strokeColor=#FFFFFF;align=left;" parent="Qwk8itgLuH_87v9c4H-A-1" vertex="1">
          <mxGeometry x="500" y="940" width="300" height="60" as="geometry" />
        </mxCell>
        <mxCell id="q-HwYT_mtrrfzeHJE0xE-49" value="TODO" style="rounded=0;whiteSpace=wrap;html=1;fontSize=18;fontColor=#FFFFFF;fillColor=#A1D6FF;gradientColor=none;strokeColor=#FFFFFF;" parent="Qwk8itgLuH_87v9c4H-A-1" vertex="1">
          <mxGeometry x="140" y="1000" width="360" height="60" as="geometry" />
        </mxCell>
        <mxCell id="q-HwYT_mtrrfzeHJE0xE-50" value="&lt;div style=&quot;font-size: 12px&quot; align=&quot;left&quot;&gt;&lt;ol&gt;&lt;li&gt;TODO&lt;br&gt;&lt;/li&gt;&lt;/ol&gt;&lt;/div&gt;" style="rounded=0;whiteSpace=wrap;html=1;fontSize=18;fontColor=#FFFFFF;fillColor=#A1D6FF;gradientColor=none;strokeColor=#FFFFFF;align=left;" parent="Qwk8itgLuH_87v9c4H-A-1" vertex="1">
          <mxGeometry x="500" y="1000" width="300" height="60" as="geometry" />
        </mxCell>
      </root>
    </mxGraphModel>
  </diagram>
</mxfile>
